<?xml version="1.0" standalone="no"?>
<!DOCTYPE svg PUBLIC "-//W3C//DTD SVG 1.1//EN" "http://www.w3.org/Graphics/SVG/1.1/DTD/svg11.dtd" >
<svg xmlns="http://www.w3.org/2000/svg" xmlns:xlink="http://www.w3.org/1999/xlink" version="1.1">
<metadata>
Created by FontForge 20170731 at Tue Dec  3 17:42:59 2013
 By Aleksey,,,
Copyright (c) 2013 by Juan Pablo del Peral (huertatipografica.com.ar)
</metadata>
<defs>
<font id="AlegreyaSansSC-Black" horiz-adv-x="653" >
  <font-face 
    font-family="Alegreya Sans SC Black"
    font-weight="900"
    font-stretch="normal"
    units-per-em="1000"
    panose-1="0 0 10 0 0 0 0 0 0 0"
    ascent="800"
    descent="-200"
    x-height="513"
    cap-height="647"
    bbox="-223 -304 1244 1117"
    underline-thickness="0"
    underline-position="0"
    unicode-range="U+0020-F6D8"
  />
<missing-glyph horiz-adv-x="135" 
 />
    <glyph glyph-name="Idieresis" unicode="&#xa8;I" horiz-adv-x="327" 
d="M134.5 870.5q21.5 -21.5 21.5 -60.5q0 -42 -23.5 -66.5t-64.5 -24.5q-40 0 -61 21.5t-21 61.5q0 42 24 66t65 24q38 0 59.5 -21.5zM317.5 870.5q21.5 -21.5 21.5 -60.5q0 -42 -23.5 -66.5t-64.5 -24.5q-40 0 -61 21.5t-21 61.5q0 42 24 66t65 24q38 0 59.5 -21.5zM261 0
h-201l10 190l-10 457h204l-11 -437z" />
    <glyph glyph-name="Odieresis" unicode="&#xa8;O" 
d="M294.5 870.5q21.5 -21.5 21.5 -60.5q0 -42 -23.5 -66.5t-64.5 -24.5q-40 0 -61 21.5t-21 61.5q0 42 24 66t65 24q38 0 59.5 -21.5zM487.5 870.5q21.5 -21.5 21.5 -60.5q0 -42 -23.5 -66.5t-64.5 -24.5q-40 0 -61 21.5t-21 61.5q0 42 24 66t65 24q38 0 59.5 -21.5z
M559 575.5q77 -83.5 77 -235.5q0 -168 -84.5 -260t-239.5 -92q-141 0 -218 84.5t-77 239.5q0 166 84.5 256.5t239.5 90.5q141 0 218 -83.5zM264 485.5q-20 -13.5 -28.5 -47.5t-8.5 -99q0 -83 9 -126t30.5 -60t63.5 -17q39 0 59 13.5t28.5 48t8.5 99.5q0 82 -9 125t-30.5 60
t-63.5 17q-39 0 -59 -13.5z" />
    <glyph glyph-name="Yacute" unicode="&#xb4;Y" horiz-adv-x="594" 
d="M390 0h-200l10 170l-1 31l-207 446h210l16 -54l73 -195h12l84 188l23 61h204l-230 -439l-2 -38zM459 797l-6 -16q-132 -42 -238 -69l-17 4l-30 79q118 60 225 123l17 -4z" />
    <glyph glyph-name="idieresis" unicode="&#xa8;i" horiz-adv-x="303" 
d="M125.5 736.5q21.5 -21.5 21.5 -60.5q0 -42 -23.5 -66.5t-64.5 -24.5q-40 0 -61 21.5t-21 61.5q0 42 24 66t65 24q38 0 59.5 -21.5zM308.5 736.5q21.5 -21.5 21.5 -60.5q0 -42 -23.5 -66.5t-64.5 -24.5q-40 0 -61 21.5t-21 61.5q0 42 24 66t65 24q38 0 59.5 -21.5zM239 0
h-186l9 149l-9 364h189l-11 -345z" />
    <glyph glyph-name="odieresis" unicode="&#xa8;o" horiz-adv-x="565" 
d="M251.5 736.5q21.5 -21.5 21.5 -60.5q0 -42 -23.5 -66.5t-64.5 -24.5q-40 0 -61 21.5t-21 61.5q0 42 24 66t65 24q38 0 59.5 -21.5zM444.5 736.5q21.5 -21.5 21.5 -60.5q0 -42 -23.5 -66.5t-64.5 -24.5q-40 0 -61 21.5t-21 61.5q0 42 24 66t65 24q38 0 59.5 -21.5z
M480.5 457q65.5 -66 65.5 -187q0 -134 -72.5 -207.5t-204.5 -73.5q-120 0 -185.5 67.5t-65.5 189.5q0 132 72.5 204.5t204.5 72.5q120 0 185.5 -66zM236.5 368.5q-13.5 -7.5 -19 -29.5t-5.5 -68q0 -63 6 -93t21 -41t47 -11q29 0 42.5 7.5t18.5 29t5 67.5q0 64 -5.5 94
t-21 41t-47.5 11q-28 0 -41.5 -7.5z" />
    <glyph glyph-name="yacute" unicode="&#xb4;y" horiz-adv-x="525" 
d="M348 0h-185l9 131l-1 17l-174 365h194l14 -47l52 -133h10l61 126l20 54h189l-196 -360l-1 -22zM432 688l-3 -17q-142 -72 -223 -109l-17 1l-44 72q102 76 201 161l17 -1z" />
    <glyph glyph-name="Itilde" unicode="&#x7e;I" horiz-adv-x="327" 
d="M261 0h-201l10 190l-10 457h204l-11 -437zM333 842l-72 -111l-15 -6q-22 4 -72 19q-41 13 -51 13q-17 0 -29 -13.5t-31 -42.5h-16l-56 55v16l72 111l15 6q22 -4 72 -19q41 -13 51 -13q17 0 29 13.5t31 42.5h16l56 -55v-16z" />
    <glyph glyph-name="itilde" unicode="&#x7e;i" horiz-adv-x="303" 
d="M239 0h-186l9 149l-9 364h189l-11 -345zM324 708l-72 -111l-15 -6q-22 4 -72 19q-41 13 -51 13q-17 0 -29 -13.5t-31 -42.5h-16l-56 55v16l72 111l15 6q22 -4 72 -19q41 -13 51 -13q17 0 29 13.5t31 42.5h16l56 -55v-16z" />
    <glyph glyph-name="Utilde" unicode="&#x7e;U" 
d="M599 216q-1 -110 -74 -169t-209 -59q-131 0 -200.5 59t-66.5 169l3 103l-6 328h201l-9 -404q-1 -51 19.5 -74t66.5 -23q47 0 68 23t20 74l-9 404h204l-7 -328zM522 845l-81 -113l-16 -6q-27 3 -86 20q-58 14 -67 14q-17 0 -30 -13t-39 -45h-16l-57 55v16l81 113l16 6
q27 -3 86 -20q58 -14 67 -14q17 0 30 13t39 45h16l57 -55v-16z" />
    <glyph glyph-name="utilde" unicode="&#x7e;u" horiz-adv-x="566" 
d="M517 169q-1 -87 -64 -133.5t-180 -46.5q-113 0 -172 46.5t-56 133.5l2 83l-5 261h185l-8 -319q-1 -32 13 -45.5t49 -13.5t49.5 13.5t13.5 45.5l-8 319h188l-6 -260zM478 711l-81 -113l-16 -6q-27 3 -86 20q-58 14 -67 14q-17 0 -30 -13t-39 -45h-16l-57 55v16l81 113
l16 6q27 -3 86 -20q58 -14 67 -14q17 0 30 13t39 45h16l57 -55v-16z" />
    <glyph glyph-name="Etilde" unicode="&#x7e;E" horiz-adv-x="541" 
d="M528 146l-12 -146h-456l10 190l-10 457h464l11 -14l-13 -146l-159 6h-103l-2 -91h99l104 3l11 -14l-12 -146l-116 3h-90l-1 -38l2 -56h96l166 6zM487 845l-81 -113l-16 -6q-27 3 -86 20q-58 14 -67 14q-17 0 -30 -13t-39 -45h-16l-57 55v16l81 113l16 6q27 -3 86 -20
q58 -14 67 -14q17 0 30 13t39 45h16l57 -55v-16z" />
    <glyph glyph-name="etilde" unicode="&#x7e;e" horiz-adv-x="480" 
d="M461 135l-11 -135h-397l9 149l-9 364h404l10 -13l-11 -135l-135 6h-84l-1 -44h80l87 3l10 -13l-11 -135l-98 3h-72l-1 -17l1 -26h79l140 5zM449 711l-81 -113l-16 -6q-27 3 -86 20q-58 14 -67 14q-17 0 -30 -13t-39 -45h-16l-57 55v16l81 113l16 6q27 -3 86 -20
q58 -14 67 -14q17 0 30 13t39 45h16l57 -55v-16z" />
    <glyph glyph-name="Ytilde" unicode="&#x7e;Y" horiz-adv-x="594" 
d="M390 0h-200l10 170l-1 31l-207 446h210l16 -54l73 -195h12l84 188l23 61h204l-230 -439l-2 -38zM492 845l-81 -113l-16 -6q-27 3 -86 20q-58 14 -67 14q-17 0 -30 -13t-39 -45h-16l-57 55v16l81 113l16 6q27 -3 86 -20q58 -14 67 -14q17 0 30 13t39 45h16l57 -55v-16z
" />
    <glyph glyph-name="ytilde" unicode="&#x7e;y" horiz-adv-x="525" 
d="M348 0h-185l9 131l-1 17l-174 365h194l14 -47l52 -133h10l61 126l20 54h189l-196 -360l-1 -22zM464 711l-81 -113l-16 -6q-27 3 -86 20q-58 14 -67 14q-17 0 -30 -13t-39 -45h-16l-57 55v16l81 113l16 6q27 -3 86 -20q58 -14 67 -14q17 0 30 13t39 45h16l57 -55v-16z" />
    <glyph glyph-name="Gtilde" unicode="&#x7e;G" horiz-adv-x="596" 
d="M569 628l-43 -177h-16q-50 25 -86.5 36t-79.5 11q-46 0 -70.5 -15t-35.5 -53t-11 -110q0 -73 11 -111.5t37.5 -54t76.5 -15.5q14 0 36 4v32l-3 109l183 13l-3 -88v-177q-116 -44 -231 -44q-157 0 -237 83.5t-80 238.5q0 170 94.5 259t270.5 89q108 0 187 -30zM523 845
l-81 -113l-16 -6q-27 3 -86 20q-58 14 -67 14q-17 0 -30 -13t-39 -45h-16l-57 55v16l81 113l16 6q27 -3 86 -20q58 -14 67 -14q17 0 30 13t39 45h16l57 -55v-16z" />
    <glyph glyph-name="gtilde" unicode="&#x7e;g" horiz-adv-x="514" 
d="M489 502l-40 -163h-14q-43 19 -73 27.5t-66 8.5q-35 0 -52.5 -8.5t-24.5 -34t-7 -78.5q0 -54 8 -80.5t27.5 -36t59.5 -9.5h15v13l-2 91l169 11l-3 -70v-147q-98 -37 -196 -37q-135 0 -203.5 66t-68.5 189q0 136 81 207t232 71q95 0 158 -20zM465 711l-81 -113l-16 -6
q-27 3 -86 20q-58 14 -67 14q-17 0 -30 -13t-39 -45h-16l-57 55v16l81 113l16 6q27 -3 86 -20q58 -14 67 -14q17 0 30 13t39 45h16l57 -55v-16z" />
    <glyph glyph-name=".notdef" horiz-adv-x="135" 
 />
    <glyph glyph-name=".null" horiz-adv-x="0" 
 />
    <glyph glyph-name="nonmarkingreturn" horiz-adv-x="333" 
 />
    <glyph glyph-name="space" unicode=" " horiz-adv-x="135" 
 />
    <glyph glyph-name="exclam" unicode="!" horiz-adv-x="274" 
d="M196 259l-109 -16l-19 18l-17 378l17 22l157 11l23 -23zM197.5 165q24.5 -25 24.5 -70q0 -48 -27 -76t-74 -28q-46 0 -70 24.5t-24 70.5q0 48 27.5 76t74.5 28q44 0 68.5 -25z" />
    <glyph glyph-name="quotedbl" unicode="&#x22;" horiz-adv-x="443" 
d="M166 372l-88 -14l-15 11l-10 268l151 9l10 -12zM359 372l-88 -14l-15 11l-10 268l151 9l10 -12z" />
    <glyph glyph-name="numbersign" unicode="#" horiz-adv-x="587" 
d="M454 256h72l11 -12l-8 -97h-93l-18 -116h-111l-9 12l17 104h-92l-18 -116h-111l-9 12l17 104h-71l-11 12l8 97h91l14 90h-72l-11 12l8 97h92l19 117h108l12 -13l-17 -104h91l19 117h108l12 -13l-17 -104h71l11 -12l-8 -97h-91zM255 346l-14 -90h91l14 90h-91z" />
    <glyph glyph-name="dollar" unicode="$" horiz-adv-x="469" 
d="M399 62q-37 -48 -113 -66l-8 -138h-115l-14 15l7 117q-67 7 -132 26l27 161l17 13q39 -31 85 -51t76 -20q24 0 24 16q0 12 -13.5 19.5t-47.5 20.5q-45 16 -76 33t-54 49.5t-23 82.5q0 62 38 108.5t107 64.5l7 134h112l17 -15l-6 -111q56 -5 113 -25l-27 -154l-26 -7
q-35 23 -72.5 37t-58.5 14t-21 -13t14.5 -21t48.5 -21q45 -16 75.5 -32.5t53 -48t22.5 -80.5q0 -60 -37 -108z" />
    <glyph glyph-name="percent" unicode="%" horiz-adv-x="889" 
d="M703 623l-462 -717l-82 50l-6 17l464 721l76 -47zM314.5 609q40.5 -46 40.5 -133q0 -94 -45.5 -144.5t-130.5 -50.5q-77 0 -118 46t-41 131q0 95 46.5 146t131.5 51q76 0 116.5 -46zM146.5 520q-11.5 -15 -11.5 -53q0 -41 11.5 -58.5t40.5 -17.5q30 0 42 16.5t12 53.5
q0 40 -12.5 57t-42.5 17q-28 0 -39.5 -15zM827.5 321q40.5 -46 40.5 -133q0 -94 -45.5 -144.5t-130.5 -50.5q-77 0 -118 46t-41 131q0 95 46.5 146t131.5 51q76 0 116.5 -46zM659.5 232q-11.5 -15 -11.5 -53q0 -41 11.5 -58.5t40.5 -17.5q30 0 42 16.5t12 53.5
q0 40 -12.5 57t-42.5 17q-28 0 -39.5 -15z" />
    <glyph glyph-name="ampersand" unicode="&#x26;" horiz-adv-x="680" 
d="M699 265l-12 -120h-146q-62 -158 -252 -158q-131 0 -202 69.5t-71 197.5q0 124 64.5 196.5t179.5 72.5q68 0 103 -24.5t38 -67.5q167 134 233 281h15q56 -52 75 -120q-19 -52 -99.5 -132.5t-195 -162t-226.5 -136.5q30 -40 98 -40q64 0 98.5 36t44.5 112l13 10h231z
M177 293q37 17 85 44q23 15 23 40q0 26 -31 26q-71 0 -77 -110z" />
    <glyph glyph-name="quotesingle" unicode="'" horiz-adv-x="250" 
d="M166 372l-88 -14l-15 11l-10 268l151 9l10 -12z" />
    <glyph glyph-name="parenleft" unicode="(" horiz-adv-x="302" 
d="M300 587q-45 -50 -66.5 -131.5t-21.5 -204.5q0 -113 21.5 -189.5t66.5 -126.5v-15l-69 -57h-17q-81 60 -119.5 154t-38.5 233q0 150 38.5 249t119.5 160h17l69 -57v-15z" />
    <glyph glyph-name="parenright" unicode=")" horiz-adv-x="302" 
d="M2 -65q45 50 66.5 131.5t21.5 204.5q0 113 -21.5 189.5t-66.5 126.5v15l69 57h17q81 -60 119.5 -154t38.5 -233q0 -150 -38.5 -249t-119.5 -160h-17l-69 57v15z" />
    <glyph glyph-name="asterisk" unicode="*" horiz-adv-x="394" 
d="M223 614l-51 -6l-9 8l-6 118q43 15 97 17l5 -10zM142 554l-11 -5l-114 30q-1 44 13 97l12 3l109 -74zM394 561l-7 -8l-132 -4l-23 46l5 11l112 42q27 -39 45 -87zM326 440q-24 -33 -69 -70l-10 4l-45 125l37 35l12 -1zM185 498l-64 -100q-38 11 -89 42l1 12l104 81
l46 -24z" />
    <glyph glyph-name="plus" unicode="+" horiz-adv-x="480" 
d="M306 320h148l12 -13l-9 -117h-151v-152l-117 -9l-13 12v149h-149l-12 13l9 117h152v152l117 9l13 -12v-149z" />
    <glyph glyph-name="comma" unicode="," horiz-adv-x="228" 
d="M209 77q0 -58 -37 -111.5t-115 -107.5l-61 53l-2 14q56 49 56 109q0 42 -33 75l1 16q72 40 143 58q48 -45 48 -106z" />
    <glyph glyph-name="hyphen" unicode="-" horiz-adv-x="299" 
d="M274 206l-235 -38l-14 14v120l234 38l14 -14z" />
    <glyph glyph-name="period" unicode="." horiz-adv-x="228" 
d="M186.5 165q24.5 -25 24.5 -70q0 -48 -27 -76t-74 -28q-46 0 -70 24.5t-24 70.5q0 48 27.5 76t74.5 28q44 0 68.5 -25z" />
    <glyph glyph-name="slash" unicode="/" horiz-adv-x="280" 
d="M118 -118h-135l-11 15l208 786h131l15 -16z" />
    <glyph glyph-name="zero" unicode="0" horiz-adv-x="513" 
d="M427.5 457.5q56.5 -66.5 56.5 -187.5q0 -134 -63 -208t-176 -74q-102 0 -159 67t-57 188q0 132 63.5 206.5t177.5 74.5q101 0 157.5 -66.5zM197 323q-17 -19 -17 -67q0 -52 17 -74.5t59 -22.5t60 20.5t18 67.5q0 52 -18.5 73.5t-60.5 21.5q-41 0 -58 -19z" />
    <glyph glyph-name="one" unicode="1" horiz-adv-x="379" 
d="M293 210l8 -210h-198l8 190v109l-94 -20l-12 9v158l270 76l28 -20z" />
    <glyph glyph-name="two" unicode="2" horiz-adv-x="490" 
d="M385 486.5q51 -35.5 51 -99.5q0 -83 -107 -190l-44 -44l3 -5h77l97 10l10 -12l-22 -154l-144 8h-230l-36 -3l-9 7v118l128 110q82 72 82 102q0 23 -35 23q-27 0 -61 -13.5t-65 -36.5h-21l-33 152q124 63 228 63q80 0 131 -35.5z" />
    <glyph glyph-name="three" unicode="3" horiz-adv-x="453" 
d="M364 483q55 -41 55 -108q0 -89 -89 -140v-6q94 -34 94 -135q0 -55 -35 -97.5t-98 -66t-146 -23.5q-61 0 -118 11l-10 144l13 12q69 -20 121 -20q85 0 85 47q0 33 -46 33h-84l-8 12l5 134l45 2q31 2 51 15t20 36q0 33 -46 33q-39 0 -110 -32h-20l-28 135q97 55 204 55
q90 0 145 -41z" />
    <glyph glyph-name="four" unicode="4" horiz-adv-x="529" 
d="M431 30l6 -103l-10 -13l-153 -9l-10 12l4 115h-129l-112 -4l-12 16v123l236 347h180l-4 -333h69l11 -17l-8 -136zM272 181l-1 119h-11l-80 -119h92z" />
    <glyph glyph-name="five" unicode="5" horiz-adv-x="448" 
d="M407 362l-13 -14l-111 15h-79l-2 -61l60 -13q80 -17 117.5 -56.5t37.5 -106.5q0 -66 -34.5 -116t-96.5 -77.5t-144 -27.5q-63 0 -129 14l-9 140l13 13q64 -19 128 -19q86 0 86 51q0 20 -14 31.5t-45 16.5l-109 18l-11 14l5 314l19 20l63 -4h161l117 8l11 -12z" />
    <glyph glyph-name="six" unicode="6" horiz-adv-x="498" 
d="M397 350.5q39 -25.5 59.5 -67t20.5 -88.5q0 -52 -25.5 -99.5t-78 -77.5t-128.5 -30q-106 0 -166.5 62.5t-60.5 169.5q0 115 74.5 213.5t210.5 164.5h9l124 -86v-19q-85 -34 -132.5 -61.5t-71.5 -60.5l4 -5q35 10 67 10q55 0 94 -25.5zM301 176q0 65 -57 65q-22 0 -49 -9
v-9q0 -59 10 -84.5t45 -25.5q51 0 51 63z" />
    <glyph glyph-name="seven" unicode="7" horiz-adv-x="450" 
d="M369 514l57 2v-142l-131 -285l-70 -186l-156 43l-12 30l180 377h-109l-111 -12l-9 15l12 163l139 -5h210z" />
    <glyph glyph-name="eight" unicode="8" horiz-adv-x="515" 
d="M414 556.5q51 -41.5 51 -111.5q0 -76 -80 -128v-8q94 -48 94 -135t-64.5 -136.5t-172.5 -49.5q-101 0 -155 42.5t-54 110.5q0 47 25.5 78t77.5 53v8q-88 48 -88 139q0 83 61 131t164 48q90 0 141 -41.5zM206 426q0 -22 18.5 -37t53.5 -29q35 30 35 62q0 20 -14.5 32
t-39.5 12q-53 0 -53 -40zM204.5 202.5q-11.5 -12.5 -11.5 -33.5q0 -25 16.5 -39t48.5 -14q31 0 47 12.5t16 30.5q0 22 -19.5 36.5t-58.5 29.5q-27 -10 -38.5 -22.5z" />
    <glyph glyph-name="nine" unicode="9" horiz-adv-x="498" 
d="M101 162.5q-39 25.5 -59.5 67t-20.5 88.5q0 52 25.5 99.5t78 77.5t128.5 30q106 0 166.5 -62.5t60.5 -169.5q0 -115 -74.5 -213.5t-210.5 -164.5h-9l-124 86v19q85 34 132.5 61.5t71.5 60.5l-4 5q-35 -10 -67 -10q-55 0 -94 25.5zM197 337q0 -65 57 -65q22 0 49 9v9
q0 59 -10 84.5t-45 25.5q-51 0 -51 -63z" />
    <glyph glyph-name="colon" unicode=":" horiz-adv-x="228" 
d="M181.5 165q24.5 -25 24.5 -70q0 -48 -27 -76t-74 -28q-46 0 -70 24.5t-24 70.5q0 48 27.5 76t74.5 28q44 0 68.5 -25zM181.5 420q24.5 -25 24.5 -70q0 -48 -27 -76t-74 -28q-46 0 -70 24.5t-24 70.5q0 48 27.5 76t74.5 28q44 0 68.5 -25z" />
    <glyph glyph-name="semicolon" unicode=";" horiz-adv-x="228" 
d="M204 77q0 -58 -37 -111.5t-115 -107.5l-61 53l-2 14q56 49 56 109q0 42 -33 75l1 16q72 40 143 58q48 -45 48 -106zM181.5 420q24.5 -25 24.5 -70q0 -48 -27 -76t-74 -28q-46 0 -70 24.5t-24 70.5q0 48 27.5 76t74.5 28q44 0 68.5 -25z" />
    <glyph glyph-name="less" unicode="&#x3c;" horiz-adv-x="480" 
d="M31 333v-156l367 -134l16 13l26 108l-276 91v9l277 92l7 13l-40 111l-365 -130z" />
    <glyph glyph-name="equal" unicode="=" horiz-adv-x="480" 
d="M457 296h-430l-12 13l9 117h430l12 -13zM457 83h-430l-12 13l9 117h430l12 -13z" />
    <glyph glyph-name="greater" unicode="&#x3e;" horiz-adv-x="480" 
d="M449 333v-156l-367 -134l-16 13l-26 108l276 91v9l-277 92l-7 13l40 111l365 -130z" />
    <glyph glyph-name="question" unicode="?" horiz-adv-x="351" 
d="M306 628q78 -43 78 -118q0 -43 -25.5 -80.5t-73.5 -62.5l-58 -30l-3 -6l7 -71l-136 -20l-13 12l-13 126l6 11l84 33q48 20 48 58q0 28 -35 42t-127 20l-14 18l35 108l17 9q145 -6 223 -49zM239.5 165q24.5 -25 24.5 -70q0 -48 -27 -76t-74 -28q-46 0 -70 24.5t-24 70.5
q0 48 27.5 76t74.5 28q44 0 68.5 -25z" />
    <glyph glyph-name="at" unicode="@" horiz-adv-x="866" 
d="M747 86q-109 -84 -311 -84l14 103h-15q-34 -66 -70 -110h-22q-74 18 -102 57t-28 102q0 60 24.5 119.5t76 108.5t126.5 74h6l92 -15l103 21l11 -8l-43 -321q56 14 89 65.5t33 122.5q0 101 -66.5 160t-179.5 59q-101 0 -178 -43.5t-119 -119.5t-42 -173q0 -101 47 -174
t132.5 -111t198.5 -38l7 -17l-50 -89q-140 0 -244 47t-161 139t-57 222q0 133 59 242t166 171.5t247 62.5q109 0 191.5 -39.5t128 -114.5t45.5 -178q0 -157 -109 -241zM475 296l3 21l-64 16q-45 0 -45 -109q0 -74 20 -74q26 0 86 146z" />
    <glyph glyph-name="A" unicode="A" horiz-adv-x="627" 
d="M414 0l-18 107l-1 3l-98 2l-82 -4l-17 -108h-196l196 647h242l177 -647h-203zM321 468h-12l-56 -212l56 -1l56 1z" />
    <glyph glyph-name="B" unicode="B" horiz-adv-x="629" 
d="M575.5 279.5q28.5 -35.5 28.5 -92.5q0 -101 -82.5 -147.5t-246.5 -46.5q-91 0 -215 7l10 190l-10 457l289 1q110 0 172 -42.5t62 -123.5q0 -50 -25.5 -88.5t-73.5 -60.5q63 -18 91.5 -53.5zM354.5 501.5q-24.5 13.5 -91.5 13.5h-9l-4 -132l75 -3q28 9 41 26t13 47
q0 35 -24.5 48.5zM377.5 143q23.5 18 23.5 52q0 23 -13.5 37t-43.5 24l-97 -2l-1 -44l3 -81q50 -4 64 -4q41 0 64.5 18z" />
    <glyph glyph-name="C" unicode="C" horiz-adv-x="514" 
d="M514 631l-34 -159l-13 -8q-26 14 -60 22.5t-63 8.5q-61 0 -88 -35.5t-27 -118.5q0 -97 31 -141.5t97 -44.5q65 0 123 21l16 -10l-16 -158q-60 -19 -139 -19q-161 0 -242.5 84t-81.5 245q0 162 87.5 251t247.5 89q86 0 162 -27z" />
    <glyph glyph-name="D" unicode="D" horiz-adv-x="665" 
d="M571.5 573.5q76.5 -77.5 76.5 -223.5q0 -173 -89 -266t-255 -93q-104 0 -244 9l10 190l-10 457l292 4q143 0 219.5 -77.5zM413.5 177.5q24.5 37.5 24.5 123.5q0 73 -10 115t-32 60.5t-61 18.5q-38 0 -75 -4l-7 -281l2 -62q60 -8 87 -8q47 0 71.5 37.5z" />
    <glyph glyph-name="E" unicode="E" horiz-adv-x="541" 
d="M528 146l-12 -146h-456l10 190l-10 457h464l11 -14l-13 -146l-159 6h-103l-2 -91h99l104 3l11 -14l-12 -146l-116 3h-90l-1 -38l2 -56h96l166 6z" />
    <glyph glyph-name="F" unicode="F" horiz-adv-x="481" 
d="M257 377h68l116 3l11 -14l-12 -146l-129 3h-58v-13l8 -210h-201l10 190l-10 457h432l11 -14l-13 -146l-160 6h-70z" />
    <glyph glyph-name="G" unicode="G" horiz-adv-x="596" 
d="M569 628l-43 -177h-16q-50 25 -86.5 36t-79.5 11q-46 0 -70.5 -15t-35.5 -53t-11 -110q0 -73 11 -111.5t37.5 -54t76.5 -15.5q14 0 36 4v32l-3 109l183 13l-3 -88v-177q-116 -44 -231 -44q-157 0 -237 83.5t-80 238.5q0 170 94.5 259t270.5 89q108 0 187 -30z" />
    <glyph glyph-name="H" unicode="H" horiz-adv-x="711" 
d="M647 0h-201l10 190l-1 50l-108 2l-93 -3l-1 -29l8 -210h-201l10 190l-10 457h204l-6 -245l101 -2l92 2l-5 245h204l-11 -437z" />
    <glyph glyph-name="I" unicode="I" horiz-adv-x="327" 
d="M261 0h-201l10 190l-10 457h204l-11 -437z" />
    <glyph glyph-name="J" unicode="J" horiz-adv-x="362" 
d="M295 124q0 -63 -21 -106t-69.5 -74t-134.5 -56l-52 103v16q51 25 71.5 52t20.5 71v63l-7 313l-85 -3l-11 13l8 131h289l-11 -434z" />
    <glyph glyph-name="K" unicode="K" horiz-adv-x="628" 
d="M647 42l-3 -22q-105 -23 -200 -32l-22 12q-102 175 -167 297l-2 -87l8 -210h-201l10 190l-10 457h204l-7 -270l124 200l34 70h212l-190 -306q92 -144 210 -299z" />
    <glyph glyph-name="L" unicode="L" horiz-adv-x="452" 
d="M440 0h-385l10 190l-10 457h204l-11 -437l2 -46h191l11 -14z" />
    <glyph glyph-name="M" unicode="M" horiz-adv-x="806" 
d="M598 0l-5 196l-11 163h-12l-104 -298h-151l-86 298h-12l-14 -144l-10 -215h-167l63 647h231l19 -92l57 -235h12l63 228l23 99h228l52 -647h-176z" />
    <glyph glyph-name="N" unicode="N" horiz-adv-x="710" 
d="M647 0h-218l-182 346h-12l-1 -112l8 -234h-182l10 190l-10 457h218l182 -346h12l-6 339l184 11l-11 -440z" />
    <glyph glyph-name="O" unicode="O" 
d="M559 575.5q77 -83.5 77 -235.5q0 -168 -84.5 -260t-239.5 -92q-141 0 -218 84.5t-77 239.5q0 166 84.5 256.5t239.5 90.5q141 0 218 -83.5zM264 485.5q-20 -13.5 -28.5 -47.5t-8.5 -99q0 -83 9 -126t30.5 -60t63.5 -17q39 0 59 13.5t28.5 48t8.5 99.5q0 82 -9 125
t-30.5 60t-63.5 17q-39 0 -59 -13.5z" />
    <glyph glyph-name="P" unicode="P" horiz-adv-x="593" 
d="M534.5 594.5q58.5 -53.5 58.5 -152.5q0 -77 -36 -135.5t-102 -91t-152 -32.5h-49l7 -183h-201l10 190l-10 457l307 1q109 0 167.5 -53.5zM370.5 361.5q12.5 23.5 12.5 60.5q0 44 -21 64.5t-66 22.5l-36 -3l-4 -179l75 -4q27 15 39.5 38.5z" />
    <glyph glyph-name="Q" unicode="Q" horiz-adv-x="661" 
d="M645 -205l-14 -7q-172 87 -303 200h-16q-141 0 -218 84.5t-77 239.5q0 166 84.5 256.5t239.5 90.5q141 0 218 -83.5t77 -235.5q0 -213 -133 -301q117 -61 230 -99l8 -18q-39 -77 -96 -127zM236 213q9 -43 30.5 -60t63.5 -17q39 0 59 13.5t28.5 48t8.5 99.5q0 82 -9 125
t-30.5 60t-63.5 17q-39 0 -59 -13.5t-28.5 -47.5t-8.5 -99q0 -83 9 -126z" />
    <glyph glyph-name="R" unicode="R" horiz-adv-x="631" 
d="M630 47l-3 -22q-102 -31 -201 -37l-19 16q-64 137 -86 189h-67l7 -193h-201l10 190l-10 457l307 1q109 0 168 -51.5t59 -148.5q0 -57 -28.5 -107t-79.5 -86q72 -112 144 -208zM362.5 487.5q-20.5 19.5 -66.5 21.5l-36 -3l-4 -167l73 -4q28 13 41 35t13 58
q0 40 -20.5 59.5z" />
    <glyph glyph-name="S" unicode="S" horiz-adv-x="528" 
d="M493 624l-32 -163l-28 -12q-42 26 -83 41t-66 15q-23 0 -36.5 -9t-13.5 -24q0 -19 20.5 -32.5t68.5 -35.5q56 -25 92 -46.5t63 -59t27 -92.5q0 -61 -33.5 -110.5t-95.5 -78.5t-144 -29q-102 0 -214 38l29 174l20 12q46 -35 98.5 -55.5t87.5 -20.5q53 0 53 33
q0 21 -21.5 35.5t-69.5 35.5q-55 24 -90.5 45.5t-61.5 59t-26 92.5q0 63 34 113.5t95 79.5t139 29q95 0 188 -35z" />
    <glyph glyph-name="T" unicode="T" horiz-adv-x="519" 
d="M502 487l-132 6h-12l-5 -283l8 -210h-200l10 190l-5 303h-13l-133 -6l-12 14l11 146h483l11 -14z" />
    <glyph glyph-name="U" unicode="U" 
d="M599 216q-1 -110 -74 -169t-209 -59q-131 0 -200.5 59t-66.5 169l3 103l-6 328h201l-9 -404q-1 -51 19.5 -74t66.5 -23q47 0 68 23t20 74l-9 404h204l-7 -328z" />
    <glyph glyph-name="V" unicode="V" horiz-adv-x="615" 
d="M181 0l-177 647h203l18 -107l75 -361h12l92 349l19 119h196l-196 -647h-242z" />
    <glyph glyph-name="W" unicode="W" horiz-adv-x="914" 
d="M511 0l-61 234h-12l-56 -234h-213l-152 647h194l10 -100l63 -346h12l75 295l-34 151h202l14 -120l68 -326h12l79 334l18 112h184l-191 -647h-212z" />
    <glyph glyph-name="X" unicode="X" horiz-adv-x="635" 
d="M642 0h-239l-34 79l-58 105l-74 -115l-32 -69h-203l192 311l-198 336h240l35 -81l57 -102l65 113l30 70h209l-185 -305z" />
    <glyph glyph-name="Y" unicode="Y" horiz-adv-x="594" 
d="M390 0h-200l10 170l-1 31l-207 446h210l16 -54l73 -195h12l84 188l23 61h204l-230 -439l-2 -38z" />
    <glyph glyph-name="Z" unicode="Z" horiz-adv-x="570" 
d="M263 148h161l123 9l6 -9l-16 -153l-178 5h-230l-101 -6v143l280 362h-157l-120 -10l-7 8l14 153l150 -3h274l76 1v-144z" />
    <glyph glyph-name="bracketleft" unicode="[" horiz-adv-x="302" 
d="M311 554l-94 -15v-552l94 -15v-86l-7 -9l-245 10l11 376l-11 376l245 10l7 -9v-86z" />
    <glyph glyph-name="backslash" unicode="\" horiz-adv-x="280" 
d="M180 -118h135l11 15l-208 786h-131l-15 -16z" />
    <glyph glyph-name="bracketright" unicode="]" horiz-adv-x="302" 
d="M-9 -28l94 15v552l-94 15v86l7 9l245 -10l-11 -376l11 -376l-245 -10l-7 9v86z" />
    <glyph glyph-name="asciicircum" unicode="^" horiz-adv-x="460" 
d="M436 145l-108 -26l-91 251h-9l-92 -252l-13 -7l-111 40l130 340l17 11h156l134 -341z" />
    <glyph glyph-name="underscore" unicode="_" horiz-adv-x="438" 
d="M444 -211h-447l-12 13l9 107h447l12 -13z" />
    <glyph glyph-name="grave" unicode="`" horiz-adv-x="388" 
d="M51 647l3 -17q142 -72 223 -109l17 1l44 72q-102 76 -201 161l-17 -1z" />
    <glyph glyph-name="a" unicode="a" horiz-adv-x="549" 
d="M335 71l-76 2l-60 -3l-11 -70h-181l159 513h224l144 -513h-188zM309 206l-29 143h-11l-38 -143l39 -1z" />
    <glyph glyph-name="b" unicode="b" horiz-adv-x="558" 
d="M506.5 220.5q22.5 -27.5 22.5 -71.5q0 -81 -71 -118t-214 -37q-65 0 -191 6l9 149l-9 364h259q96 0 149.5 -34t53.5 -100q0 -37 -21 -67t-61 -49q51 -15 73.5 -42.5zM315.5 375q-7.5 8 -25.5 11t-56 3l-2 -79l54 -3q20 7 28.5 16.5t8.5 27.5q0 16 -7.5 24zM338 157
q0 20 -35 35l-74 -2l-1 -22l2 -48q30 -3 50 -3q58 0 58 40z" />
    <glyph glyph-name="c" unicode="c" horiz-adv-x="447" 
d="M441 506l-31 -147l-12 -8q-45 21 -99 21q-46 0 -65.5 -22t-19.5 -77q0 -69 23.5 -99.5t74.5 -30.5q50 0 97 10l15 -9l-15 -146q-45 -8 -112 -8q-140 0 -209.5 66.5t-69.5 194.5q0 129 75 200t213 71q71 0 135 -16z" />
    <glyph glyph-name="d" unicode="d" horiz-adv-x="575" 
d="M492.5 454.5q64.5 -61.5 64.5 -176.5q0 -138 -76 -212t-218 -74q-72 0 -210 8l9 149l-9 364l254 3q121 0 185.5 -61.5zM346.5 152q16.5 23 16.5 80q0 55 -6.5 85t-22 42.5t-43.5 12.5q-21 0 -54 -3l-6 -201l1 -31q48 -8 66 -8q32 0 48.5 23z" />
    <glyph glyph-name="e" unicode="e" horiz-adv-x="480" 
d="M461 135l-11 -135h-397l9 149l-9 364h404l10 -13l-11 -135l-135 6h-84l-1 -44h80l87 3l10 -13l-11 -135l-98 3h-72l-1 -17l1 -26h79l140 5z" />
    <glyph glyph-name="f" unicode="f" horiz-adv-x="425" 
d="M231 305h52l99 3l10 -13l-11 -135l-111 3h-43l8 -163h-186l9 149l-9 364h376l10 -13l-12 -135l-136 6h-54z" />
    <glyph glyph-name="g" unicode="g" horiz-adv-x="514" 
d="M489 502l-40 -163h-14q-43 19 -73 27.5t-66 8.5q-35 0 -52.5 -8.5t-24.5 -34t-7 -78.5q0 -54 8 -80.5t27.5 -36t59.5 -9.5h15v13l-2 91l169 11l-3 -70v-147q-98 -37 -196 -37q-135 0 -203.5 66t-68.5 189q0 136 81 207t232 71q95 0 158 -20z" />
    <glyph glyph-name="h" unicode="h" horiz-adv-x="614" 
d="M559 0h-186l9 149l-1 29l-80 2l-70 -2v-10l8 -168h-186l9 149l-9 364h189l-6 -185l75 -2l67 2l-5 185h189l-10 -345z" />
    <glyph glyph-name="i" unicode="i" horiz-adv-x="303" 
d="M239 0h-186l9 149l-9 364h189l-11 -345z" />
    <glyph glyph-name="j" unicode="j" horiz-adv-x="346" 
d="M278 99q0 -51 -18.5 -86t-61 -61.5t-117.5 -50.5l-51 93v14q43 17 59.5 37t16.5 53v52l-5 227l-78 -2l-10 11l11 127h261l-9 -345z" />
    <glyph glyph-name="k" unicode="k" horiz-adv-x="556" 
d="M565 39l-3 -20q-97 -22 -185 -29l-21 11q-70 124 -123 224l-2 -57l8 -168h-186l9 149l-9 364h189l-7 -206l90 147l28 59h195l-150 -243q75 -115 167 -231z" />
    <glyph glyph-name="l" unicode="l" horiz-adv-x="402" 
d="M381 0h-333l9 149l-9 364h189l-11 -345l1 -17h155l10 -12z" />
    <glyph glyph-name="m" unicode="m" horiz-adv-x="691" 
d="M496 0l-1 155l-6 88h-10l-74 -199h-141l-57 199h-11l-8 -70l-6 -173h-158l51 513h220l13 -72l32 -152h11l37 144l18 80h215l42 -513h-167z" />
    <glyph glyph-name="n" unicode="n" horiz-adv-x="614" 
d="M559 0h-202l-132 236h-10l-1 -46l7 -190h-168l9 150l-9 363h202l132 -236h11l-6 229l170 10l-10 -344z" />
    <glyph glyph-name="o" unicode="o" horiz-adv-x="565" 
d="M480.5 457q65.5 -66 65.5 -187q0 -134 -72.5 -207.5t-204.5 -73.5q-120 0 -185.5 67.5t-65.5 189.5q0 132 72.5 204.5t204.5 72.5q120 0 185.5 -66zM236.5 368.5q-13.5 -7.5 -19 -29.5t-5.5 -68q0 -63 6 -93t21 -41t47 -11q29 0 42.5 7.5t18.5 29t5 67.5q0 64 -5.5 94
t-21 41t-47.5 11q-28 0 -41.5 -7.5z" />
    <glyph glyph-name="p" unicode="p" horiz-adv-x="526" 
d="M470.5 469.5q50.5 -43.5 50.5 -123.5q0 -62 -31.5 -110t-88.5 -74.5t-131 -26.5h-37l6 -135h-186l9 149l-9 364h274q93 0 143.5 -43.5zM318.5 291q7.5 14 7.5 37q0 30 -15.5 43t-50.5 15l-22 -2l-4 -117l59 -4q18 14 25.5 28z" />
    <glyph glyph-name="q" unicode="q" horiz-adv-x="572" 
d="M535 -162l-13 -2q-131 75 -224 154q-9 -1 -29 -1q-120 0 -185.5 67.5t-65.5 189.5q0 132 72.5 204.5t204.5 72.5q120 0 185.5 -66t65.5 -187q0 -161 -104 -234q75 -35 171 -68l7 -16q-43 -74 -85 -114zM218 178q6 -30 21 -41t47 -11q29 0 42.5 7.5t18.5 29t5 67.5
q0 64 -5.5 94t-21 41t-47.5 11q-28 0 -41.5 -7.5t-19 -29.5t-5.5 -68q0 -63 6 -93z" />
    <glyph glyph-name="r" unicode="r" horiz-adv-x="557" 
d="M552 43l-3 -20q-93 -27 -181 -33l-25 19q-42 91 -61 133h-50l7 -142h-186l9 149l-9 364h274q93 0 144 -41.5t51 -119.5q0 -89 -86 -153q72 -102 116 -156zM234 276l55 -4q20 10 28.5 24t8.5 37q0 27 -15 39t-51 14l-22 -2z" />
    <glyph glyph-name="s" unicode="s" horiz-adv-x="469" 
d="M427 496l-27 -154l-26 -7q-35 23 -72.5 37t-58.5 14t-21 -13t14.5 -21t48.5 -21q45 -16 75.5 -32.5t53 -48t22.5 -80.5q0 -48 -23.5 -89t-75.5 -67t-132 -26q-90 0 -181 28l27 161l17 13q39 -31 85 -51t76 -20q24 0 24 16q0 12 -13.5 19.5t-47.5 20.5q-45 16 -76 33
t-54 49.5t-23 82.5q0 52 27 93.5t79 65.5t124 24q81 0 158 -27z" />
    <glyph glyph-name="t" unicode="t" horiz-adv-x="457" 
d="M434 365l-113 6h-3l-4 -203l7 -168h-185l9 149l-4 222h-4l-114 -6l-11 13l10 135h412l10 -13z" />
    <glyph glyph-name="u" unicode="u" horiz-adv-x="566" 
d="M517 169q-1 -87 -64 -133.5t-180 -46.5q-113 0 -172 46.5t-56 133.5l2 83l-5 261h185l-8 -319q-1 -32 13 -45.5t49 -13.5t49.5 13.5t13.5 45.5l-8 319h188l-6 -260z" />
    <glyph glyph-name="v" unicode="v" horiz-adv-x="540" 
d="M152 0l-143 513h187l16 -95l51 -255h11l65 244l16 106h181l-159 -513h-225z" />
    <glyph glyph-name="w" unicode="w" horiz-adv-x="780" 
d="M424 0l-39 150h-11l-34 -150h-201l-118 513h183l8 -89l36 -236h11l51 209l-25 116h191l12 -109l41 -216h11l49 225l16 100h173l-153 -513h-201z" />
    <glyph glyph-name="x" unicode="x" horiz-adv-x="555" 
d="M558 0h-221l-29 69l-36 57l-51 -67l-28 -59h-187l158 243l-165 270h222l30 -71l37 -58l44 69l26 60h192l-152 -241z" />
    <glyph glyph-name="y" unicode="y" horiz-adv-x="525" 
d="M348 0h-185l9 131l-1 17l-174 365h194l14 -47l52 -133h10l61 126l20 54h189l-196 -360l-1 -22z" />
    <glyph glyph-name="z" unicode="z" horiz-adv-x="499" 
d="M249 136h117l108 8l5 -7l-14 -142l-160 5h-185l-90 -5v131l221 250h-114l-107 -9l-6 7l13 141l134 -2h295v-132z" />
    <glyph glyph-name="braceleft" unicode="{" horiz-adv-x="302" 
d="M298 647l7 -13l-15 -96q-18 5 -33 5q-46 0 -46 -48q0 -20 13 -53q13 -41 13 -58q0 -33 -18 -60t-52 -43v-7q34 -16 52 -43t18 -58q0 -23 -14 -61q-12 -36 -12 -52q0 -48 46 -48q15 0 33 5l15 -96l-7 -13q-39 -12 -80 -12q-77 0 -118 32.5t-41 91.5q0 30 13 86q9 38 9 58
q0 47 -55 70v87q55 23 55 70q0 20 -9 58q-13 56 -13 86q0 59 41 91.5t118 32.5q41 0 80 -12z" />
    <glyph glyph-name="bar" unicode="|" horiz-adv-x="300" 
d="M221 294l1 -539l-132 -11l-15 16l1 519l1 520l135 11l14 -13z" />
    <glyph glyph-name="braceright" unicode="}" horiz-adv-x="302" 
d="M4 -92l-7 13l15 96q18 -5 33 -5q46 0 46 48q0 20 -13 53q-13 41 -13 58q0 33 18 60t52 43v7q-34 16 -52 43t-18 58q0 23 14 61q12 36 12 52q0 48 -46 48q-15 0 -33 -5l-15 96l7 13q39 12 80 12q77 0 118 -32.5t41 -91.5q0 -30 -13 -86q-9 -38 -9 -58q0 -47 55 -70v-87
q-55 -23 -55 -70q0 -20 9 -58q13 -56 13 -86q0 -59 -41 -91.5t-118 -32.5q-41 0 -80 12z" />
    <glyph glyph-name="asciitilde" unicode="~" horiz-adv-x="480" 
d="M120 199.5q-15 -12.5 -28.5 -28t-18.5 -20.5h-16l-51 63v16l92 115l16 7q32 -6 107 -29q94 -28 110 -28q15 0 29.5 12t28.5 27.5t19 21.5h16l50 -63v-16l-91 -115l-16 -6q-30 4 -115 31q-85 25 -101 25t-31 -12.5z" />
    <glyph glyph-name="nonbreakingspace" unicode="&#xa0;" horiz-adv-x="135" 
 />
    <glyph glyph-name="exclamdown" unicode="&#xa1;" horiz-adv-x="274" 
d="M89 216l109 16l19 -18l17 -378l-17 -22l-157 -11l-23 23zM87.5 310q-24.5 25 -24.5 70q0 48 27 76t74 28q46 0 70 -24.5t24 -70.5q0 -48 -27.5 -76t-74.5 -28q-44 0 -68.5 25z" />
    <glyph glyph-name="cent" unicode="&#xa2;" horiz-adv-x="382" 
d="M358 194l13 -11l-20 -143q-36 -8 -55 -10l-8 -159h-135l-14 15l8 153q-65 22 -99 80t-34 148q0 96 40.5 158.5t115.5 85.5l7 151h131l19 -16l-7 -128q38 -8 62 -19l-31 -148l-14 -7q-52 21 -76 21q-61 0 -61 -77q0 -57 17.5 -83t55.5 -26q31 0 85 15z" />
    <glyph glyph-name="sterling" unicode="&#xa3;" horiz-adv-x="481" 
d="M448 -5l-157 5h-274l-6 9l8 108q40 10 56.5 31.5t16.5 59.5v41h-75l-6 9l8 95h71v39q-1 99 64 152t184 53q60 0 122 -13l-11 -135l-12 -8q-72 32 -117 32q-58 0 -58 -50l-1 -70h127l5 -9l-7 -95h-127v-32q0 -33 -8 -51t-28 -34v-5h122l111 8l5 -8z" />
    <glyph glyph-name="currency" unicode="&#xa4;" horiz-adv-x="434" 
d="M458 474l-72 -61q17 -36 17 -74q0 -32 -13 -65l72 -55l3 -17l-84 -89h-16l-59 71q-34 -18 -76 -18q-34 0 -67 14l-54 -70l-17 -3l-89 84l1 16l70 59q-17 34 -17 73q0 35 14 68l-70 55l-3 17l84 89l16 -1l60 -71q35 16 72 16q33 0 65 -13l57 72l17 3l89 -84v-16zM177 392
q-19 -19 -19 -53t19 -53t53 -19t53 19t19 53t-19 53t-53 19t-53 -19z" />
    <glyph glyph-name="yen" unicode="&#xa5;" horiz-adv-x="579" 
d="M385 185h162l8 -7l-6 -79h-183l5 -99h-170l6 99h-166l-6 9l5 77h148l-27 55h-120l-6 9l5 77h77l-94 185h178l15 -45l71 -144h10l81 138l20 51h174l-106 -185h81l8 -7l-6 -79h-132z" />
    <glyph glyph-name="brokenbar" unicode="&#xa6;" horiz-adv-x="300" 
d="M222 382l-133 -17l-13 11l1 423l135 11l14 -13zM222 -245l-132 -11l-15 16l1 386l130 15l15 -16z" />
    <glyph glyph-name="section" unicode="&#xa7;" horiz-adv-x="445" 
d="M400 75q0 -46 -27.5 -85t-77 -62t-110.5 -23q-36 0 -84.5 7.5t-86.5 19.5l24 145l16 11q38 -29 79.5 -46t71.5 -17t30 16q0 11 -15 18.5t-48 17.5q-47 16 -79 31.5t-56 45.5t-24 77q0 46 24.5 87t67.5 68q-54 38 -54 99q0 47 28 87t78 63.5t111 23.5q77 0 144 -25
l-23 -138l-22 -8q-75 47 -124 47q-28 0 -28 -17q0 -11 15.5 -19t48.5 -19q46 -15 78.5 -30.5t56.5 -45t24 -74.5q0 -46 -25.5 -87.5t-69.5 -67.5q57 -38 57 -100zM177 283q0 -33 58 -58q38 20 38 52q0 19 -15 32.5t-44 26.5q-37 -22 -37 -53z" />
    <glyph glyph-name="dieresis" unicode="&#xa8;" horiz-adv-x="388" 
d="M161.254 623.549q21.3154 -21.75 21.3154 -60.8994q0 -41.7598 -23.4902 -66.1191q-23.4902 -24.3604 -64.3799 -24.3604q-40.0195 0 -60.8994 21.3154q-20.8799 21.3145 -20.8799 61.334q0 41.7598 23.9248 66.1201q23.9248 24.3594 64.8145 24.3594
q38.2803 0 59.5947 -21.75zM329.254 623.549q21.3154 -21.75 21.3154 -60.8994q0 -41.7598 -23.4902 -66.1191q-23.4902 -24.3604 -64.3799 -24.3604q-40.0195 0 -60.8994 21.3154q-20.8799 21.3145 -20.8799 61.334q0 41.7598 23.9248 66.1201
q23.9248 24.3594 64.8145 24.3594q38.2803 0 59.5947 -21.75z" />
    <glyph glyph-name="copyright" unicode="&#xa9;" horiz-adv-x="689" 
d="M504 560q69 -38 107 -107t38 -160t-38 -160t-107 -107t-160 -38q-90 0 -159 38t-107 107t-38 160t38 160t107 107t159 38q91 0 160 -38zM218 506.5q-55 -30.5 -85.5 -86t-30.5 -127.5t30.5 -127.5t85.5 -86t126 -30.5q72 0 127 30.5t85.5 86t30.5 127.5t-30.5 127.5
t-85.5 86t-127 30.5q-71 0 -126 -30.5zM458 455l-22 -100l-7 -5q-27 11 -60 11q-26 0 -36 -11t-10 -43q0 -40 12.5 -57.5t42.5 -17.5q24 0 58 4l10 -6l-10 -99q-12 -2 -35 -2h-33q-179 0 -179 163q0 81 48.5 126.5t136.5 45.5q37 0 84 -9z" />
    <glyph glyph-name="ordfeminine" unicode="&#xaa;" horiz-adv-x="364" 
d="M288 629q35 -26 35 -74q0 -28 -3 -70l-2 -56q0 -16 9 -16q8 0 12 2l9 -8l-13 -71q-27 -20 -59 -20q-30 0 -44.5 10.5t-23.5 37.5h-5q-29 -34 -70 -49q-54 0 -86 29t-32 79q0 77 81 89l99 12l1 5q0 17 -7.5 24t-24.5 7q-40 0 -103 -32l-8 5l-15 89q69 33 149 33
q66 0 101 -26zM139 436q0 -27 25 -27q16 0 31 9v45l-37 -4q-19 -5 -19 -23z" />
    <glyph glyph-name="guillemotleft" unicode="&#xab;" horiz-adv-x="466" 
d="M17 241l125 184l91 -47l4 -17l-80 -131l80 -130l-4 -17l-91 -47l-125 178v27zM223 241l125 184l91 -47l4 -17l-80 -131l80 -130l-4 -17l-91 -47l-125 178v27z" />
    <glyph glyph-name="logicalnot" unicode="&#xac;" horiz-adv-x="480" 
d="M440 38l-117 -9l-13 12v149h-283l-12 13l9 117h410l6 -9v-273z" />
    <glyph glyph-name="softhyphen" unicode="&#xad;" horiz-adv-x="299" 
d="M274 206l-235 -38l-14 14v120l234 38l14 -14z" />
    <glyph glyph-name="registered" unicode="&#xae;" horiz-adv-x="454" 
d="M366 650q53 -53 53 -139t-53 -139t-139 -53t-139 53t-53 139t53 139t139 53t139 -53zM336 402.5q41 41.5 41 108.5q0 68 -41 109t-109 41q-67 0 -108.5 -41t-41.5 -109q0 -67 41.5 -108.5t108.5 -41.5q68 0 109 41.5zM284 495q25 -35 48 -62l-1 -7q-19 -7 -62 -11l-8 5
q-17 30 -29 56h-25l3 -57h-64l3 56l-3 140l100 1q35 0 54.5 -16.5t19.5 -46.5q0 -36 -36 -58zM223 570l-13 -1l-2 -48l27 -2q18 11 18 29q0 21 -30 22z" />
    <glyph glyph-name="macron" unicode="&#xaf;" horiz-adv-x="388" 
d="M334 571h-276l-12 13l9 107h276l12 -13z" />
    <glyph glyph-name="degree" unicode="&#xb0;" horiz-adv-x="292" 
d="M214 641q31 -18 49 -49t18 -68t-18 -68t-49 -49t-68 -18t-68 18t-49 49t-18 68t18 68t49 49t68 18t68 -18zM105.5 564.5q-15.5 -15.5 -15.5 -40.5t15.5 -40.5t40.5 -15.5t40.5 15.5t15.5 40.5t-15.5 40.5t-40.5 15.5t-40.5 -15.5z" />
    <glyph glyph-name="plusminus" unicode="&#xb1;" horiz-adv-x="480" 
d="M306 320h148l12 -13l-9 -117h-151v-152l-117 -9l-13 12v149h-149l-12 13l9 117h152v152l117 9l13 -12v-149zM457 -145h-430l-12 13l9 117h430l12 -13z" />
    <glyph glyph-name="twosuperior" unicode="&#xb2;" horiz-adv-x="375" 
d="M289.5 680q38.5 -27 38.5 -76q0 -56 -77 -145l-35 -40l2 -3h56l72 7l7 -9l-16 -113l-108 6h-170l-26 -2l-7 5v84l90 89q35 35 49.5 53t14.5 33q0 20 -26 20q-19 0 -44 -11t-47 -29h-16l-25 108q92 50 170 50q59 0 97.5 -27z" />
    <glyph glyph-name="threesuperior" unicode="&#xb3;" horiz-adv-x="337" 
d="M268.5 680q40.5 -28 40.5 -73q0 -58 -61 -91v-4q68 -22 68 -90q0 -56 -55.5 -89.5t-146.5 -33.5q-44 0 -86 8l-9 102l10 9q46 -14 88 -14q57 0 57 24q0 17 -28 17h-62l-7 8l2 95l33 2q47 2 47 28q0 18 -31 18q-26 0 -78 -19h-15l-23 95q70 36 149 36q67 0 107.5 -28z" />
    <glyph glyph-name="acute" unicode="&#xb4;" horiz-adv-x="388" 
d="M338 647l-3 -17q-142 -72 -223 -109l-17 1l-44 72q102 76 201 161l17 -1z" />
    <glyph glyph-name="glyph119" unicode="&#xb5;" horiz-adv-x="535" 
d="M506 20q-40 -29 -87 -29q-40 0 -65 18t-42 59h-7q-41 -56 -82 -73v-180h-184l6 375l-7 271l185 13v-271q0 -30 10 -42.5t31 -12.5q23 0 43 15v298l185 13l-11 -323q0 -23 16 -23q5 0 16 3l12 -10z" />
    <glyph glyph-name="paragraph" unicode="&#xb6;" horiz-adv-x="564" 
d="M544 499h-60l-7 -286l2 -69q0 -59 -21 -101.5t-71.5 -76t-138.5 -61.5l-50 89v16q53 26 74.5 54t21.5 73v56l-7 307h-31q-36 -17 -36 -88q0 -65 47 -125l-69 -97q-91 25 -139.5 84t-48.5 144q0 110 71 169.5t203 59.5h261l11 -13z" />
    <glyph glyph-name="periodcentered" unicode="&#xb7;" horiz-adv-x="228" 
d="M186.5 335q24.5 -25 24.5 -70q0 -48 -27 -76t-74 -28q-46 0 -70 24.5t-24 70.5q0 48 27.5 76t74.5 28q44 0 68.5 -25z" />
    <glyph glyph-name="cedilla" unicode="&#xb8;" horiz-adv-x="388" 
d="M256 -62q44 -23 44 -63q0 -37 -29.5 -60.5t-80.5 -23.5q-49 0 -92 24l11 75l8 3q33 -28 60 -28q16 0 16 14q0 9 -12 15l-50 27l22 112h83l-14 -76z" />
    <glyph glyph-name="onesuperior" unicode="&#xb9;" horiz-adv-x="296" 
d="M231 448l6 -141h-150l6 127v113l-80 -12l-9 6v113l213 52l21 -14z" />
    <glyph glyph-name="ordmasculine" unicode="&#xba;" horiz-adv-x="356" 
d="M342 492q0 -178 -171 -178q-157 0 -157 163q0 178 171 178q157 0 157 -163zM150 549q-6 -13 -6 -55q0 -39 3 -57.5t10.5 -26t22.5 -7.5q20 0 26.5 14t6.5 58q0 37 -3 55t-11 25t-23 7q-20 0 -26 -13z" />
    <glyph glyph-name="guillemotright" unicode="&#xbb;" horiz-adv-x="466" 
d="M443 223l-125 -184l-91 47l-4 17l80 131l-80 130l4 17l91 47l125 -178v-27zM237 223l-125 -184l-91 47l-4 17l80 131l-80 130l4 17l91 47l125 -178v-27z" />
    <glyph glyph-name="onequarter" unicode="&#xbc;" horiz-adv-x="798" 
d="M171 -94l-82 50l-6 17l464 721l76 -47l10 -24zM13 482l-9 6v113l213 52l21 -14l-7 -244l6 -141h-150l6 127v113zM728 70l5 -61l-8 -9l-115 -6l-8 8l3 70h-87l-83 -3l-9 11v88l166 225h136l-3 -215h47l8 -12l-6 -97zM608 178l-1 64h-8l-49 -64h58z" />
    <glyph glyph-name="onehalf" unicode="&#xbd;" horiz-adv-x="838" 
d="M633 623l-462 -717l-82 50l-6 17l464 721l76 -47zM231 395l6 -141h-150l6 127v113l-80 -12l-9 6v113l213 52l21 -14zM752.5 373q38.5 -27 38.5 -76q0 -56 -77 -145l-35 -40l2 -3h56l72 7l7 -9l-16 -113l-108 6h-170l-26 -2l-7 5v84l90 89q35 35 49.5 53t14.5 33
q0 20 -26 20q-19 0 -44 -11t-47 -29h-16l-25 108q92 50 170 50q59 0 97.5 -27z" />
    <glyph glyph-name="threequarters" unicode="&#xbe;" horiz-adv-x="839" 
d="M212 -94l-82 50l-6 17l464 721l76 -47l10 -24zM260.5 279.5q-55.5 -33.5 -146.5 -33.5q-44 0 -86 8l-9 102l10 9q46 -14 88 -14q57 0 57 24q0 17 -28 17h-62l-7 8l2 95l33 2q47 2 47 28q0 18 -31 18q-26 0 -78 -19h-15l-23 95q70 36 149 36q67 0 107.5 -28t40.5 -73
q0 -58 -61 -91v-4q68 -22 68 -90q0 -56 -55.5 -89.5zM769 70l5 -61l-8 -9l-115 -6l-8 8l3 70h-87l-83 -3l-9 11v88l166 225h136l-3 -215h47l8 -12l-6 -97zM649 178l-1 64h-8l-49 -64h58z" />
    <glyph glyph-name="questiondown" unicode="&#xbf;" horiz-adv-x="351" 
d="M50 -153q-78 43 -78 118q0 43 25.5 80.5t73.5 62.5l58 30l3 6l-7 71l136 20l13 -12l13 -126l-6 -11l-84 -33q-48 -20 -48 -58q0 -28 35 -42t127 -20l14 -18l-35 -108l-17 -9q-145 6 -223 49zM116.5 310q-24.5 25 -24.5 70q0 48 27 76t74 28q46 0 70 -24.5t24 -70.5
q0 -48 -27.5 -76t-74.5 -28q-44 0 -68.5 25z" />
    <glyph glyph-name="Agrave" unicode="&#xc0;" horiz-adv-x="627" 
d="M179 781l-6 16l49 117l17 4q107 -63 225 -123l-30 -79l-17 -4q-106 27 -238 69zM414 0l-18 107l-1 3l-98 2l-82 -4l-17 -108h-196l196 647h242l177 -647h-203zM321 468h-12l-56 -212l56 -1l56 1z" />
    <glyph glyph-name="Aacute" unicode="&#xc1;" horiz-adv-x="627" 
d="M414 0l-18 107l-1 3l-98 2l-82 -4l-17 -108h-196l196 647h242l177 -647h-203zM321 468h-12l-56 -212l56 -1l56 1zM477 797l-6 -16q-132 -42 -238 -69l-17 4l-30 79q118 60 225 123l17 -4z" />
    <glyph glyph-name="Acircumflex" unicode="&#xc2;" horiz-adv-x="627" 
d="M145 797q90 62 153 119h34q63 -57 153 -119l-34 -76h-18l-118 60l-118 -60h-18zM414 0l-18 107l-1 3l-98 2l-82 -4l-17 -108h-196l196 647h242l177 -647h-203zM321 468h-12l-56 -212l56 -1l56 1z" />
    <glyph glyph-name="Atilde" unicode="&#xc3;" horiz-adv-x="627" 
d="M414 0l-18 107l-1 3l-98 2l-82 -4l-17 -108h-196l196 647h242l177 -647h-203zM321 468h-12l-56 -212l56 -1l56 1zM510 845l-81 -113l-16 -6q-27 3 -86 20q-58 14 -67 14q-17 0 -30 -13t-39 -45h-16l-57 55v16l81 113l16 6q27 -3 86 -20q58 -14 67 -14q17 0 30 13t39 45
h16l57 -55v-16z" />
    <glyph glyph-name="Adieresis" unicode="&#xc4;" horiz-adv-x="627" 
d="M155 740.5q-21 21.5 -21 61.5q0 42 24 66t65 24q38 0 59.5 -21.5t21.5 -60.5q0 -42 -23.5 -66.5t-64.5 -24.5q-40 0 -61 21.5zM348 740.5q-21 21.5 -21 61.5q0 42 24 66t65 24q38 0 59.5 -21.5t21.5 -60.5q0 -42 -23.5 -66.5t-64.5 -24.5q-40 0 -61 21.5zM414 0l-18 107
l-1 3l-98 2l-82 -4l-17 -108h-196l196 647h242l177 -647h-203zM321 468h-12l-56 -212l56 -1l56 1z" />
    <glyph glyph-name="Aring" unicode="&#xc5;" horiz-adv-x="627" 
d="M414 0l-18 107l-1 3l-98 2l-82 -4l-17 -108h-196l196 647h242l177 -647h-203zM321 468h-12l-56 -212l56 -1l56 1zM425 827q0 -55 -29 -84.5t-85 -29.5q-106 0 -106 107q0 111 114 111q106 0 106 -104zM287.5 846.5q-7.5 -6.5 -7.5 -23.5q0 -19 8 -26.5t28 -7.5
q19 0 26.5 7t7.5 24q0 18 -8 25.5t-28 7.5q-19 0 -26.5 -6.5z" />
    <glyph glyph-name="AE" unicode="&#xc6;" horiz-adv-x="840" 
d="M828 0h-436l-5 107l-5 66l-171 -52l-1 -2l-34 -119h-196l276 647h520l11 -14l-13 -146l-149 6h-76l8 -114l169 54l14 -11l18 -138l-190 -55l5 -75h91l165 6l11 -14zM357 468h-12l-67 -174l91 28z" />
    <glyph glyph-name="Ccedilla" unicode="&#xc7;" horiz-adv-x="514" 
d="M480 176l16 -10l-16 -158q-54 -17 -123 -19l-6 -31l34 -19q44 -23 44 -63q0 -37 -29.5 -60.5t-80.5 -23.5q-49 0 -92 24l11 75l8 3q33 -28 60 -28q16 0 16 14q0 9 -12 15l-50 27l14 71q-128 16 -192.5 98.5t-64.5 226.5q0 162 87.5 251t247.5 89q86 0 162 -27l-34 -159
l-13 -8q-26 14 -60 22.5t-63 8.5q-61 0 -88 -35.5t-27 -118.5q0 -97 31 -141.5t97 -44.5q65 0 123 21z" />
    <glyph glyph-name="Egrave" unicode="&#xc8;" horiz-adv-x="541" 
d="M156 781l-6 16l49 117l17 4q107 -63 225 -123l-30 -79l-17 -4q-106 27 -238 69zM528 146l-12 -146h-456l10 190l-10 457h464l11 -14l-13 -146l-159 6h-103l-2 -91h99l104 3l11 -14l-12 -146l-116 3h-90l-1 -38l2 -56h96l166 6z" />
    <glyph glyph-name="Eacute" unicode="&#xc9;" horiz-adv-x="541" 
d="M528 146l-12 -146h-456l10 190l-10 457h464l11 -14l-13 -146l-159 6h-103l-2 -91h99l104 3l11 -14l-12 -146l-116 3h-90l-1 -38l2 -56h96l166 6zM454 797l-6 -16q-132 -42 -238 -69l-17 4l-30 79q118 60 225 123l17 -4z" />
    <glyph glyph-name="Ecircumflex" unicode="&#xca;" horiz-adv-x="541" 
d="M122 797q90 62 153 119h34q63 -57 153 -119l-34 -76h-18l-118 60l-118 -60h-18zM528 146l-12 -146h-456l10 190l-10 457h464l11 -14l-13 -146l-159 6h-103l-2 -91h99l104 3l11 -14l-12 -146l-116 3h-90l-1 -38l2 -56h96l166 6z" />
    <glyph glyph-name="Edieresis" unicode="&#xcb;" horiz-adv-x="541" 
d="M132 740.5q-21 21.5 -21 61.5q0 42 24 66t65 24q38 0 59.5 -21.5t21.5 -60.5q0 -42 -23.5 -66.5t-64.5 -24.5q-40 0 -61 21.5zM325 740.5q-21 21.5 -21 61.5q0 42 24 66t65 24q38 0 59.5 -21.5t21.5 -60.5q0 -42 -23.5 -66.5t-64.5 -24.5q-40 0 -61 21.5zM528 146
l-12 -146h-456l10 190l-10 457h464l11 -14l-13 -146l-159 6h-103l-2 -91h99l104 3l11 -14l-12 -146l-116 3h-90l-1 -38l2 -56h96l166 6z" />
    <glyph glyph-name="Igrave" unicode="&#xcc;" horiz-adv-x="327" 
d="M310 795l-30 -79l-17 -4q-106 27 -238 69l-6 16l49 117l17 4q107 -63 225 -123zM261 0h-201l10 190l-10 457h204l-11 -437z" />
    <glyph glyph-name="Iacute" unicode="&#xcd;" horiz-adv-x="327" 
d="M261 0h-201l10 190l-10 457h204l-11 -437zM324 797l-6 -16q-132 -42 -238 -69l-17 4l-30 79q118 60 225 123l17 -4z" />
    <glyph glyph-name="Icircumflex" unicode="&#xce;" horiz-adv-x="327" 
d="M145 916h34q63 -57 153 -119l-34 -76h-18l-118 60l-118 -60h-18l-34 76q90 62 153 119zM261 0h-201l10 190l-10 457h204l-11 -437z" />
    <glyph glyph-name="Eth" unicode="&#xd0;" horiz-adv-x="695" 
d="M601.5 573.5q76.5 -77.5 76.5 -223.5q0 -173 -89 -266t-255 -93q-104 0 -244 9l10 190l-1 60h-71l-9 13l7 117h70l-6 267l292 4q143 0 219.5 -77.5zM443.5 177.5q24.5 37.5 24.5 123.5q0 73 -10 115t-32 60.5t-61 18.5q-38 0 -75 -4l-3 -111h84l9 -13l-7 -117h-89l-1 -40
l2 -62q60 -8 87 -8q47 0 71.5 37.5z" />
    <glyph glyph-name="Ntilde" unicode="&#xd1;" horiz-adv-x="710" 
d="M647 0h-218l-182 346h-12l-1 -112l8 -234h-182l10 190l-10 457h218l182 -346h12l-6 339l184 11l-11 -440zM550 845l-81 -113l-16 -6q-27 3 -86 20q-58 14 -67 14q-17 0 -30 -13t-39 -45h-16l-57 55v16l81 113l16 6q27 -3 86 -20q58 -14 67 -14q17 0 30 13t39 45h16
l57 -55v-16z" />
    <glyph glyph-name="Ograve" unicode="&#xd2;" 
d="M476 795l-30 -79l-17 -4q-106 27 -238 69l-6 16l49 117l17 4q107 -63 225 -123zM559 575.5q77 -83.5 77 -235.5q0 -168 -84.5 -260t-239.5 -92q-141 0 -218 84.5t-77 239.5q0 166 84.5 256.5t239.5 90.5q141 0 218 -83.5zM264 485.5q-20 -13.5 -28.5 -47.5t-8.5 -99
q0 -83 9 -126t30.5 -60t63.5 -17q39 0 59 13.5t28.5 48t8.5 99.5q0 82 -9 125t-30.5 60t-63.5 17q-39 0 -59 -13.5z" />
    <glyph glyph-name="Oacute" unicode="&#xd3;" 
d="M559 575.5q77 -83.5 77 -235.5q0 -168 -84.5 -260t-239.5 -92q-141 0 -218 84.5t-77 239.5q0 166 84.5 256.5t239.5 90.5q141 0 218 -83.5zM264 485.5q-20 -13.5 -28.5 -47.5t-8.5 -99q0 -83 9 -126t30.5 -60t63.5 -17q39 0 59 13.5t28.5 48t8.5 99.5q0 82 -9 125
t-30.5 60t-63.5 17q-39 0 -59 -13.5zM489 797l-6 -16q-132 -42 -238 -69l-17 4l-30 79q118 60 225 123l17 -4z" />
    <glyph glyph-name="Ocircumflex" unicode="&#xd4;" 
d="M310 916h34q63 -57 153 -119l-34 -76h-18l-118 60l-118 -60h-18l-34 76q90 62 153 119zM559 575.5q77 -83.5 77 -235.5q0 -168 -84.5 -260t-239.5 -92q-141 0 -218 84.5t-77 239.5q0 166 84.5 256.5t239.5 90.5q141 0 218 -83.5zM264 485.5q-20 -13.5 -28.5 -47.5
t-8.5 -99q0 -83 9 -126t30.5 -60t63.5 -17q39 0 59 13.5t28.5 48t8.5 99.5q0 82 -9 125t-30.5 60t-63.5 17q-39 0 -59 -13.5z" />
    <glyph glyph-name="Otilde" unicode="&#xd5;" 
d="M559 575.5q77 -83.5 77 -235.5q0 -168 -84.5 -260t-239.5 -92q-141 0 -218 84.5t-77 239.5q0 166 84.5 256.5t239.5 90.5q141 0 218 -83.5zM264 485.5q-20 -13.5 -28.5 -47.5t-8.5 -99q0 -83 9 -126t30.5 -60t63.5 -17q39 0 59 13.5t28.5 48t8.5 99.5q0 82 -9 125
t-30.5 60t-63.5 17q-39 0 -59 -13.5zM522 845l-81 -113l-16 -6q-27 3 -86 20q-58 14 -67 14q-17 0 -30 -13t-39 -45h-16l-57 55v16l81 113l16 6q27 -3 86 -20q58 -14 67 -14q17 0 30 13t39 45h16l57 -55v-16z" />
    <glyph glyph-name="multiply" unicode="&#xd7;" horiz-adv-x="480" 
d="M438 360l-105 -105l104 -105v-18l-89 -76l-107 107l-108 -108l-89 77v17l105 106l-105 105v18l89 76l108 -107l107 107l89 -76z" />
    <glyph glyph-name="Oslash" unicode="&#xd8;" 
d="M636 340q0 -168 -84.5 -260t-239.5 -92q-29 0 -61 5l-64 -132l-124 47l-8 17l62 126q-100 85 -100 261q0 166 84.5 256.5t239.5 90.5q38 0 72 -6l62 126l120 -46l12 -19l-62 -124q91 -85 91 -250zM389 149.5q20 13.5 28.5 48t8.5 99.5q0 82 -9 125t-30.5 60t-63.5 17
q-39 0 -59 -13.5t-28.5 -47.5t-8.5 -99q0 -83 9 -126t30.5 -60t63.5 -17q39 0 59 13.5z" />
    <glyph glyph-name="Ugrave" unicode="&#xd9;" 
d="M476 795l-30 -79l-17 -4q-106 27 -238 69l-6 16l49 117l17 4q107 -63 225 -123zM599 216q-1 -110 -74 -169t-209 -59q-131 0 -200.5 59t-66.5 169l3 103l-6 328h201l-9 -404q-1 -51 19.5 -74t66.5 -23q47 0 68 23t20 74l-9 404h204l-7 -328z" />
    <glyph glyph-name="Uacute" unicode="&#xda;" 
d="M599 216q-1 -110 -74 -169t-209 -59q-131 0 -200.5 59t-66.5 169l3 103l-6 328h201l-9 -404q-1 -51 19.5 -74t66.5 -23q47 0 68 23t20 74l-9 404h204l-7 -328zM489 797l-6 -16q-132 -42 -238 -69l-17 4l-30 79q118 60 225 123l17 -4z" />
    <glyph glyph-name="Ucircumflex" unicode="&#xdb;" 
d="M310 916h34q63 -57 153 -119l-34 -76h-18l-118 60l-118 -60h-18l-34 76q90 62 153 119zM599 216q-1 -110 -74 -169t-209 -59q-131 0 -200.5 59t-66.5 169l3 103l-6 328h201l-9 -404q-1 -51 19.5 -74t66.5 -23q47 0 68 23t20 74l-9 404h204l-7 -328z" />
    <glyph glyph-name="Udieresis" unicode="&#xdc;" 
d="M294.5 870.5q21.5 -21.5 21.5 -60.5q0 -42 -23.5 -66.5t-64.5 -24.5q-40 0 -61 21.5t-21 61.5q0 42 24 66t65 24q38 0 59.5 -21.5zM487.5 870.5q21.5 -21.5 21.5 -60.5q0 -42 -23.5 -66.5t-64.5 -24.5q-40 0 -61 21.5t-21 61.5q0 42 24 66t65 24q38 0 59.5 -21.5z
M599 216q-1 -110 -74 -169t-209 -59q-131 0 -200.5 59t-66.5 169l3 103l-6 328h201l-9 -404q-1 -51 19.5 -74t66.5 -23q47 0 68 23t20 74l-9 404h204l-7 -328z" />
    <glyph glyph-name="Thorn" unicode="&#xde;" horiz-adv-x="602" 
d="M543.5 506q58.5 -52 58.5 -156q0 -119 -76.5 -184.5t-217.5 -65.5l-49 -1l4 -99h-203l10 190l-8 364l-2 3h2l-2 90h206l-2 -89h109q112 0 170.5 -52zM376 276q13 21 13 58q0 44 -20.5 63t-67.5 21l-41 -3l-4 -171l80 -4q27 15 40 36z" />
    <glyph glyph-name="germandbls" unicode="&#xdf;" horiz-adv-x="623" 
d="M437.5 509q56.5 -14 129.5 -46l7 -20l-97 -134q59 -40 87 -64t39.5 -46t11.5 -52q0 -81 -59.5 -119.5t-149.5 -38.5q-83 0 -160 29l27 161l14 9q64 -53 106 -53q20 0 20 14q0 10 -14 20t-60 36q-22 12 -70 39l-3 17l81 112q-28 5 -49 5q-42 0 -58 -13.5t-15 -49.5
l-5 -147l8 -168h-186l9 150l-4 165q0 97 68 152.5t201 55.5q65 0 121.5 -14z" />
    <glyph glyph-name="agrave" unicode="&#xe0;" horiz-adv-x="549" 
d="M142 671l-3 17l69 107l17 1q99 -85 201 -161l-44 -72l-17 -1q-81 37 -223 109zM335 71l-76 2l-60 -3l-11 -70h-181l159 513h224l144 -513h-188zM309 206l-29 143h-11l-38 -143l39 -1z" />
    <glyph glyph-name="aacute" unicode="&#xe1;" horiz-adv-x="549" 
d="M335 71l-76 2l-60 -3l-11 -70h-181l159 513h224l144 -513h-188zM309 206l-29 143h-11l-38 -143l39 -1zM445 688l-3 -17q-142 -72 -223 -109l-17 1l-44 72q102 76 201 161l17 -1z" />
    <glyph glyph-name="acircumflex" unicode="&#xe2;" horiz-adv-x="549" 
d="M102 643q69 58 163 150h34q70 -70 163 -150l-47 -72h-18q-76 48 -115 78q-39 -30 -115 -78h-18zM335 71l-76 2l-60 -3l-11 -70h-181l159 513h224l144 -513h-188zM309 206l-29 143h-11l-38 -143l39 -1z" />
    <glyph glyph-name="atilde" unicode="&#xe3;" horiz-adv-x="549" 
d="M335 71l-76 2l-60 -3l-11 -70h-181l159 513h224l144 -513h-188zM309 206l-29 143h-11l-38 -143l39 -1zM477 711l-81 -113l-16 -6q-27 3 -86 20q-58 14 -67 14q-17 0 -30 -13t-39 -45h-16l-57 55v16l81 113l16 6q27 -3 86 -20q58 -14 67 -14q17 0 30 13t39 45h16l57 -55
v-16z" />
    <glyph glyph-name="adieresis" unicode="&#xe4;" horiz-adv-x="549" 
d="M122 606.5q-21 21.5 -21 61.5q0 42 24 66t65 24q38 0 59.5 -21.5t21.5 -60.5q0 -42 -23.5 -66.5t-64.5 -24.5q-40 0 -61 21.5zM315 606.5q-21 21.5 -21 61.5q0 42 24 66t65 24q38 0 59.5 -21.5t21.5 -60.5q0 -42 -23.5 -66.5t-64.5 -24.5q-40 0 -61 21.5zM335 71l-76 2
l-60 -3l-11 -70h-181l159 513h224l144 -513h-188zM309 206l-29 143h-11l-38 -143l39 -1z" />
    <glyph glyph-name="aring" unicode="&#xe5;" horiz-adv-x="549" 
d="M335 71l-76 2l-60 -3l-11 -70h-181l159 513h224l144 -513h-188zM309 206l-29 143h-11l-38 -143l39 -1zM392 693q0 -55 -29 -84.5t-85 -29.5q-106 0 -106 107q0 111 114 111q106 0 106 -104zM254.5 712.5q-7.5 -6.5 -7.5 -23.5q0 -19 8 -26.5t28 -7.5q19 0 26.5 7t7.5 24
q0 18 -8 25.5t-28 7.5q-19 0 -26.5 -6.5z" />
    <glyph glyph-name="ae" unicode="&#xe6;" horiz-adv-x="724" 
d="M712 0h-370l-4 88l-4 44l-156 -46l-24 -86h-165l238 512h440l10 -13l-11 -122l-129 6h-64l7 -81l146 44l11 -10l15 -115l-162 -44l4 -48h78l141 5l10 -12zM312 362h-11l-58 -130l79 24z" />
    <glyph glyph-name="ccedilla" unicode="&#xe7;" horiz-adv-x="447" 
d="M409 153l15 -9l-15 -146q-45 -8 -97 -8l-6 -32l34 -19q44 -23 44 -63q0 -37 -29.5 -60.5t-80.5 -23.5q-49 0 -92 24l11 75l8 3q33 -28 60 -28q16 0 16 14q0 9 -12 15l-50 27l14 73q-211 30 -211 256q0 129 75 200t213 71q71 0 135 -16l-31 -147l-12 -8q-45 21 -99 21
q-46 0 -65.5 -22t-19.5 -77q0 -69 23.5 -99.5t74.5 -30.5q50 0 97 10z" />
    <glyph glyph-name="egrave" unicode="&#xe8;" horiz-adv-x="480" 
d="M114 671l-3 17l69 107l17 1q99 -85 201 -161l-44 -72l-17 -1q-81 37 -223 109zM461 135l-11 -135h-397l9 149l-9 364h404l10 -13l-11 -135l-135 6h-84l-1 -44h80l87 3l10 -13l-11 -135l-98 3h-72l-1 -17l1 -26h79l140 5z" />
    <glyph glyph-name="eacute" unicode="&#xe9;" horiz-adv-x="480" 
d="M461 135l-11 -135h-397l9 149l-9 364h404l10 -13l-11 -135l-135 6h-84l-1 -44h80l87 3l10 -13l-11 -135l-98 3h-72l-1 -17l1 -26h79l140 5zM417 688l-3 -17q-142 -72 -223 -109l-17 1l-44 72q102 76 201 161l17 -1z" />
    <glyph glyph-name="ecircumflex" unicode="&#xea;" horiz-adv-x="480" 
d="M74 643q69 58 163 150h34q70 -70 163 -150l-47 -72h-18q-76 48 -115 78q-39 -30 -115 -78h-18zM461 135l-11 -135h-397l9 149l-9 364h404l10 -13l-11 -135l-135 6h-84l-1 -44h80l87 3l10 -13l-11 -135l-98 3h-72l-1 -17l1 -26h79l140 5z" />
    <glyph glyph-name="edieresis" unicode="&#xeb;" horiz-adv-x="480" 
d="M94 606.5q-21 21.5 -21 61.5q0 42 24 66t65 24q38 0 59.5 -21.5t21.5 -60.5q0 -42 -23.5 -66.5t-64.5 -24.5q-40 0 -61 21.5zM287 606.5q-21 21.5 -21 61.5q0 42 24 66t65 24q38 0 59.5 -21.5t21.5 -60.5q0 -42 -23.5 -66.5t-64.5 -24.5q-40 0 -61 21.5zM461 135
l-11 -135h-397l9 149l-9 364h404l10 -13l-11 -135l-135 6h-84l-1 -44h80l87 3l10 -13l-11 -135l-98 3h-72l-1 -17l1 -26h79l140 5z" />
    <glyph glyph-name="igrave" unicode="&#xec;" horiz-adv-x="303" 
d="M296 635l-44 -72l-17 -1q-81 37 -223 109l-3 17l69 107l17 1q99 -85 201 -161zM239 0h-186l9 149l-9 364h189l-11 -345z" />
    <glyph glyph-name="iacute" unicode="&#xed;" horiz-adv-x="303" 
d="M239 0h-186l9 149l-9 364h189l-11 -345zM316 688l-3 -17q-142 -72 -223 -109l-17 1l-44 72q102 76 201 161l17 -1z" />
    <glyph glyph-name="icircumflex" unicode="&#xee;" horiz-adv-x="303" 
d="M136 793h34q70 -70 163 -150l-47 -72h-18q-76 48 -115 78q-39 -30 -115 -78h-18l-47 72q69 58 163 150zM239 0h-186l9 149l-9 364h189l-11 -345z" />
    <glyph glyph-name="eth" unicode="&#xf0;" horiz-adv-x="612" 
d="M524.5 454.5q64.5 -61.5 64.5 -176.5q0 -138 -76 -212t-218 -74q-72 0 -210 8l9 149l-1 46h-64l-9 13l7 100h63l-5 205l254 3q121 0 185.5 -61.5zM378.5 152q16.5 23 16.5 80q0 55 -6.5 85t-22 42.5t-43.5 12.5q-21 0 -54 -3l-2 -61h81l9 -13l-8 -100h-85l-1 -27l1 -31
q48 -8 66 -8q32 0 48.5 23z" />
    <glyph glyph-name="ntilde" unicode="&#xf1;" horiz-adv-x="614" 
d="M559 0h-202l-132 236h-10l-1 -46l7 -190h-168l9 150l-9 363h202l132 -236h11l-6 229l170 10l-10 -344zM501 711l-81 -113l-16 -6q-27 3 -86 20q-58 14 -67 14q-17 0 -30 -13t-39 -45h-16l-57 55v16l81 113l16 6q27 -3 86 -20q58 -14 67 -14q17 0 30 13t39 45h16l57 -55
v-16z" />
    <glyph glyph-name="ograve" unicode="&#xf2;" horiz-adv-x="565" 
d="M428 635l-44 -72l-17 -1q-81 37 -223 109l-3 17l69 107l17 1q99 -85 201 -161zM480.5 457q65.5 -66 65.5 -187q0 -134 -72.5 -207.5t-204.5 -73.5q-120 0 -185.5 67.5t-65.5 189.5q0 132 72.5 204.5t204.5 72.5q120 0 185.5 -66zM236.5 368.5q-13.5 -7.5 -19 -29.5
t-5.5 -68q0 -63 6 -93t21 -41t47 -11q29 0 42.5 7.5t18.5 29t5 67.5q0 64 -5.5 94t-21 41t-47.5 11q-28 0 -41.5 -7.5z" />
    <glyph glyph-name="oacute" unicode="&#xf3;" horiz-adv-x="565" 
d="M480.5 457q65.5 -66 65.5 -187q0 -134 -72.5 -207.5t-204.5 -73.5q-120 0 -185.5 67.5t-65.5 189.5q0 132 72.5 204.5t204.5 72.5q120 0 185.5 -66zM236.5 368.5q-13.5 -7.5 -19 -29.5t-5.5 -68q0 -63 6 -93t21 -41t47 -11q29 0 42.5 7.5t18.5 29t5 67.5q0 64 -5.5 94
t-21 41t-47.5 11q-28 0 -41.5 -7.5zM447 688l-3 -17q-142 -72 -223 -109l-17 1l-44 72q102 76 201 161l17 -1z" />
    <glyph glyph-name="ocircumflex" unicode="&#xf4;" horiz-adv-x="565" 
d="M267 793h34q70 -70 163 -150l-47 -72h-18q-76 48 -115 78q-39 -30 -115 -78h-18l-47 72q69 58 163 150zM480.5 457q65.5 -66 65.5 -187q0 -134 -72.5 -207.5t-204.5 -73.5q-120 0 -185.5 67.5t-65.5 189.5q0 132 72.5 204.5t204.5 72.5q120 0 185.5 -66zM236.5 368.5
q-13.5 -7.5 -19 -29.5t-5.5 -68q0 -63 6 -93t21 -41t47 -11q29 0 42.5 7.5t18.5 29t5 67.5q0 64 -5.5 94t-21 41t-47.5 11q-28 0 -41.5 -7.5z" />
    <glyph glyph-name="otilde" unicode="&#xf5;" horiz-adv-x="565" 
d="M480.5 457q65.5 -66 65.5 -187q0 -134 -72.5 -207.5t-204.5 -73.5q-120 0 -185.5 67.5t-65.5 189.5q0 132 72.5 204.5t204.5 72.5q120 0 185.5 -66zM236.5 368.5q-13.5 -7.5 -19 -29.5t-5.5 -68q0 -63 6 -93t21 -41t47 -11q29 0 42.5 7.5t18.5 29t5 67.5q0 64 -5.5 94
t-21 41t-47.5 11q-28 0 -41.5 -7.5zM479 711l-81 -113l-16 -6q-27 3 -86 20q-58 14 -67 14q-17 0 -30 -13t-39 -45h-16l-57 55v16l81 113l16 6q27 -3 86 -20q58 -14 67 -14q17 0 30 13t39 45h16l57 -55v-16z" />
    <glyph glyph-name="divide" unicode="&#xf7;" horiz-adv-x="480" 
d="M457 190h-430l-12 13l9 117h430l12 -13zM280.556 148.969q20.041 -20.4492 20.041 -57.2598q0 -39.2637 -22.0859 -62.167q-22.0859 -22.9043 -60.5312 -22.9043q-37.6279 0 -57.2598 20.041t-19.6318 57.6689q0 39.2637 22.4951 62.167q22.4941 22.9043 60.9404 22.9043
q35.9912 0 56.0322 -20.4502zM280.556 414.969q20.041 -20.4492 20.041 -57.2598q0 -39.2637 -22.0859 -62.167q-22.0859 -22.9043 -60.5312 -22.9043q-37.6279 0 -57.2598 20.041t-19.6318 57.6689q0 39.2637 22.4951 62.167q22.4941 22.9043 60.9404 22.9043
q35.9912 0 56.0322 -20.4502z" />
    <glyph glyph-name="oslash" unicode="&#xf8;" horiz-adv-x="565" 
d="M546 270q0 -134 -72.5 -207.5t-204.5 -73.5q-33 0 -57 4l-74 -121l-110 56l-4 16l65 107q-71 68 -71 195q0 132 72.5 204.5t204.5 72.5q40 0 77 -8l61 99l105 -55l9 -17l-58 -94q57 -66 57 -178zM328.5 133.5q13.5 7.5 18.5 29t5 67.5q0 64 -5.5 94t-21 41t-47.5 11
q-28 0 -41.5 -7.5t-19 -29.5t-5.5 -68q0 -63 6 -93t21 -41t47 -11q29 0 42.5 7.5z" />
    <glyph glyph-name="ugrave" unicode="&#xf9;" horiz-adv-x="566" 
d="M427 635l-44 -72l-17 -1q-81 37 -223 109l-3 17l69 107l17 1q99 -85 201 -161zM517 169q-1 -87 -64 -133.5t-180 -46.5q-113 0 -172 46.5t-56 133.5l2 83l-5 261h185l-8 -319q-1 -32 13 -45.5t49 -13.5t49.5 13.5t13.5 45.5l-8 319h188l-6 -260z" />
    <glyph glyph-name="uacute" unicode="&#xfa;" horiz-adv-x="566" 
d="M517 169q-1 -87 -64 -133.5t-180 -46.5q-113 0 -172 46.5t-56 133.5l2 83l-5 261h185l-8 -319q-1 -32 13 -45.5t49 -13.5t49.5 13.5t13.5 45.5l-8 319h188l-6 -260zM446 688l-3 -17q-142 -72 -223 -109l-17 1l-44 72q102 76 201 161l17 -1z" />
    <glyph glyph-name="ucircumflex" unicode="&#xfb;" horiz-adv-x="566" 
d="M266 793h34q70 -70 163 -150l-47 -72h-18q-76 48 -115 78q-39 -30 -115 -78h-18l-47 72q69 58 163 150zM517 169q-1 -87 -64 -133.5t-180 -46.5q-113 0 -172 46.5t-56 133.5l2 83l-5 261h185l-8 -319q-1 -32 13 -45.5t49 -13.5t49.5 13.5t13.5 45.5l-8 319h188l-6 -260z
" />
    <glyph glyph-name="udieresis" unicode="&#xfc;" horiz-adv-x="566" 
d="M250.5 736.5q21.5 -21.5 21.5 -60.5q0 -42 -23.5 -66.5t-64.5 -24.5q-40 0 -61 21.5t-21 61.5q0 42 24 66t65 24q38 0 59.5 -21.5zM443.5 736.5q21.5 -21.5 21.5 -60.5q0 -42 -23.5 -66.5t-64.5 -24.5q-40 0 -61 21.5t-21 61.5q0 42 24 66t65 24q38 0 59.5 -21.5z
M517 169q-1 -87 -64 -133.5t-180 -46.5q-113 0 -172 46.5t-56 133.5l2 83l-5 261h185l-8 -319q-1 -32 13 -45.5t49 -13.5t49.5 13.5t13.5 45.5l-8 319h188l-6 -260z" />
    <glyph glyph-name="thorn" unicode="&#xfe;" horiz-adv-x="533" 
d="M529 278q0 -96 -66.5 -149.5t-188.5 -53.5l-37 -1l4 -74h-188l9 149l-7 295l-2 2h2l-2 67h191l-2 -66h90q197 0 197 -169zM324 228.5q8 11.5 8 34.5q0 31 -15 42.5t-53 13.5l-26 -3l-4 -108l64 -4q18 13 26 24.5z" />
    <glyph glyph-name="ydieresis" unicode="&#xff;" horiz-adv-x="525" 
d="M109 606.5q-21 21.5 -21 61.5q0 42 24 66t65 24q38 0 59.5 -21.5t21.5 -60.5q0 -42 -23.5 -66.5t-64.5 -24.5q-40 0 -61 21.5zM302 606.5q-21 21.5 -21 61.5q0 42 24 66t65 24q38 0 59.5 -21.5t21.5 -60.5q0 -42 -23.5 -66.5t-64.5 -24.5q-40 0 -61 21.5zM348 0h-185
l9 131l-1 17l-174 365h194l14 -47l52 -133h10l61 126l20 54h189l-196 -360l-1 -22z" />
    <glyph glyph-name="Amacron" unicode="&#x100;" horiz-adv-x="627" 
d="M414 0l-18 107l-1 3l-98 2l-82 -4l-17 -108h-196l196 647h242l177 -647h-203zM321 468h-12l-56 -212l56 -1l56 1zM455 746h-276l-12 13l9 107h276l12 -13z" />
    <glyph glyph-name="amacron" unicode="&#x101;" horiz-adv-x="549" 
d="M335 71l-76 2l-60 -3l-11 -70h-181l159 513h224l144 -513h-188zM309 206l-29 143h-11l-38 -143l39 -1zM422 612h-276l-12 13l9 107h276l12 -13z" />
    <glyph glyph-name="Abreve" unicode="&#x102;" horiz-adv-x="627" 
d="M414 0l-18 107l-1 3l-98 2l-82 -4l-17 -108h-196l196 647h242l177 -647h-203zM321 468h-12l-56 -212l56 -1l56 1zM423.5 748q-46.5 -32 -111.5 -32q-64 0 -109 32t-66 92l40 60h27q34 -50 115 -50q74 0 107 50h27l40 -60q-23 -60 -69.5 -92z" />
    <glyph glyph-name="abreve" unicode="&#x103;" horiz-adv-x="549" 
d="M335 71l-76 2l-60 -3l-11 -70h-181l159 513h224l144 -513h-188zM309 206l-29 143h-11l-38 -143l39 -1zM396 615q-46 -39 -118 -39q-71 0 -113.5 39.5t-59.5 96.5l40 62h27q16 -30 45.5 -46.5t66.5 -16.5t66.5 16.5t43.5 46.5h27l40 -62q-19 -58 -65 -97z" />
    <glyph glyph-name="Aogonek" unicode="&#x104;" horiz-adv-x="627" 
d="M522 -197q-48 0 -76 28t-28 72q0 46 44 97h-48l-18 107l-1 3l-98 2l-82 -4l-17 -108h-196l196 647h242l177 -647h-70q-33 -41 -33 -67q0 -32 36 -32q29 0 61 20h10l12 -72q-60 -46 -111 -46zM321 468h-12l-56 -212l56 -1l56 1z" />
    <glyph glyph-name="aogonek" unicode="&#x105;" horiz-adv-x="549" 
d="M447 -197q-48 0 -76 28t-28 72q0 46 44 97h-41l-11 71l-76 2l-60 -3l-11 -70h-181l159 513h224l144 -513h-62q-33 -41 -33 -67q0 -32 36 -32q29 0 61 20h10l12 -72q-60 -46 -111 -46zM309 206l-29 143h-11l-38 -143l39 -1z" />
    <glyph glyph-name="Cacute" unicode="&#x106;" horiz-adv-x="514" 
d="M514 631l-34 -159l-13 -8q-26 14 -60 22.5t-63 8.5q-61 0 -88 -35.5t-27 -118.5q0 -97 31 -141.5t97 -44.5q65 0 123 21l16 -10l-16 -158q-60 -19 -139 -19q-161 0 -242.5 84t-81.5 245q0 162 87.5 251t247.5 89q86 0 162 -27zM479 797l-6 -16q-132 -42 -238 -69l-17 4
l-30 79q118 60 225 123l17 -4z" />
    <glyph glyph-name="cacute" unicode="&#x107;" horiz-adv-x="447" 
d="M441 506l-31 -147l-12 -8q-45 21 -99 21q-46 0 -65.5 -22t-19.5 -77q0 -69 23.5 -99.5t74.5 -30.5q50 0 97 10l15 -9l-15 -146q-45 -8 -112 -8q-140 0 -209.5 66.5t-69.5 194.5q0 129 75 200t213 71q71 0 135 -16zM442 688l-3 -17q-142 -72 -223 -109l-17 1l-44 72
q102 76 201 161l17 -1z" />
    <glyph glyph-name="Ccircumflex" unicode="&#x108;" horiz-adv-x="514" 
d="M300 916h34q63 -57 153 -119l-34 -76h-18l-118 60l-118 -60h-18l-34 76q90 62 153 119zM514 631l-34 -159l-13 -8q-26 14 -60 22.5t-63 8.5q-61 0 -88 -35.5t-27 -118.5q0 -97 31 -141.5t97 -44.5q65 0 123 21l16 -10l-16 -158q-60 -19 -139 -19q-161 0 -242.5 84
t-81.5 245q0 162 87.5 251t247.5 89q86 0 162 -27z" />
    <glyph glyph-name="ccircumflex" unicode="&#x109;" horiz-adv-x="447" 
d="M262 793h34q70 -70 163 -150l-47 -72h-18q-76 48 -115 78q-39 -30 -115 -78h-18l-47 72q69 58 163 150zM441 506l-31 -147l-12 -8q-45 21 -99 21q-46 0 -65.5 -22t-19.5 -77q0 -69 23.5 -99.5t74.5 -30.5q50 0 97 10l15 -9l-15 -146q-45 -8 -112 -8q-140 0 -209.5 66.5
t-69.5 194.5q0 129 75 200t213 71q71 0 135 -16z" />
    <glyph glyph-name="Cdotaccent" unicode="&#x10a;" horiz-adv-x="514" 
d="M389.5 878q24.5 -25 24.5 -70q0 -48 -27 -76t-74 -28q-46 0 -70 24.5t-24 70.5q0 48 27.5 76t74.5 28q44 0 68.5 -25zM514 631l-34 -159l-13 -8q-26 14 -60 22.5t-63 8.5q-61 0 -88 -35.5t-27 -118.5q0 -97 31 -141.5t97 -44.5q65 0 123 21l16 -10l-16 -158
q-60 -19 -139 -19q-161 0 -242.5 84t-81.5 245q0 162 87.5 251t247.5 89q86 0 162 -27z" />
    <glyph glyph-name="cdotaccent" unicode="&#x10b;" horiz-adv-x="447" 
d="M351.5 744q24.5 -25 24.5 -70q0 -48 -27 -76t-74 -28q-46 0 -70 24.5t-24 70.5q0 48 27.5 76t74.5 28q44 0 68.5 -25zM441 506l-31 -147l-12 -8q-45 21 -99 21q-46 0 -65.5 -22t-19.5 -77q0 -69 23.5 -99.5t74.5 -30.5q50 0 97 10l15 -9l-15 -146q-45 -8 -112 -8
q-140 0 -209.5 66.5t-69.5 194.5q0 129 75 200t213 71q71 0 135 -16z" />
    <glyph glyph-name="Ccaron" unicode="&#x10c;" horiz-adv-x="514" 
d="M514 631l-34 -159l-13 -8q-26 14 -60 22.5t-63 8.5q-61 0 -88 -35.5t-27 -118.5q0 -97 31 -141.5t97 -44.5q65 0 123 21l16 -10l-16 -158q-60 -19 -139 -19q-161 0 -242.5 84t-81.5 245q0 162 87.5 251t247.5 89q86 0 162 -27zM334 712h-34q-63 57 -153 119l34 76h18
l118 -60l118 60h18l34 -76q-90 -62 -153 -119z" />
    <glyph glyph-name="ccaron" unicode="&#x10d;" horiz-adv-x="447" 
d="M441 506l-31 -147l-12 -8q-45 21 -99 21q-46 0 -65.5 -22t-19.5 -77q0 -69 23.5 -99.5t74.5 -30.5q50 0 97 10l15 -9l-15 -146q-45 -8 -112 -8q-140 0 -209.5 66.5t-69.5 194.5q0 129 75 200t213 71q71 0 135 -16zM296 567h-34q-70 70 -163 150l47 72h18q76 -48 115 -78
q39 30 115 78h18l47 -72q-69 -58 -163 -150z" />
    <glyph glyph-name="Dcaron" unicode="&#x10e;" horiz-adv-x="665" 
d="M571.5 573.5q76.5 -77.5 76.5 -223.5q0 -173 -89 -266t-255 -93q-104 0 -244 9l10 190l-10 457l292 4q143 0 219.5 -77.5zM413.5 177.5q24.5 37.5 24.5 123.5q0 73 -10 115t-32 60.5t-61 18.5q-38 0 -75 -4l-7 -281l2 -62q60 -8 87 -8q47 0 71.5 37.5zM345 712h-34
q-63 57 -153 119l34 76h18l118 -60l118 60h18l34 -76q-90 -62 -153 -119z" />
    <glyph glyph-name="dcaron" unicode="&#x10f;" horiz-adv-x="575" 
d="M492.5 454.5q64.5 -61.5 64.5 -176.5q0 -138 -76 -212t-218 -74q-72 0 -210 8l9 149l-9 364l254 3q121 0 185.5 -61.5zM346.5 152q16.5 23 16.5 80q0 55 -6.5 85t-22 42.5t-43.5 12.5q-21 0 -54 -3l-6 -201l1 -31q48 -8 66 -8q32 0 48.5 23zM290 567h-34q-70 70 -163 150
l47 72h18q76 -48 115 -78q39 30 115 78h18l47 -72q-69 -58 -163 -150z" />
    <glyph glyph-name="Dcroat" unicode="&#x110;" horiz-adv-x="665" 
d="M571.5 573.5q76.5 -77.5 76.5 -223.5q0 -173 -89 -266t-255 -93q-104 0 -244 9l10 190l-10 457l292 4q143 0 219.5 -77.5zM413.5 177.5q24.5 37.5 24.5 123.5q0 73 -10 115t-32 60.5t-61 18.5q-38 0 -75 -4l-7 -281l2 -62q60 -8 87 -8q47 0 71.5 37.5zM468 746h-276
l-12 13l9 107h276l12 -13z" />
    <glyph glyph-name="dcroat" unicode="&#x111;" horiz-adv-x="575" 
d="M492.5 454.5q64.5 -61.5 64.5 -176.5q0 -138 -76 -212t-218 -74q-72 0 -210 8l9 149l-9 364l254 3q121 0 185.5 -61.5zM346.5 152q16.5 23 16.5 80q0 55 -6.5 85t-22 42.5t-43.5 12.5q-21 0 -54 -3l-6 -201l1 -31q48 -8 66 -8q32 0 48.5 23zM413 612h-276l-12 13l9 107
h276l12 -13z" />
    <glyph glyph-name="Emacron" unicode="&#x112;" horiz-adv-x="541" 
d="M528 146l-12 -146h-456l10 190l-10 457h464l11 -14l-13 -146l-159 6h-103l-2 -91h99l104 3l11 -14l-12 -146l-116 3h-90l-1 -38l2 -56h96l166 6zM432 746h-276l-12 13l9 107h276l12 -13z" />
    <glyph glyph-name="emacron" unicode="&#x113;" horiz-adv-x="480" 
d="M461 135l-11 -135h-397l9 149l-9 364h404l10 -13l-11 -135l-135 6h-84l-1 -44h80l87 3l10 -13l-11 -135l-98 3h-72l-1 -17l1 -26h79l140 5zM394 612h-276l-12 13l9 107h276l12 -13z" />
    <glyph glyph-name="Ebreve" unicode="&#x114;" horiz-adv-x="541" 
d="M528 146l-12 -146h-456l10 190l-10 457h464l11 -14l-13 -146l-159 6h-103l-2 -91h99l104 3l11 -14l-12 -146l-116 3h-90l-1 -38l2 -56h96l166 6zM400.5 748q-46.5 -32 -111.5 -32q-64 0 -109 32t-66 92l40 60h27q34 -50 115 -50q74 0 107 50h27l40 -60q-23 -60 -69.5 -92
z" />
    <glyph glyph-name="ebreve" unicode="&#x115;" horiz-adv-x="480" 
d="M461 135l-11 -135h-397l9 149l-9 364h404l10 -13l-11 -135l-135 6h-84l-1 -44h80l87 3l10 -13l-11 -135l-98 3h-72l-1 -17l1 -26h79l140 5zM368 615q-46 -39 -118 -39q-71 0 -113.5 39.5t-59.5 96.5l40 62h27q16 -30 45.5 -46.5t66.5 -16.5t66.5 16.5t43.5 46.5h27
l40 -62q-19 -58 -65 -97z" />
    <glyph glyph-name="Edotaccent" unicode="&#x116;" horiz-adv-x="541" 
d="M218 728.5q-24 24.5 -24 70.5q0 48 27.5 76t74.5 28q44 0 68.5 -25t24.5 -70q0 -48 -27 -76t-74 -28q-46 0 -70 24.5zM528 146l-12 -146h-456l10 190l-10 457h464l11 -14l-13 -146l-159 6h-103l-2 -91h99l104 3l11 -14l-12 -146l-116 3h-90l-1 -38l2 -56h96l166 6z" />
    <glyph glyph-name="edotaccent" unicode="&#x117;" horiz-adv-x="480" 
d="M180 594.5q-24 24.5 -24 70.5q0 48 27.5 76t74.5 28q44 0 68.5 -25t24.5 -70q0 -48 -27 -76t-74 -28q-46 0 -70 24.5zM461 135l-11 -135h-397l9 149l-9 364h404l10 -13l-11 -135l-135 6h-84l-1 -44h80l87 3l10 -13l-11 -135l-98 3h-72l-1 -17l1 -26h79l140 5z" />
    <glyph glyph-name="Eogonek" unicode="&#x118;" horiz-adv-x="541" 
d="M425 -197q-48 0 -76 27.5t-28 69.5q0 47 33 91l7 9h-301l10 190l-10 457h464l11 -14l-13 -146l-159 6h-103l-2 -91h99l104 3l11 -14l-12 -146l-116 3h-90l-1 -38l2 -56h96l166 6l11 -14l-12 -146h-68l-15 -22q-16 -24 -16 -44q0 -33 36 -33q29 0 61 20h10l12 -72
q-60 -46 -111 -46z" />
    <glyph glyph-name="eogonek" unicode="&#x119;" horiz-adv-x="480" 
d="M336 -68q0 -33 36 -33q29 0 61 20h10l12 -72q-60 -46 -111 -46q-48 0 -76 27.5t-28 69.5q0 47 33 91l8 11h-228l9 149l-9 364h404l10 -13l-11 -135l-135 6h-84l-1 -44h80l87 3l10 -13l-11 -135l-98 3h-72l-1 -17l1 -26h79l140 5l10 -12l-11 -135h-82l-16 -24
q-16 -24 -16 -44z" />
    <glyph glyph-name="Ecaron" unicode="&#x11a;" horiz-adv-x="541" 
d="M528 146l-12 -146h-456l10 190l-10 457h464l11 -14l-13 -146l-159 6h-103l-2 -91h99l104 3l11 -14l-12 -146l-116 3h-90l-1 -38l2 -56h96l166 6zM309 712h-34q-63 57 -153 119l34 76h18l118 -60l118 60h18l34 -76q-90 -62 -153 -119z" />
    <glyph glyph-name="ecaron" unicode="&#x11b;" horiz-adv-x="480" 
d="M461 135l-11 -135h-397l9 149l-9 364h404l10 -13l-11 -135l-135 6h-84l-1 -44h80l87 3l10 -13l-11 -135l-98 3h-72l-1 -17l1 -26h79l140 5zM271 567h-34q-70 70 -163 150l47 72h18q76 -48 115 -78q39 30 115 78h18l47 -72q-69 -58 -163 -150z" />
    <glyph glyph-name="Gcircumflex" unicode="&#x11c;" horiz-adv-x="596" 
d="M311 916h34q63 -57 153 -119l-34 -76h-18l-118 60l-118 -60h-18l-34 76q90 62 153 119zM569 628l-43 -177h-16q-50 25 -86.5 36t-79.5 11q-46 0 -70.5 -15t-35.5 -53t-11 -110q0 -73 11 -111.5t37.5 -54t76.5 -15.5q14 0 36 4v32l-3 109l183 13l-3 -88v-177
q-116 -44 -231 -44q-157 0 -237 83.5t-80 238.5q0 170 94.5 259t270.5 89q108 0 187 -30z" />
    <glyph glyph-name="gcircumflex" unicode="&#x11d;" horiz-adv-x="514" 
d="M253 793h34q70 -70 163 -150l-47 -72h-18q-76 48 -115 78q-39 -30 -115 -78h-18l-47 72q69 58 163 150zM489 502l-40 -163h-14q-43 19 -73 27.5t-66 8.5q-35 0 -52.5 -8.5t-24.5 -34t-7 -78.5q0 -54 8 -80.5t27.5 -36t59.5 -9.5h15v13l-2 91l169 11l-3 -70v-147
q-98 -37 -196 -37q-135 0 -203.5 66t-68.5 189q0 136 81 207t232 71q95 0 158 -20z" />
    <glyph glyph-name="Gbreve" unicode="&#x11e;" horiz-adv-x="596" 
d="M569 628l-43 -177h-16q-50 25 -86.5 36t-79.5 11q-46 0 -70.5 -15t-35.5 -53t-11 -110q0 -73 11 -111.5t37.5 -54t76.5 -15.5q14 0 36 4v32l-3 109l183 13l-3 -88v-177q-116 -44 -231 -44q-157 0 -237 83.5t-80 238.5q0 170 94.5 259t270.5 89q108 0 187 -30zM436.5 748
q-46.5 -32 -111.5 -32q-64 0 -109 32t-66 92l40 60h27q34 -50 115 -50q74 0 107 50h27l40 -60q-23 -60 -69.5 -92z" />
    <glyph glyph-name="gbreve" unicode="&#x11f;" horiz-adv-x="514" 
d="M489 502l-40 -163h-14q-43 19 -73 27.5t-66 8.5q-35 0 -52.5 -8.5t-24.5 -34t-7 -78.5q0 -54 8 -80.5t27.5 -36t59.5 -9.5h15v13l-2 91l169 11l-3 -70v-147q-98 -37 -196 -37q-135 0 -203.5 66t-68.5 189q0 136 81 207t232 71q95 0 158 -20zM384 615q-46 -39 -118 -39
q-71 0 -113.5 39.5t-59.5 96.5l40 62h27q16 -30 45.5 -46.5t66.5 -16.5t66.5 16.5t43.5 46.5h27l40 -62q-19 -58 -65 -97z" />
    <glyph glyph-name="Gdotaccent" unicode="&#x120;" horiz-adv-x="596" 
d="M400.5 878q24.5 -25 24.5 -70q0 -48 -27 -76t-74 -28q-46 0 -70 24.5t-24 70.5q0 48 27.5 76t74.5 28q44 0 68.5 -25zM569 628l-43 -177h-16q-50 25 -86.5 36t-79.5 11q-46 0 -70.5 -15t-35.5 -53t-11 -110q0 -73 11 -111.5t37.5 -54t76.5 -15.5q14 0 36 4v32l-3 109
l183 13l-3 -88v-177q-116 -44 -231 -44q-157 0 -237 83.5t-80 238.5q0 170 94.5 259t270.5 89q108 0 187 -30z" />
    <glyph glyph-name="gdotaccent" unicode="&#x121;" horiz-adv-x="514" 
d="M342.5 744q24.5 -25 24.5 -70q0 -48 -27 -76t-74 -28q-46 0 -70 24.5t-24 70.5q0 48 27.5 76t74.5 28q44 0 68.5 -25zM489 502l-40 -163h-14q-43 19 -73 27.5t-66 8.5q-35 0 -52.5 -8.5t-24.5 -34t-7 -78.5q0 -54 8 -80.5t27.5 -36t59.5 -9.5h15v13l-2 91l169 11l-3 -70
v-147q-98 -37 -196 -37q-135 0 -203.5 66t-68.5 189q0 136 81 207t232 71q95 0 158 -20z" />
    <glyph glyph-name="Gcommaaccent" unicode="&#x122;" horiz-adv-x="596" 
d="M569 628l-43 -177h-16q-50 25 -86.5 36t-79.5 11q-46 0 -70.5 -15t-35.5 -53t-11 -110q0 -73 11 -111.5t37.5 -54t76.5 -15.5q14 0 36 4v32l-3 109l183 13l-3 -88v-177q-116 -44 -231 -44q-157 0 -237 83.5t-80 238.5q0 170 94.5 259t270.5 89q108 0 187 -30zM391 -116
q0 -50 -31.5 -95.5t-98.5 -92.5l-52 46l-2 12q48 42 48 93q0 36 -28 64v14q61 35 123 50q41 -40 41 -91z" />
    <glyph glyph-name="gcommaaccent" unicode="&#x123;" horiz-adv-x="514" 
d="M489 502l-40 -163h-14q-43 19 -73 27.5t-66 8.5q-35 0 -52.5 -8.5t-24.5 -34t-7 -78.5q0 -54 8 -80.5t27.5 -36t59.5 -9.5h15v13l-2 91l169 11l-3 -70v-147q-98 -37 -196 -37q-135 0 -203.5 66t-68.5 189q0 136 81 207t232 71q95 0 158 -20zM357 -116q0 -50 -31.5 -95.5
t-98.5 -92.5l-52 46l-2 12q48 42 48 93q0 36 -28 64v14q61 35 123 50q41 -40 41 -91z" />
    <glyph glyph-name="Hcircumflex" unicode="&#x124;" horiz-adv-x="711" 
d="M185 797q90 62 153 119h34q63 -57 153 -119l-34 -76h-18l-118 60l-118 -60h-18zM647 0h-201l10 190l-1 50l-108 2l-93 -3l-1 -29l8 -210h-201l10 190l-10 457h204l-6 -245l101 -2l92 2l-5 245h204l-11 -437z" />
    <glyph glyph-name="hcircumflex" unicode="&#x125;" horiz-adv-x="614" 
d="M130 643q69 58 163 150h34q70 -70 163 -150l-47 -72h-18q-76 48 -115 78q-39 -30 -115 -78h-18zM559 0h-186l9 149l-1 29l-80 2l-70 -2v-10l8 -168h-186l9 149l-9 364h189l-6 -185l75 -2l67 2l-5 185h189l-10 -345z" />
    <glyph glyph-name="Hbar" unicode="&#x126;" horiz-adv-x="744" 
d="M652 210l8 -210h-201l10 190l-1 50l-108 2l-93 -3l-1 -29l8 -210h-201l10 190l-6 282h-59l-8 10l6 91h59l-2 74h204l-2 -74h186l-2 74h204l-2 -74h65l8 -10l-5 -91h-70zM273 472l-2 -70l101 -2l92 2l-1 70h-190z" />
    <glyph glyph-name="hbar" unicode="&#x127;" horiz-adv-x="642" 
d="M558 168l7 -168h-186l9 149l-1 29l-80 2l-70 -2v-10l8 -168h-186l9 149l-5 217h-45l-7 9l5 84h44l-1 54h189l-2 -54h134l-1 54h189l-2 -54h59l7 -9l-5 -84h-63zM243 366l-1 -38l75 -2l67 2l-1 38h-140z" />
    <glyph glyph-name="Imacron" unicode="&#x12a;" horiz-adv-x="327" 
d="M261 0h-201l10 190l-10 457h204l-11 -437zM281 746h-236l-12 13l9 107h236l12 -13z" />
    <glyph glyph-name="imacron" unicode="&#x12b;" horiz-adv-x="303" 
d="M239 0h-186l9 149l-9 364h189l-11 -345zM272 612h-236l-12 13l9 107h236l12 -13z" />
    <glyph glyph-name="Ibreve" unicode="&#x12c;" horiz-adv-x="327" 
d="M261 0h-201l10 190l-10 457h204l-11 -437zM270.5 748q-46.5 -32 -111.5 -32q-64 0 -109 32t-66 92l40 60h27q34 -50 115 -50q74 0 107 50h27l40 -60q-23 -60 -69.5 -92z" />
    <glyph glyph-name="ibreve" unicode="&#x12d;" horiz-adv-x="303" 
d="M239 0h-186l9 149l-9 364h189l-11 -345zM267 615q-46 -39 -118 -39q-71 0 -113.5 39.5t-59.5 96.5l40 62h27q16 -30 45.5 -46.5t66.5 -16.5t66.5 16.5t43.5 46.5h27l40 -62q-19 -58 -65 -97z" />
    <glyph glyph-name="Iogonek" unicode="&#x12e;" horiz-adv-x="327" 
d="M125 -68q0 -31 35 -31q38 0 68 24h10l12 -73q-59 -49 -117 -49q-48 0 -76 28t-28 71q0 47 31 98l10 190l-10 457h204l-11 -437l8 -210h-110q-26 -40 -26 -68z" />
    <glyph glyph-name="iogonek" unicode="&#x12f;" horiz-adv-x="303" 
d="M126 -197q-48 0 -76 28t-28 71q0 47 31 98l9 149l-9 364h189l-11 -345l8 -168h-95q-26 -40 -26 -68q0 -31 35 -31q38 0 68 24h10l12 -73q-59 -49 -117 -49z" />
    <glyph glyph-name="Idotaccent" unicode="&#x130;" horiz-adv-x="327" 
d="M234.5 878q24.5 -25 24.5 -70q0 -48 -27 -76t-74 -28q-46 0 -70 24.5t-24 70.5q0 48 27.5 76t74.5 28q44 0 68.5 -25zM261 0h-201l10 190l-10 457h204l-11 -437z" />
    <glyph glyph-name="dotlessi" unicode="&#x131;" horiz-adv-x="303" 
d="M239 0h-186l9 149l-9 364h189l-11 -345z" />
    <glyph glyph-name="IJ" unicode="&#x132;" horiz-adv-x="689" 
d="M261 0h-201l10 190l-10 457h204l-11 -437zM622 124q0 -63 -21 -106t-69.5 -74t-134.5 -56l-52 103v16q51 25 71.5 52t20.5 71v63l-7 313l-85 -3l-11 13l8 131h289l-11 -434z" />
    <glyph glyph-name="ij" unicode="&#x133;" horiz-adv-x="649" 
d="M239 0h-186l9 149l-9 364h189l-11 -345zM581 99q0 -51 -18.5 -86t-61 -61.5t-117.5 -50.5l-51 93v14q43 17 59.5 37t16.5 53v52l-5 227l-78 -2l-10 11l11 127h261l-9 -345z" />
    <glyph glyph-name="Jcircumflex" unicode="&#x134;" horiz-adv-x="362" 
d="M-6 797q90 62 153 119h34q63 -57 153 -119l-34 -76h-18l-118 60l-118 -60h-18zM293 213l2 -89q0 -63 -21 -106t-69.5 -74t-134.5 -56l-52 103v16q51 25 71.5 52t20.5 71v63l-7 313l-85 -3l-11 13l8 131h289z" />
    <glyph glyph-name="jcircumflex" unicode="&#x135;" horiz-adv-x="346" 
d="M-31 643q69 58 163 150h34q70 -70 163 -150l-47 -72h-18q-76 48 -115 78q-39 -30 -115 -78h-18zM276 168l2 -69q0 -51 -18.5 -86t-61 -61.5t-117.5 -50.5l-51 93v14q43 17 59.5 37t16.5 53v52l-5 227l-78 -2l-10 11l11 127h261z" />
    <glyph glyph-name="Kcommaaccent" unicode="&#x136;" horiz-adv-x="628" 
d="M647 42l-3 -22q-105 -23 -200 -32l-22 12q-102 175 -167 297l-2 -87l8 -210h-201l10 190l-10 457h204l-7 -270l124 200l34 70h212l-190 -306q92 -144 210 -299zM407 -116q0 -50 -31.5 -95.5t-98.5 -92.5l-52 46l-2 12q48 42 48 93q0 36 -28 64v14q61 35 123 50
q41 -40 41 -91z" />
    <glyph glyph-name="kcommaaccent" unicode="&#x137;" horiz-adv-x="556" 
d="M565 39l-3 -20q-97 -22 -185 -29l-21 11q-70 124 -123 224l-2 -57l8 -168h-186l9 149l-9 364h189l-7 -206l90 147l28 59h195l-150 -243q75 -115 167 -231zM356 -116q0 -50 -31.5 -95.5t-98.5 -92.5l-52 46l-2 12q48 42 48 93q0 36 -28 64v14q61 35 123 50q41 -40 41 -91z
" />
    <glyph glyph-name="kgreenlandic" unicode="&#x138;" horiz-adv-x="556" 
d="M565 39l-3 -20q-97 -22 -185 -29l-21 11q-70 124 -123 224l-2 -57l8 -168h-186l9 149l-9 364h189l-7 -206l90 147l28 59h195l-150 -243q75 -115 167 -231z" />
    <glyph glyph-name="Lacute" unicode="&#x139;" horiz-adv-x="452" 
d="M440 0h-385l10 190l-10 457h204l-11 -437l2 -46h191l11 -14zM384 797l-6 -16q-132 -42 -238 -69l-17 4l-30 79q118 60 225 123l17 -4z" />
    <glyph glyph-name="lacute" unicode="&#x13a;" horiz-adv-x="402" 
d="M381 0h-333l9 149l-9 364h189l-11 -345l1 -17h155l10 -12zM347 688l-3 -17q-142 -72 -223 -109l-17 1l-44 72q102 76 201 161l17 -1z" />
    <glyph glyph-name="Lcommaaccent" unicode="&#x13b;" horiz-adv-x="452" 
d="M440 0h-385l10 190l-10 457h204l-11 -437l2 -46h191l11 -14zM325 -116q0 -50 -31.5 -95.5t-98.5 -92.5l-52 46l-2 12q48 42 48 93q0 36 -28 64v14q61 35 123 50q41 -40 41 -91z" />
    <glyph glyph-name="lcommaaccent" unicode="&#x13c;" horiz-adv-x="402" 
d="M381 0h-333l9 149l-9 364h189l-11 -345l1 -17h155l10 -12zM282 -116q0 -50 -31.5 -95.5t-98.5 -92.5l-52 46l-2 12q48 42 48 93q0 36 -28 64v14q61 35 123 50q41 -40 41 -91z" />
    <glyph glyph-name="Lcaron" unicode="&#x13d;" horiz-adv-x="521" 
d="M452 150l-12 -150h-385l10 190l-10 457h204l-11 -437l2 -46h191zM455 358l-82 -13l-13 10l-10 238l139 8l10 -11z" />
    <glyph glyph-name="lcaron" unicode="&#x13e;" horiz-adv-x="463" 
d="M392 139l-11 -139h-333l9 149l-9 364h189l-11 -345l1 -17h155zM417 258l-82 -13l-13 10l-10 238l139 8l10 -11z" />
    <glyph glyph-name="Ldot" unicode="&#x13f;" horiz-adv-x="503" 
d="M452 150l-12 -150h-385l10 190l-10 457h204l-11 -437l2 -46h191zM469.5 476q24.5 -25 24.5 -70q0 -48 -27 -76t-74 -28q-46 0 -70 24.5t-24 70.5q0 48 27.5 76t74.5 28q44 0 68.5 -25z" />
    <glyph glyph-name="ldot" unicode="&#x140;" horiz-adv-x="462" 
d="M392 139l-11 -139h-333l9 149l-9 364h189l-11 -345l1 -17h155zM438.5 411q24.5 -25 24.5 -70q0 -48 -27 -76t-74 -28q-46 0 -70 24.5t-24 70.5q0 48 27.5 76t74.5 28q44 0 68.5 -25z" />
    <glyph glyph-name="Lslash" unicode="&#x141;" horiz-adv-x="472" 
d="M460 0h-385l10 190v11l-47 -24l-17 9l-35 115l96 48l-7 298h204l-5 -201l67 34l17 -9l36 -114l-124 -63l-2 -84l2 -46h191l11 -14z" />
    <glyph glyph-name="lslash" unicode="&#x142;" horiz-adv-x="422" 
d="M394 0h-333l9 149v13l-36 -15l-15 9l-28 100l76 31l-6 226h189l-5 -152l60 25l14 -9l29 -99l-107 -45l-2 -65l1 -17h155l10 -12z" />
    <glyph glyph-name="Nacute" unicode="&#x143;" horiz-adv-x="710" 
d="M647 0h-218l-182 346h-12l-1 -112l8 -234h-182l10 190l-10 457h218l182 -346h12l-6 339l184 11l-11 -440zM517 797l-6 -16q-132 -42 -238 -69l-17 4l-30 79q118 60 225 123l17 -4z" />
    <glyph glyph-name="nacute" unicode="&#x144;" horiz-adv-x="614" 
d="M559 0h-202l-132 236h-10l-1 -46l7 -190h-168l9 150l-9 363h202l132 -236h11l-6 229l170 10l-10 -344zM469 688l-3 -17q-142 -72 -223 -109l-17 1l-44 72q102 76 201 161l17 -1z" />
    <glyph glyph-name="Ncommaaccent" unicode="&#x145;" horiz-adv-x="710" 
d="M647 0h-218l-182 346h-12l-1 -112l8 -234h-182l10 190l-10 457h218l182 -346h12l-6 339l184 11l-11 -440zM448 -116q0 -50 -31.5 -95.5t-98.5 -92.5l-52 46l-2 12q48 42 48 93q0 36 -28 64v14q61 35 123 50q41 -40 41 -91z" />
    <glyph glyph-name="ncommaaccent" unicode="&#x146;" horiz-adv-x="614" 
d="M559 0h-202l-132 236h-10l-1 -46l7 -190h-168l9 150l-9 363h202l132 -236h11l-6 229l170 10l-10 -344zM399 -116q0 -50 -31.5 -95.5t-98.5 -92.5l-52 46l-2 12q48 42 48 93q0 36 -28 64v14q61 35 123 50q41 -40 41 -91z" />
    <glyph glyph-name="Ncaron" unicode="&#x147;" horiz-adv-x="710" 
d="M647 0h-218l-182 346h-12l-1 -112l8 -234h-182l10 190l-10 457h218l182 -346h12l-6 339l184 11l-11 -440zM372 712h-34q-63 57 -153 119l34 76h18l118 -60l118 60h18l34 -76q-90 -62 -153 -119z" />
    <glyph glyph-name="ncaron" unicode="&#x148;" horiz-adv-x="614" 
d="M559 0h-202l-132 236h-10l-1 -46l7 -190h-168l9 150l-9 363h202l132 -236h11l-6 229l170 10l-10 -344zM323 567h-34q-70 70 -163 150l47 72h18q76 -48 115 -78q39 30 115 78h18l47 -72q-69 -58 -163 -150z" />
    <glyph glyph-name="Eng" unicode="&#x14a;" horiz-adv-x="710" 
d="M645 54q0 -63 -21 -106t-69.5 -74t-134.5 -56l-52 103v16q60 28 79 63l-200 346h-12l-1 -112l8 -234h-182l10 190l-10 457h218l182 -326h12l-6 319l184 11l-11 -440z" />
    <glyph glyph-name="eng" unicode="&#x14b;" horiz-adv-x="614" 
d="M557 44q0 -49 -16 -82.5t-54 -59t-105 -48.5l-59 76v14q44 23 55 47l-153 245h-11v-46l7 -190h-168l9 150l-9 363h202l131 -213h11l-5 206l170 10l-10 -344z" />
    <glyph glyph-name="Omacron" unicode="&#x14c;" 
d="M559 575.5q77 -83.5 77 -235.5q0 -168 -84.5 -260t-239.5 -92q-141 0 -218 84.5t-77 239.5q0 166 84.5 256.5t239.5 90.5q141 0 218 -83.5zM264 485.5q-20 -13.5 -28.5 -47.5t-8.5 -99q0 -83 9 -126t30.5 -60t63.5 -17q39 0 59 13.5t28.5 48t8.5 99.5q0 82 -9 125
t-30.5 60t-63.5 17q-39 0 -59 -13.5zM467 746h-276l-12 13l9 107h276l12 -13z" />
    <glyph glyph-name="omacron" unicode="&#x14d;" horiz-adv-x="565" 
d="M480.5 457q65.5 -66 65.5 -187q0 -134 -72.5 -207.5t-204.5 -73.5q-120 0 -185.5 67.5t-65.5 189.5q0 132 72.5 204.5t204.5 72.5q120 0 185.5 -66zM236.5 368.5q-13.5 -7.5 -19 -29.5t-5.5 -68q0 -63 6 -93t21 -41t47 -11q29 0 42.5 7.5t18.5 29t5 67.5q0 64 -5.5 94
t-21 41t-47.5 11q-28 0 -41.5 -7.5zM424 612h-276l-12 13l9 107h276l12 -13z" />
    <glyph glyph-name="Obreve" unicode="&#x14e;" 
d="M559 575.5q77 -83.5 77 -235.5q0 -168 -84.5 -260t-239.5 -92q-141 0 -218 84.5t-77 239.5q0 166 84.5 256.5t239.5 90.5q141 0 218 -83.5zM264 485.5q-20 -13.5 -28.5 -47.5t-8.5 -99q0 -83 9 -126t30.5 -60t63.5 -17q39 0 59 13.5t28.5 48t8.5 99.5q0 82 -9 125
t-30.5 60t-63.5 17q-39 0 -59 -13.5zM435.5 748q-46.5 -32 -111.5 -32q-64 0 -109 32t-66 92l40 60h27q34 -50 115 -50q74 0 107 50h27l40 -60q-23 -60 -69.5 -92z" />
    <glyph glyph-name="obreve" unicode="&#x14f;" horiz-adv-x="565" 
d="M480.5 457q65.5 -66 65.5 -187q0 -134 -72.5 -207.5t-204.5 -73.5q-120 0 -185.5 67.5t-65.5 189.5q0 132 72.5 204.5t204.5 72.5q120 0 185.5 -66zM236.5 368.5q-13.5 -7.5 -19 -29.5t-5.5 -68q0 -63 6 -93t21 -41t47 -11q29 0 42.5 7.5t18.5 29t5 67.5q0 64 -5.5 94
t-21 41t-47.5 11q-28 0 -41.5 -7.5zM398 615q-46 -39 -118 -39q-71 0 -113.5 39.5t-59.5 96.5l40 62h27q16 -30 45.5 -46.5t66.5 -16.5t66.5 16.5t43.5 46.5h27l40 -62q-19 -58 -65 -97z" />
    <glyph glyph-name="Ohungarumlaut" unicode="&#x150;" 
d="M559 575.5q77 -83.5 77 -235.5q0 -168 -84.5 -260t-239.5 -92q-141 0 -218 84.5t-77 239.5q0 166 84.5 256.5t239.5 90.5q141 0 218 -83.5zM264 485.5q-20 -13.5 -28.5 -47.5t-8.5 -99q0 -83 9 -126t30.5 -60t63.5 -17q39 0 59 13.5t28.5 48t8.5 99.5q0 82 -9 125
t-30.5 60t-63.5 17q-39 0 -59 -13.5zM260 906l14 4l90 -58l3 -14q-63 -63 -131 -122l-16 -5l-59 46q68 98 99 149zM353 791q36 53 76 115l13 4l91 -58l3 -14q-69 -67 -132 -122l-15 -5l-59 46z" />
    <glyph glyph-name="ohungarumlaut" unicode="&#x151;" horiz-adv-x="565" 
d="M480.5 457q65.5 -66 65.5 -187q0 -134 -72.5 -207.5t-204.5 -73.5q-120 0 -185.5 67.5t-65.5 189.5q0 132 72.5 204.5t204.5 72.5q120 0 185.5 -66zM236.5 368.5q-13.5 -7.5 -19 -29.5t-5.5 -68q0 -63 6 -93t21 -41t47 -11q29 0 42.5 7.5t18.5 29t5 67.5q0 64 -5.5 94
t-21 41t-47.5 11q-28 0 -41.5 -7.5zM235 800l13 4l90 -63l3 -14q-62 -73 -145 -159l-15 -5l-58 46q59 95 112 191zM400 800l13 4l90 -63l3 -14q-62 -73 -145 -159l-15 -5l-58 46q59 95 112 191z" />
    <glyph glyph-name="OE" unicode="&#x152;" horiz-adv-x="889" 
d="M464 652q75 -5 86 -5h322l11 -14l-13 -146l-159 6h-103l-2 -91h99l104 3l11 -14l-12 -146l-116 3h-91v-38l2 -56h96l166 6l11 -14l-12 -146h-314q-25 1 -111 -5q-65 -7 -117 -7q-146 0 -225.5 85t-79.5 240q0 164 87.5 255t243.5 91q53 0 116 -7zM267 483.5
q-22 -15.5 -31 -51t-9 -102.5q0 -73 10 -115t34 -60.5t67 -18.5q52 0 67 15q13 13 12 54l-5 229q-1 38 -11 49q-15 16 -70 16q-42 0 -64 -15.5z" />
    <glyph glyph-name="oe" unicode="&#x153;" horiz-adv-x="763" 
d="M399 517q52 -4 73 -4h274l10 -13l-12 -135l-135 6h-82l-2 -44h81l86 3l10 -13l-11 -135l-97 3h-74v-16l2 -27h77l140 5l10 -12l-11 -135h-266q-28 2 -97 -4q-80 -5 -100 -5q-123 0 -190 66.5t-67 189.5q0 131 74 203t206 72q24 0 101 -5zM236.5 366q-14.5 -9 -19.5 -32
t-5 -71q0 -55 6.5 -83.5t22.5 -40.5t48 -12q44 0 53 12q9 13 8 47l-4 134q-2 32 -9 41q-11 14 -55 14q-31 0 -45.5 -9z" />
    <glyph glyph-name="Racute" unicode="&#x154;" horiz-adv-x="631" 
d="M630 47l-3 -22q-102 -31 -201 -37l-19 16q-64 137 -86 189h-67l7 -193h-201l10 190l-10 457l307 1q109 0 168 -51.5t59 -148.5q0 -57 -28.5 -107t-79.5 -86q72 -112 144 -208zM362.5 487.5q-20.5 19.5 -66.5 21.5l-36 -3l-4 -167l73 -4q28 13 41 35t13 58
q0 40 -20.5 59.5zM479 822l-3 -17q-142 -72 -223 -109l-17 1l-44 72q102 76 201 161l17 -1z" />
    <glyph glyph-name="racute" unicode="&#x155;" horiz-adv-x="557" 
d="M552 43l-3 -20q-93 -27 -181 -33l-25 19q-42 91 -61 133h-50l7 -142h-186l9 149l-9 364h274q93 0 144 -41.5t51 -119.5q0 -89 -86 -153q72 -102 116 -156zM234 276l55 -4q20 10 28.5 24t8.5 37q0 27 -15 39t-51 14l-22 -2zM429 688l-3 -17q-142 -72 -223 -109l-17 1
l-44 72q102 76 201 161l17 -1z" />
    <glyph glyph-name="Rcommaaccent" unicode="&#x156;" horiz-adv-x="631" 
d="M630 47l-3 -22q-102 -31 -201 -37l-19 16q-64 137 -86 189h-67l7 -193h-201l10 190l-10 457l307 1q109 0 168 -51.5t59 -148.5q0 -57 -28.5 -107t-79.5 -86q72 -112 144 -208zM362.5 487.5q-20.5 19.5 -66.5 21.5l-36 -3l-4 -167l73 -4q28 13 41 35t13 58
q0 40 -20.5 59.5zM409 -116q0 -50 -31.5 -95.5t-98.5 -92.5l-52 46l-2 12q48 42 48 93q0 36 -28 64v14q61 35 123 50q41 -40 41 -91z" />
    <glyph glyph-name="rcommaaccent" unicode="&#x157;" horiz-adv-x="557" 
d="M552 43l-3 -20q-93 -27 -181 -33l-25 19q-42 91 -61 133h-50l7 -142h-186l9 149l-9 364h274q93 0 144 -41.5t51 -119.5q0 -89 -86 -153q72 -102 116 -156zM234 276l55 -4q20 10 28.5 24t8.5 37q0 27 -15 39t-51 14l-22 -2zM359 -116q0 -50 -31.5 -95.5t-98.5 -92.5
l-52 46l-2 12q48 42 48 93q0 36 -28 64v14q61 35 123 50q41 -40 41 -91z" />
    <glyph glyph-name="Rcaron" unicode="&#x158;" horiz-adv-x="631" 
d="M630 47l-3 -22q-102 -31 -201 -37l-19 16q-64 137 -86 189h-67l7 -193h-201l10 190l-10 457l307 1q109 0 168 -51.5t59 -148.5q0 -57 -28.5 -107t-79.5 -86q72 -112 144 -208zM362.5 487.5q-20.5 19.5 -66.5 21.5l-36 -3l-4 -167l73 -4q28 13 41 35t13 58
q0 40 -20.5 59.5zM333 701h-34q-70 70 -163 150l47 72h18q76 -48 115 -78q39 30 115 78h18l47 -72q-69 -58 -163 -150z" />
    <glyph glyph-name="rcaron" unicode="&#x159;" horiz-adv-x="557" 
d="M552 43l-3 -20q-93 -27 -181 -33l-25 19q-42 91 -61 133h-50l7 -142h-186l9 149l-9 364h274q93 0 144 -41.5t51 -119.5q0 -89 -86 -153q72 -102 116 -156zM234 276l55 -4q20 10 28.5 24t8.5 37q0 27 -15 39t-51 14l-22 -2zM283 567h-34q-70 70 -163 150l47 72h18
q76 -48 115 -78q39 30 115 78h18l47 -72q-69 -58 -163 -150z" />
    <glyph glyph-name="Sacute" unicode="&#x15a;" horiz-adv-x="528" 
d="M493 624l-32 -163l-28 -12q-42 26 -83 41t-66 15q-23 0 -36.5 -9t-13.5 -24q0 -19 20.5 -32.5t68.5 -35.5q56 -25 92 -46.5t63 -59t27 -92.5q0 -61 -33.5 -110.5t-95.5 -78.5t-144 -29q-102 0 -214 38l29 174l20 12q46 -35 98.5 -55.5t87.5 -20.5q53 0 53 33
q0 21 -21.5 35.5t-69.5 35.5q-55 24 -90.5 45.5t-61.5 59t-26 92.5q0 63 34 113.5t95 79.5t139 29q95 0 188 -35zM438 822l-3 -17q-142 -72 -223 -109l-17 1l-44 72q102 76 201 161l17 -1z" />
    <glyph glyph-name="sacute" unicode="&#x15b;" horiz-adv-x="469" 
d="M427 496l-27 -154l-26 -7q-35 23 -72.5 37t-58.5 14t-21 -13t14.5 -21t48.5 -21q45 -16 75.5 -32.5t53 -48t22.5 -80.5q0 -48 -23.5 -89t-75.5 -67t-132 -26q-90 0 -181 28l27 161l17 13q39 -31 85 -51t76 -20q24 0 24 16q0 12 -13.5 19.5t-47.5 20.5q-45 16 -76 33
t-54 49.5t-23 82.5q0 52 27 93.5t79 65.5t124 24q81 0 158 -27zM413 688l-3 -17q-142 -72 -223 -109l-17 1l-44 72q102 76 201 161l17 -1z" />
    <glyph glyph-name="Scircumflex" unicode="&#x15c;" horiz-adv-x="528" 
d="M258 927h34q70 -70 163 -150l-47 -72h-18q-76 48 -115 78q-39 -30 -115 -78h-18l-47 72q69 58 163 150zM493 624l-32 -163l-28 -12q-42 26 -83 41t-66 15q-23 0 -36.5 -9t-13.5 -24q0 -19 20.5 -32.5t68.5 -35.5q56 -25 92 -46.5t63 -59t27 -92.5q0 -61 -33.5 -110.5
t-95.5 -78.5t-144 -29q-102 0 -214 38l29 174l20 12q46 -35 98.5 -55.5t87.5 -20.5q53 0 53 33q0 21 -21.5 35.5t-69.5 35.5q-55 24 -90.5 45.5t-61.5 59t-26 92.5q0 63 34 113.5t95 79.5t139 29q95 0 188 -35z" />
    <glyph glyph-name="scircumflex" unicode="&#x15d;" horiz-adv-x="469" 
d="M233 793h34q70 -70 163 -150l-47 -72h-18q-76 48 -115 78q-39 -30 -115 -78h-18l-47 72q69 58 163 150zM427 496l-27 -154l-26 -7q-35 23 -72.5 37t-58.5 14t-21 -13t14.5 -21t48.5 -21q45 -16 75.5 -32.5t53 -48t22.5 -80.5q0 -48 -23.5 -89t-75.5 -67t-132 -26
q-90 0 -181 28l27 161l17 13q39 -31 85 -51t76 -20q24 0 24 16q0 12 -13.5 19.5t-47.5 20.5q-45 16 -76 33t-54 49.5t-23 82.5q0 52 27 93.5t79 65.5t124 24q81 0 158 -27z" />
    <glyph glyph-name="Scedilla" unicode="&#x15e;" horiz-adv-x="528" 
d="M479.5 108.5q-25.5 -44.5 -73.5 -75t-113 -40.5l-6 -35l34 -19q44 -23 44 -63q0 -37 -29.5 -60.5t-80.5 -23.5q-49 0 -92 24l11 75l8 3q33 -28 60 -28q16 0 16 14q0 9 -12 15l-50 27l13 66q-90 4 -191 38l29 174l20 12q46 -35 98.5 -55.5t87.5 -20.5q53 0 53 33
q0 21 -21.5 35.5t-69.5 35.5q-55 24 -90.5 45.5t-61.5 59t-26 92.5q0 63 34 113.5t95 79.5t139 29q95 0 188 -35l-32 -163l-28 -12q-42 26 -83 41t-66 15q-23 0 -36.5 -9t-13.5 -24q0 -19 20.5 -32.5t68.5 -35.5q56 -25 92 -46.5t63 -59t27 -92.5q0 -53 -25.5 -97.5z" />
    <glyph glyph-name="scedilla" unicode="&#x15f;" horiz-adv-x="469" 
d="M390.5 52q-45.5 -51 -139.5 -61l-6 -33l34 -19q44 -23 44 -63q0 -37 -29.5 -60.5t-80.5 -23.5q-49 0 -92 24l11 75l8 3q33 -28 60 -28q16 0 16 14q0 9 -12 15l-50 27l13 67q-74 5 -143 27l27 161l17 13q39 -31 85 -51t76 -20q24 0 24 16q0 12 -13.5 19.5t-47.5 20.5
q-45 16 -76 33t-54 49.5t-23 82.5q0 52 27 93.5t79 65.5t124 24q81 0 158 -27l-27 -154l-26 -7q-35 23 -72.5 37t-58.5 14t-21 -13t14.5 -21t48.5 -21q45 -16 75.5 -32.5t53 -48t22.5 -80.5q0 -67 -45.5 -118z" />
    <glyph glyph-name="Scaron" unicode="&#x160;" horiz-adv-x="528" 
d="M493 624l-32 -163l-28 -12q-42 26 -83 41t-66 15q-23 0 -36.5 -9t-13.5 -24q0 -19 20.5 -32.5t68.5 -35.5q56 -25 92 -46.5t63 -59t27 -92.5q0 -61 -33.5 -110.5t-95.5 -78.5t-144 -29q-102 0 -214 38l29 174l20 12q46 -35 98.5 -55.5t87.5 -20.5q53 0 53 33
q0 21 -21.5 35.5t-69.5 35.5q-55 24 -90.5 45.5t-61.5 59t-26 92.5q0 63 34 113.5t95 79.5t139 29q95 0 188 -35zM292 701h-34q-70 70 -163 150l47 72h18q76 -48 115 -78q39 30 115 78h18l47 -72q-69 -58 -163 -150z" />
    <glyph glyph-name="scaron" unicode="&#x161;" horiz-adv-x="469" 
d="M427 496l-27 -154l-26 -7q-35 23 -72.5 37t-58.5 14t-21 -13t14.5 -21t48.5 -21q45 -16 75.5 -32.5t53 -48t22.5 -80.5q0 -48 -23.5 -89t-75.5 -67t-132 -26q-90 0 -181 28l27 161l17 13q39 -31 85 -51t76 -20q24 0 24 16q0 12 -13.5 19.5t-47.5 20.5q-45 16 -76 33
t-54 49.5t-23 82.5q0 52 27 93.5t79 65.5t124 24q81 0 158 -27zM267 567h-34q-70 70 -163 150l47 72h18q76 -48 115 -78q39 30 115 78h18l47 -72q-69 -58 -163 -150z" />
    <glyph glyph-name="Tcedilla" unicode="&#x162;" horiz-adv-x="519" 
d="M353 210l8 -210h-60l-8 -42l34 -19q44 -23 44 -63q0 -37 -29.5 -60.5t-80.5 -23.5q-49 0 -92 24l11 75l8 3q33 -28 60 -28q16 0 16 14q0 9 -12 15l-50 27l15 78h-56l10 190l-5 303h-13l-133 -6l-12 14l11 146h483l11 -14l-11 -146l-132 6h-12z" />
    <glyph glyph-name="tcedilla" unicode="&#x163;" horiz-adv-x="457" 
d="M309 168l7 -168h-47l-8 -43l34 -19q44 -23 44 -63q0 -37 -29.5 -60.5t-80.5 -23.5q-49 0 -92 24l11 75l8 3q33 -28 60 -28q16 0 16 14q0 9 -12 15l-50 27l16 79h-55l9 149l-4 222h-4l-114 -6l-11 13l10 135h412l10 -13l-10 -135l-113 6h-3z" />
    <glyph glyph-name="Tcaron" unicode="&#x164;" horiz-adv-x="519" 
d="M502 487l-132 6h-12l-5 -283l8 -210h-200l10 190l-5 303h-13l-133 -6l-12 14l11 146h483l11 -14zM278 701h-34q-70 70 -163 150l47 72h18q76 -48 115 -78q39 30 115 78h18l47 -72q-69 -58 -163 -150z" />
    <glyph glyph-name="tcaron" unicode="&#x165;" horiz-adv-x="457" 
d="M434 365l-113 6h-3l-4 -203l7 -168h-185l9 149l-4 222h-4l-114 -6l-11 13l10 135h412l10 -13zM233 567h-34q-70 70 -163 150l47 72h18q76 -48 115 -78q39 30 115 78h18l47 -72q-69 -58 -163 -150z" />
    <glyph glyph-name="Tbar" unicode="&#x166;" horiz-adv-x="519" 
d="M355 335h90l12 -13l-7 -88h-97v-24l8 -210h-200l10 190l-1 44h-81l-12 13l7 88h85l-3 158h-13l-133 -6l-12 14l11 146h483l11 -14l-11 -146l-132 6h-12z" />
    <glyph glyph-name="tbar" unicode="&#x167;" horiz-adv-x="457" 
d="M316 255h72l12 -13l-7 -88h-78l6 -154h-185l9 149v5h-73l-12 13l7 88h76l-2 116h-4l-114 -6l-11 13l10 135h412l10 -13l-10 -135l-113 6h-3z" />
    <glyph glyph-name="Umacron" unicode="&#x16a;" 
d="M599 216q-1 -110 -74 -169t-209 -59q-131 0 -200.5 59t-66.5 169l3 103l-6 328h201l-9 -404q-1 -51 19.5 -74t66.5 -23q47 0 68 23t20 74l-9 404h204l-7 -328zM467 746h-276l-12 13l9 107h276l12 -13z" />
    <glyph glyph-name="umacron" unicode="&#x16b;" horiz-adv-x="566" 
d="M517 169q-1 -87 -64 -133.5t-180 -46.5q-113 0 -172 46.5t-56 133.5l2 83l-5 261h185l-8 -319q-1 -32 13 -45.5t49 -13.5t49.5 13.5t13.5 45.5l-8 319h188l-6 -260zM423 612h-276l-12 13l9 107h276l12 -13z" />
    <glyph glyph-name="Ubreve" unicode="&#x16c;" 
d="M599 216q-1 -110 -74 -169t-209 -59q-131 0 -200.5 59t-66.5 169l3 103l-6 328h201l-9 -404q-1 -51 19.5 -74t66.5 -23q47 0 68 23t20 74l-9 404h204l-7 -328zM441 749q-46 -39 -118 -39q-71 0 -113.5 39.5t-59.5 96.5l40 62h27q16 -30 45.5 -46.5t66.5 -16.5t66.5 16.5
t43.5 46.5h27l40 -62q-19 -58 -65 -97z" />
    <glyph glyph-name="ubreve" unicode="&#x16d;" horiz-adv-x="566" 
d="M517 169q-1 -87 -64 -133.5t-180 -46.5q-113 0 -172 46.5t-56 133.5l2 83l-5 261h185l-8 -319q-1 -32 13 -45.5t49 -13.5t49.5 13.5t13.5 45.5l-8 319h188l-6 -260zM397 615q-46 -39 -118 -39q-71 0 -113.5 39.5t-59.5 96.5l40 62h27q16 -30 45.5 -46.5t66.5 -16.5
t66.5 16.5t43.5 46.5h27l40 -62q-19 -58 -65 -97z" />
    <glyph glyph-name="Uring" unicode="&#x16e;" 
d="M599 216q-1 -110 -74 -169t-209 -59q-131 0 -200.5 59t-66.5 169l3 103l-6 328h201l-9 -404q-1 -51 19.5 -74t66.5 -23q47 0 68 23t20 74l-9 404h204l-7 -328zM437 827q0 -55 -29 -84.5t-85 -29.5q-106 0 -106 107q0 111 114 111q106 0 106 -104zM299.5 846.5
q-7.5 -6.5 -7.5 -23.5q0 -19 8 -26.5t28 -7.5q19 0 26.5 7t7.5 24q0 18 -8 25.5t-28 7.5q-19 0 -26.5 -6.5z" />
    <glyph glyph-name="uring" unicode="&#x16f;" horiz-adv-x="566" 
d="M517 169q-1 -87 -64 -133.5t-180 -46.5q-113 0 -172 46.5t-56 133.5l2 83l-5 261h185l-8 -319q-1 -32 13 -45.5t49 -13.5t49.5 13.5t13.5 45.5l-8 319h188l-6 -260zM393 693q0 -55 -29 -84.5t-85 -29.5q-106 0 -106 107q0 111 114 111q106 0 106 -104zM255.5 712.5
q-7.5 -6.5 -7.5 -23.5q0 -19 8 -26.5t28 -7.5q19 0 26.5 7t7.5 24q0 18 -8 25.5t-28 7.5q-19 0 -26.5 -6.5z" />
    <glyph glyph-name="Uhungarumlaut" unicode="&#x170;" 
d="M599 216q-1 -110 -74 -169t-209 -59q-131 0 -200.5 59t-66.5 169l3 103l-6 328h201l-9 -404q-1 -51 19.5 -74t66.5 -23q47 0 68 23t20 74l-9 404h204l-7 -328zM260 906l14 4l90 -58l3 -14q-63 -63 -131 -122l-16 -5l-59 46q68 98 99 149zM353 791q36 53 76 115l13 4
l91 -58l3 -14q-69 -67 -132 -122l-15 -5l-59 46z" />
    <glyph glyph-name="uhungarumlaut" unicode="&#x171;" horiz-adv-x="566" 
d="M517 169q-1 -87 -64 -133.5t-180 -46.5q-113 0 -172 46.5t-56 133.5l2 83l-5 261h185l-8 -319q-1 -32 13 -45.5t49 -13.5t49.5 13.5t13.5 45.5l-8 319h188l-6 -260zM234 800l13 4l90 -63l3 -14q-62 -73 -145 -159l-15 -5l-58 46q59 95 112 191zM399 800l13 4l90 -63
l3 -14q-62 -73 -145 -159l-15 -5l-58 46q59 95 112 191z" />
    <glyph glyph-name="Uogonek" unicode="&#x172;" 
d="M600 319l-1 -103q0 -109 -74 -169l-44 -69q-16 -24 -16 -44q0 -33 36 -33q29 0 61 20h10l12 -72q-60 -46 -111 -46q-48 0 -76 27.5t-28 69.5q0 45 33 91l3 5q-43 -8 -89 -8q-131 0 -200.5 59t-66.5 169l3 103l-6 328h201l-9 -404q-1 -51 19.5 -74t66.5 -23q47 0 68 23
t20 74l-9 404h204z" />
    <glyph glyph-name="uogonek" unicode="&#x173;" horiz-adv-x="566" 
d="M518 253l-1 -84q-2 -106 -92 -150l-28 -43q-16 -24 -16 -44q0 -33 36 -33q29 0 61 20h10l12 -72q-60 -46 -111 -46q-48 0 -76 27.5t-28 69.5q0 47 33 91l2 2q-30 -2 -47 -2q-113 0 -172 46.5t-56 133.5l2 83l-5 261h185l-8 -319q-1 -32 13 -45.5t49 -13.5t49.5 13.5
t13.5 45.5l-8 319h188z" />
    <glyph glyph-name="Wcircumflex" unicode="&#x174;" horiz-adv-x="914" 
d="M434 916h34q63 -57 153 -119l-34 -76h-18l-118 60l-118 -60h-18l-34 76q90 62 153 119zM511 0l-61 234h-12l-56 -234h-213l-152 647h194l10 -100l63 -346h12l75 295l-34 151h202l14 -120l68 -326h12l79 334l18 112h184l-191 -647h-212z" />
    <glyph glyph-name="wcircumflex" unicode="&#x175;" horiz-adv-x="780" 
d="M358 793h34q70 -70 163 -150l-47 -72h-18q-76 48 -115 78q-39 -30 -115 -78h-18l-47 72q69 58 163 150zM424 0l-39 150h-11l-34 -150h-201l-118 513h183l8 -89l36 -236h11l51 209l-25 116h191l12 -109l41 -216h11l49 225l16 100h173l-153 -513h-201z" />
    <glyph glyph-name="Ycircumflex" unicode="&#x176;" horiz-adv-x="594" 
d="M127 797q90 62 153 119h34q63 -57 153 -119l-34 -76h-18l-118 60l-118 -60h-18zM390 0h-200l10 170l-1 31l-207 446h210l16 -54l73 -195h12l84 188l23 61h204l-230 -439l-2 -38z" />
    <glyph glyph-name="ycircumflex" unicode="&#x177;" horiz-adv-x="525" 
d="M89 643q69 58 163 150h34q70 -70 163 -150l-47 -72h-18q-76 48 -115 78q-39 -30 -115 -78h-18zM348 0h-185l9 131l-1 17l-174 365h194l14 -47l52 -133h10l61 126l20 54h189l-196 -360l-1 -22z" />
    <glyph glyph-name="Ydieresis" unicode="&#x178;" horiz-adv-x="594" 
d="M137 740.5q-21 21.5 -21 61.5q0 42 24 66t65 24q38 0 59.5 -21.5t21.5 -60.5q0 -42 -23.5 -66.5t-64.5 -24.5q-40 0 -61 21.5zM330 740.5q-21 21.5 -21 61.5q0 42 24 66t65 24q38 0 59.5 -21.5t21.5 -60.5q0 -42 -23.5 -66.5t-64.5 -24.5q-40 0 -61 21.5zM390 0h-200
l10 170l-1 31l-207 446h210l16 -54l73 -195h12l84 188l23 61h204l-230 -439l-2 -38z" />
    <glyph glyph-name="Zacute" unicode="&#x179;" horiz-adv-x="570" 
d="M263 148h161l123 9l6 -9l-16 -153l-178 5h-230l-101 -6v143l280 362h-157l-120 -10l-7 8l14 153l150 -3h274l76 1v-144zM447 797l-6 -16q-132 -42 -238 -69l-17 4l-30 79q118 60 225 123l17 -4z" />
    <glyph glyph-name="zacute" unicode="&#x17a;" horiz-adv-x="499" 
d="M249 136h117l108 8l5 -7l-14 -142l-160 5h-185l-90 -5v131l221 250h-114l-107 -9l-6 7l13 141l134 -2h295v-132zM400 688l-3 -17q-142 -72 -223 -109l-17 1l-44 72q102 76 201 161l17 -1z" />
    <glyph glyph-name="Zdotaccent" unicode="&#x17b;" horiz-adv-x="570" 
d="M357.5 878q24.5 -25 24.5 -70q0 -48 -27 -76t-74 -28q-46 0 -70 24.5t-24 70.5q0 48 27.5 76t74.5 28q44 0 68.5 -25zM263 148h161l123 9l6 -9l-16 -153l-178 5h-230l-101 -6v143l280 362h-157l-120 -10l-7 8l14 153l150 -3h274l76 1v-144z" />
    <glyph glyph-name="zdotaccent" unicode="&#x17c;" horiz-adv-x="499" 
d="M309.5 744q24.5 -25 24.5 -70q0 -48 -27 -76t-74 -28q-46 0 -70 24.5t-24 70.5q0 48 27.5 76t74.5 28q44 0 68.5 -25zM249 136h117l108 8l5 -7l-14 -142l-160 5h-185l-90 -5v131l221 250h-114l-107 -9l-6 7l13 141l134 -2h295v-132z" />
    <glyph glyph-name="Zcaron" unicode="&#x17d;" horiz-adv-x="570" 
d="M263 148h161l123 9l6 -9l-16 -153l-178 5h-230l-101 -6v143l280 362h-157l-120 -10l-7 8l14 153l150 -3h274l76 1v-144zM302 712h-34q-63 57 -153 119l34 76h18l118 -60l118 60h18l34 -76q-90 -62 -153 -119z" />
    <glyph glyph-name="zcaron" unicode="&#x17e;" horiz-adv-x="499" 
d="M249 136h117l108 8l5 -7l-14 -142l-160 5h-185l-90 -5v131l221 250h-114l-107 -9l-6 7l13 141l134 -2h295v-132zM254 567h-34q-70 70 -163 150l47 72h18q76 -48 115 -78q39 30 115 78h18l47 -72q-69 -58 -163 -150z" />
    <glyph glyph-name="florin" unicode="&#x192;" horiz-adv-x="361" 
d="M448 617l-27 -131l-13 -8q-54 22 -84 22q-40 0 -47 -39l-9 -64h91l4 -10l-10 -97h-100l-15 -104l-13 -122q-9 -76 -46.5 -126.5t-117.5 -88.5l-80 79l2 14q33 19 50 46.5t24 71.5l13 107l12 123h-66l-4 9l11 98h71l4 32q12 95 80.5 146t180.5 51q43 0 89 -9z" />
    <glyph glyph-name="Ohorn" unicode="&#x1a0;" horiz-adv-x="661" 
d="M672.5 760q23.5 -29 23.5 -74q0 -52 -33 -90t-84 -50q57 -82 57 -210q0 -108 -38 -186t-110 -120t-173 -42q-143 0 -220.5 84.5t-77.5 238.5q0 109 38.5 187.5t107.5 119.5t159 41q49 0 121 -18q42 -10 56 -10q46 0 46 45q0 36 -29 62l3 14q51 37 93 37q37 0 60.5 -29z
M262.5 484.5q-19.5 -14.5 -27.5 -50.5t-8 -106q0 -77 9.5 -117.5t32 -57.5t64.5 -17q38 0 57.5 14t27.5 50.5t8 107.5q0 77 -9 117.5t-31.5 57t-64.5 16.5q-39 0 -58.5 -14.5z" />
    <glyph glyph-name="ohorn" unicode="&#x1a1;" horiz-adv-x="572" 
d="M526 629q33 0 54 -24t21 -61q0 -43 -27.5 -75t-71.5 -44q44 -63 44 -158q0 -130 -72.5 -204t-201.5 -74q-122 0 -188 67t-66 189q0 87 33 149.5t91.5 95.5t134.5 33q48 0 102 -14q33 -7 47 -7q35 0 35 33q0 29 -24 47l3 13q49 34 86 34zM330 133.5q13 7.5 17.5 31
t4.5 76.5q0 58 -6 86t-21.5 38.5t-47.5 10.5q-29 0 -42 -8.5t-18 -32t-5 -74.5q0 -58 6 -86t22 -38.5t49 -10.5q28 0 41 7.5z" />
    <glyph glyph-name="Uhorn" unicode="&#x1af;" horiz-adv-x="663" 
d="M679.5 635.5q-26.5 -35.5 -73.5 -57.5l-6 -259l-1 -103q-1 -110 -74 -169t-209 -59q-131 0 -200.5 59t-66.5 169l3 103l-6 328h201l-9 -404q-1 -51 19.5 -74t66.5 -23q47 0 68 23t20 74l-9 404h95q31 0 44 11t13 37q0 35 -29 59l3 14q52 37 94 37q36 0 59.5 -26t23.5 -66
q0 -42 -26.5 -77.5z" />
    <glyph glyph-name="uhorn" unicode="&#x1b0;" horiz-adv-x="576" 
d="M585 499.5q-25 -31.5 -67 -50.5l-5 -196l-1 -84q-1 -87 -64 -133.5t-180 -46.5q-113 0 -172 46.5t-56 133.5l2 83l-5 261h185l-8 -319q-1 -32 13 -45.5t49 -13.5t49.5 13.5t13.5 45.5l-8 319h93q25 0 35.5 8.5t10.5 28.5q0 30 -24 46l3 13q49 34 87 34q33 0 53.5 -21.5
t20.5 -54.5q0 -36 -25 -67.5z" />
    <glyph glyph-name="Acaron" unicode="&#x1cd;" horiz-adv-x="627" 
d="M414 0l-18 107l-1 3l-98 2l-82 -4l-17 -108h-196l196 647h242l177 -647h-203zM321 468h-12l-56 -212l56 -1l56 1zM332 712h-34q-63 57 -153 119l34 76h18l118 -60l118 60h18l34 -76q-90 -62 -153 -119z" />
    <glyph glyph-name="acaron" unicode="&#x1ce;" horiz-adv-x="549" 
d="M335 71l-76 2l-60 -3l-11 -70h-181l159 513h224l144 -513h-188zM309 206l-29 143h-11l-38 -143l39 -1zM299 567h-34q-70 70 -163 150l47 72h18q76 -48 115 -78q39 30 115 78h18l47 -72q-69 -58 -163 -150z" />
    <glyph glyph-name="Icaron" unicode="&#x1cf;" horiz-adv-x="327" 
d="M261 0h-201l10 190l-10 457h204l-11 -437zM179 712h-34q-63 57 -153 119l34 76h18l118 -60l118 60h18l34 -76q-90 -62 -153 -119z" />
    <glyph glyph-name="icaron" unicode="&#x1d0;" horiz-adv-x="303" 
d="M239 0h-186l9 149l-9 364h189l-11 -345zM170 567h-34q-70 70 -163 150l47 72h18q76 -48 115 -78q39 30 115 78h18l47 -72q-69 -58 -163 -150z" />
    <glyph glyph-name="Ocaron" unicode="&#x1d1;" 
d="M559 575.5q77 -83.5 77 -235.5q0 -168 -84.5 -260t-239.5 -92q-141 0 -218 84.5t-77 239.5q0 166 84.5 256.5t239.5 90.5q141 0 218 -83.5zM264 485.5q-20 -13.5 -28.5 -47.5t-8.5 -99q0 -83 9 -126t30.5 -60t63.5 -17q39 0 59 13.5t28.5 48t8.5 99.5q0 82 -9 125
t-30.5 60t-63.5 17q-39 0 -59 -13.5zM344 712h-34q-63 57 -153 119l34 76h18l118 -60l118 60h18l34 -76q-90 -62 -153 -119z" />
    <glyph glyph-name="ocaron" unicode="&#x1d2;" horiz-adv-x="565" 
d="M480.5 457q65.5 -66 65.5 -187q0 -134 -72.5 -207.5t-204.5 -73.5q-120 0 -185.5 67.5t-65.5 189.5q0 132 72.5 204.5t204.5 72.5q120 0 185.5 -66zM236.5 368.5q-13.5 -7.5 -19 -29.5t-5.5 -68q0 -63 6 -93t21 -41t47 -11q29 0 42.5 7.5t18.5 29t5 67.5q0 64 -5.5 94
t-21 41t-47.5 11q-28 0 -41.5 -7.5zM301 567h-34q-70 70 -163 150l47 72h18q76 -48 115 -78q39 30 115 78h18l47 -72q-69 -58 -163 -150z" />
    <glyph glyph-name="Ucaron" unicode="&#x1d3;" 
d="M599 216q-1 -110 -74 -169t-209 -59q-131 0 -200.5 59t-66.5 169l3 103l-6 328h201l-9 -404q-1 -51 19.5 -74t66.5 -23q47 0 68 23t20 74l-9 404h204l-7 -328zM344 701h-34q-70 70 -163 150l47 72h18q76 -48 115 -78q39 30 115 78h18l47 -72q-69 -58 -163 -150z" />
    <glyph glyph-name="ucaron" unicode="&#x1d4;" horiz-adv-x="566" 
d="M517 169q-1 -87 -64 -133.5t-180 -46.5q-113 0 -172 46.5t-56 133.5l2 83l-5 261h185l-8 -319q-1 -32 13 -45.5t49 -13.5t49.5 13.5t13.5 45.5l-8 319h188l-6 -260zM300 567h-34q-70 70 -163 150l47 72h18q76 -48 115 -78q39 30 115 78h18l47 -72q-69 -58 -163 -150z" />
    <glyph glyph-name="Udieresismacron" unicode="&#x1d5;" 
d="M599 216q-1 -110 -74 -169t-209 -59q-131 0 -200.5 59t-66.5 169l3 103l-6 328h201l-9 -404q-1 -51 19.5 -74t66.5 -23q47 0 68 23t20 74l-9 404h204l-7 -328zM481 919h-303l-13 13l10 107h303l13 -13zM294 850.5q21 -21.5 21 -60.5q0 -42 -23.5 -66.5t-63.5 -24.5
t-61 21.5t-21 61.5q0 41 24 65.5t65 24.5q38 0 59 -21.5zM487 850.5q21 -21.5 21 -60.5q0 -42 -23.5 -66.5t-63.5 -24.5t-61 21.5t-21 61.5q0 41 24 65.5t65 24.5q38 0 59 -21.5z" />
    <glyph glyph-name="udieresismacron" unicode="&#x1d6;" horiz-adv-x="566" 
d="M517 169q-1 -87 -64 -133.5t-180 -46.5q-113 0 -172 46.5t-56 133.5l2 83l-5 261h185l-8 -319q-1 -32 13 -45.5t49 -13.5t49.5 13.5t13.5 45.5l-8 319h188l-6 -260zM437 785h-303l-13 13l10 107h303l13 -13zM250 716.5q21 -21.5 21 -60.5q0 -42 -23.5 -66.5t-63.5 -24.5
t-61 21.5t-21 61.5q0 41 24 65.5t65 24.5q38 0 59 -21.5zM443 716.5q21 -21.5 21 -60.5q0 -42 -23.5 -66.5t-63.5 -24.5t-61 21.5t-21 61.5q0 41 24 65.5t65 24.5q38 0 59 -21.5z" />
    <glyph glyph-name="Udieresisacute" unicode="&#x1d7;" 
d="M599 216q-1 -110 -74 -169t-209 -59q-131 0 -200.5 59t-66.5 169l3 103l-6 328h201l-9 -404q-1 -51 19.5 -74t66.5 -23q47 0 68 23t20 74l-9 404h204l-7 -328zM465 952l-9 -15q-154 -19 -246 -26l-16 7l-16 83q130 39 243 82l16 -7zM294 850.5q21 -21.5 21 -60.5
q0 -42 -23.5 -66.5t-63.5 -24.5t-61 21.5t-21 61.5q0 41 24 65.5t65 24.5q38 0 59 -21.5zM487 850.5q21 -21.5 21 -60.5q0 -42 -23.5 -66.5t-63.5 -24.5t-61 21.5t-21 61.5q0 41 24 65.5t65 24.5q38 0 59 -21.5z" />
    <glyph glyph-name="udieresisacute" unicode="&#x1d8;" horiz-adv-x="566" 
d="M517 169q-1 -87 -64 -133.5t-180 -46.5q-113 0 -172 46.5t-56 133.5l2 83l-5 261h185l-8 -319q-1 -32 13 -45.5t49 -13.5t49.5 13.5t13.5 45.5l-8 319h188l-6 -260zM421 818l-9 -15q-154 -19 -246 -26l-16 7l-16 83q130 39 243 82l16 -7zM250 716.5q21 -21.5 21 -60.5
q0 -42 -23.5 -66.5t-63.5 -24.5t-61 21.5t-21 61.5q0 41 24 65.5t65 24.5q38 0 59 -21.5zM443 716.5q21 -21.5 21 -60.5q0 -42 -23.5 -66.5t-63.5 -24.5t-61 21.5t-21 61.5q0 41 24 65.5t65 24.5q38 0 59 -21.5z" />
    <glyph glyph-name="Udieresiscaron" unicode="&#x1d9;" 
d="M599 216q-1 -110 -74 -169t-209 -59q-131 0 -200.5 59t-66.5 169l3 103l-6 328h201l-9 -404q-1 -51 19.5 -74t66.5 -23q47 0 68 23t20 74l-9 404h204l-7 -328zM343 875h-34q-63 57 -153 119l34 76h18l118 -60l118 60h18l34 -76q-90 -62 -153 -119zM294 850.5
q21 -21.5 21 -60.5q0 -42 -23.5 -66.5t-63.5 -24.5t-61 21.5t-21 61.5q0 41 24 65.5t65 24.5q38 0 59 -21.5zM487 850.5q21 -21.5 21 -60.5q0 -42 -23.5 -66.5t-63.5 -24.5t-61 21.5t-21 61.5q0 41 24 65.5t65 24.5q38 0 59 -21.5z" />
    <glyph glyph-name="udieresiscaron" unicode="&#x1da;" horiz-adv-x="566" 
d="M517 169q-1 -87 -64 -133.5t-180 -46.5q-113 0 -172 46.5t-56 133.5l2 83l-5 261h185l-8 -319q-1 -32 13 -45.5t49 -13.5t49.5 13.5t13.5 45.5l-8 319h188l-6 -260zM299 741h-34q-63 57 -153 119l34 76h18l118 -60l118 60h18l34 -76q-90 -62 -153 -119zM250 716.5
q21 -21.5 21 -60.5q0 -42 -23.5 -66.5t-63.5 -24.5t-61 21.5t-21 61.5q0 41 24 65.5t65 24.5q38 0 59 -21.5zM443 716.5q21 -21.5 21 -60.5q0 -42 -23.5 -66.5t-63.5 -24.5t-61 21.5t-21 61.5q0 41 24 65.5t65 24.5q38 0 59 -21.5z" />
    <glyph glyph-name="Udieresisgrave" unicode="&#x1db;" 
d="M599 216q-1 -110 -74 -169t-209 -59q-131 0 -200.5 59t-66.5 169l3 103l-6 328h201l-9 -404q-1 -51 19.5 -74t66.5 -23q47 0 68 23t20 74l-9 404h204l-7 -328zM465 1001l-16 -83l-16 -7q-92 7 -246 26l-9 15l28 124l16 7q113 -43 243 -82zM294 850.5q21 -21.5 21 -60.5
q0 -42 -23.5 -66.5t-63.5 -24.5t-61 21.5t-21 61.5q0 41 24 65.5t65 24.5q38 0 59 -21.5zM487 850.5q21 -21.5 21 -60.5q0 -42 -23.5 -66.5t-63.5 -24.5t-61 21.5t-21 61.5q0 41 24 65.5t65 24.5q38 0 59 -21.5z" />
    <glyph glyph-name="udieresisgrave" unicode="&#x1dc;" horiz-adv-x="566" 
d="M517 169q-1 -87 -64 -133.5t-180 -46.5q-113 0 -172 46.5t-56 133.5l2 83l-5 261h185l-8 -319q-1 -32 13 -45.5t49 -13.5t49.5 13.5t13.5 45.5l-8 319h188l-6 -260zM421 867l-16 -83l-16 -7q-92 7 -246 26l-9 15l28 124l16 7q113 -43 243 -82zM250 716.5
q21 -21.5 21 -60.5q0 -42 -23.5 -66.5t-63.5 -24.5t-61 21.5t-21 61.5q0 41 24 65.5t65 24.5q38 0 59 -21.5zM443 716.5q21 -21.5 21 -60.5q0 -42 -23.5 -66.5t-63.5 -24.5t-61 21.5t-21 61.5q0 41 24 65.5t65 24.5q38 0 59 -21.5z" />
    <glyph glyph-name="Oogonek" unicode="&#x1ea;" 
d="M407 -66q0 -33 36 -33q29 0 61 20h10l12 -72q-60 -46 -111 -46q-48 0 -76 27.5t-28 69.5q0 45 32 89q-10 -1 -31 -1q-141 0 -218 84.5t-77 239.5q0 166 84.5 256.5t239.5 90.5q141 0 218 -83.5t77 -235.5q0 -128 -49.5 -212.5t-142.5 -118.5l-21 -31q-16 -24 -16 -44z
M236 213q9 -43 30.5 -60t63.5 -17q39 0 59 13.5t28.5 48t8.5 99.5q0 82 -9 125t-30.5 60t-63.5 17q-39 0 -59 -13.5t-28.5 -47.5t-8.5 -99q0 -83 9 -126z" />
    <glyph glyph-name="oogonek" unicode="&#x1eb;" horiz-adv-x="565" 
d="M327 -66q0 -33 36 -33q29 0 61 20h10l12 -72q-60 -46 -111 -46q-48 0 -76 27.5t-28 69.5q0 45 32 89q-117 2 -181 69t-64 188q0 132 72.5 204.5t204.5 72.5q120 0 185.5 -66t65.5 -187q0 -109 -49 -178.5t-140 -92.5l-14 -21q-16 -24 -16 -44zM218 178q6 -30 21 -41
t47 -11q29 0 42.5 7.5t18.5 29t5 67.5q0 64 -5.5 94t-21 41t-47.5 11q-28 0 -41.5 -7.5t-19 -29.5t-5.5 -68q0 -63 6 -93z" />
    <glyph glyph-name="Aringacute" unicode="&#x1fa;" horiz-adv-x="627" 
d="M200 889q117 40 240 91l16 -6l32 -123l-8 -15q-130 -22 -245 -35l-17 6zM414 0l-18 103l-1 3l-98 2l-82 -4l-17 -104h-196l212 641q-4 15 -4 37q0 111 114 111q106 0 106 -104q0 -23 -6 -43l193 -642h-203zM292.5 704.5q-7.5 -6.5 -7.5 -23.5q0 -19 8 -26.5t28 -7.5
q19 0 26.5 7t7.5 24q0 18 -8 25.5t-28 7.5q-19 0 -26.5 -6.5zM321 450h-12l-56 -203l56 -1l56 1z" />
    <glyph glyph-name="aringacute" unicode="&#x1fb;" horiz-adv-x="549" 
d="M163 896q117 40 240 91l16 -6l32 -123l-8 -15q-130 -22 -245 -35l-17 6zM287 796q106 0 106 -104q0 -55 -29 -84.5t-85 -29.5q-106 0 -106 107q0 111 114 111zM310 710.5q-8 7.5 -28 7.5q-19 0 -26.5 -6.5t-7.5 -23.5q0 -19 8 -26.5t28 -7.5q19 0 26.5 7t7.5 24
q0 18 -8 25.5zM335 71l-76 2l-60 -3l-11 -70h-181l159 513h224l144 -513h-188zM309 206l-29 143h-11l-38 -143l39 -1z" />
    <glyph glyph-name="AEacute" unicode="&#x1fc;" horiz-adv-x="840" 
d="M828 0h-436l-5 107l-5 66l-171 -52l-1 -2l-34 -119h-196l276 647h520l11 -14l-13 -146l-149 6h-76l8 -114l169 54l14 -11l18 -138l-190 -55l5 -75h91l165 6l11 -14zM357 468h-12l-67 -174l91 28zM669 797l-6 -16q-132 -42 -238 -69l-17 4l-30 79q118 60 225 123l17 -4z
" />
    <glyph glyph-name="aeacute" unicode="&#x1fd;" horiz-adv-x="724" 
d="M712 0h-370l-4 88l-4 44l-156 -46l-24 -86h-165l238 512h440l10 -13l-11 -122l-129 6h-64l7 -81l146 44l11 -10l15 -115l-162 -44l4 -48h78l141 5l10 -12zM312 362h-11l-58 -130l79 24zM588 686l-3 -17q-142 -72 -223 -109l-17 1l-44 72q102 76 201 161l17 -1z" />
    <glyph glyph-name="Oslashacute" unicode="&#x1fe;" 
d="M636 340q0 -168 -84.5 -260t-239.5 -92q-29 0 -61 5l-64 -132l-124 47l-8 17l62 126q-100 85 -100 261q0 166 84.5 256.5t239.5 90.5q38 0 72 -6l62 126l120 -46l12 -19l-62 -124q91 -85 91 -250zM389 149.5q20 13.5 28.5 48t8.5 99.5q0 82 -9 125t-30.5 60t-63.5 17
q-39 0 -59 -13.5t-28.5 -47.5t-8.5 -99q0 -83 9 -126t30.5 -60t63.5 -17q39 0 59 13.5zM489 800l-6 -16q-132 -42 -238 -69l-17 4l-30 79q118 60 225 123l17 -4z" />
    <glyph glyph-name="oslashacute" unicode="&#x1ff;" horiz-adv-x="565" 
d="M546 270q0 -134 -72.5 -207.5t-204.5 -73.5q-33 0 -57 4l-74 -121l-110 56l-4 16l65 107q-71 68 -71 195q0 132 72.5 204.5t204.5 72.5q40 0 77 -8l61 99l105 -55l9 -17l-58 -94q57 -66 57 -178zM328.5 133.5q13.5 7.5 18.5 29t5 67.5q0 64 -5.5 94t-21 41t-47.5 11
q-28 0 -41.5 -7.5t-19 -29.5t-5.5 -68q0 -63 6 -93t21 -41t47 -11q29 0 42.5 7.5zM439 690l-3 -17q-142 -72 -223 -109l-17 1l-44 72q102 76 201 161l17 -1z" />
    <glyph glyph-name="Scommaaccent" unicode="&#x218;" horiz-adv-x="528" 
d="M493 624l-32 -163l-28 -12q-42 26 -83 41t-66 15q-23 0 -36.5 -9t-13.5 -24q0 -19 20.5 -32.5t68.5 -35.5q56 -25 92 -46.5t63 -59t27 -92.5q0 -61 -33.5 -110.5t-95.5 -78.5t-144 -29q-102 0 -214 38l29 174l20 12q46 -35 98.5 -55.5t87.5 -20.5q53 0 53 33
q0 21 -21.5 35.5t-69.5 35.5q-55 24 -90.5 45.5t-61.5 59t-26 92.5q0 63 34 113.5t95 79.5t139 29q95 0 188 -35zM348 -116q0 -50 -31.5 -95.5t-98.5 -92.5l-52 46l-2 12q48 42 48 93q0 36 -28 64v14q61 35 123 50q41 -40 41 -91z" />
    <glyph glyph-name="scommaaccent" unicode="&#x219;" horiz-adv-x="469" 
d="M427 496l-27 -154l-26 -7q-35 23 -72.5 37t-58.5 14t-21 -13t14.5 -21t48.5 -21q45 -16 75.5 -32.5t53 -48t22.5 -80.5q0 -48 -23.5 -89t-75.5 -67t-132 -26q-90 0 -181 28l27 161l17 13q39 -31 85 -51t76 -20q24 0 24 16q0 12 -13.5 19.5t-47.5 20.5q-45 16 -76 33
t-54 49.5t-23 82.5q0 52 27 93.5t79 65.5t124 24q81 0 158 -27zM306 -116q0 -50 -31.5 -95.5t-98.5 -92.5l-52 46l-2 12q48 42 48 93q0 36 -28 64v14q61 35 123 50q41 -40 41 -91z" />
    <glyph glyph-name="uni021A" unicode="&#x21a;" horiz-adv-x="519" 
d="M502 487l-132 6h-12l-5 -283l8 -210h-200l10 190l-5 303h-13l-133 -6l-12 14l11 146h483l11 -14zM354 -116q0 -50 -31.5 -95.5t-98.5 -92.5l-52 46l-2 12q48 42 48 93q0 36 -28 64v14q61 35 123 50q41 -40 41 -91z" />
    <glyph glyph-name="uni021B" unicode="&#x21b;" horiz-adv-x="457" 
d="M434 365l-113 6h-3l-4 -203l7 -168h-185l9 149l-4 222h-4l-114 -6l-11 13l10 135h412l10 -13zM322 -116q0 -50 -31.5 -95.5t-98.5 -92.5l-52 46l-2 12q48 42 48 93q0 36 -28 64v14q61 35 123 50q41 -40 41 -91z" />
    <glyph glyph-name="dotlessj" unicode="&#x237;" horiz-adv-x="346" 
d="M278 99q0 -51 -18.5 -86t-61 -61.5t-117.5 -50.5l-51 93v14q43 17 59.5 37t16.5 53v52l-5 227l-78 -2l-10 11l11 127h261l-9 -345z" />
    <glyph glyph-name="circumflex" unicode="&#x2c6;" horiz-adv-x="388" 
d="M176 752h34q70 -70 163 -150l-47 -72h-18q-76 48 -115 78q-39 -30 -115 -78h-18l-47 72q69 58 163 150z" />
    <glyph glyph-name="caron" unicode="&#x2c7;" horiz-adv-x="388" 
d="M210 526h-34q-70 70 -163 150l47 72h18q76 -48 115 -78q39 30 115 78h18l47 -72q-69 -58 -163 -150z" />
    <glyph glyph-name="firsttonechinese" unicode="&#x2c9;" horiz-adv-x="388" 
d="M334 571h-276l-12 13l9 107h276l12 -13z" />
    <glyph glyph-name="breve" unicode="&#x2d8;" horiz-adv-x="388" 
d="M307 574q-46 -39 -118 -39q-71 0 -113.5 39.5t-59.5 96.5l40 62h27q16 -30 45.5 -46.5t66.5 -16.5t66.5 16.5t43.5 46.5h27l40 -62q-19 -58 -65 -97z" />
    <glyph glyph-name="dotaccent" unicode="&#x2d9;" horiz-adv-x="269" 
d="M207.5 703q24.5 -25 24.5 -70q0 -48 -27 -76t-74 -28q-46 0 -70 24.5t-24 70.5q0 48 27.5 76t74.5 28q44 0 68.5 -25z" />
    <glyph glyph-name="ring" unicode="&#x2da;" horiz-adv-x="388" 
d="M304 652q0 -55 -29 -84.5t-85 -29.5q-106 0 -106 107q0 111 114 111q106 0 106 -104zM166.5 671.5q-7.5 -6.5 -7.5 -23.5q0 -19 8 -26.5t28 -7.5q19 0 26.5 7t7.5 24q0 18 -8 25.5t-28 7.5q-19 0 -26.5 -6.5z" />
    <glyph glyph-name="ogonek" unicode="&#x2db;" horiz-adv-x="388" 
d="M174 -66q0 -33 36 -33q29 0 61 20h10l12 -72q-60 -46 -111 -46q-48 0 -76 27.5t-28 69.5q0 47 33 91l68 91h80l-69 -104q-16 -24 -16 -44z" />
    <glyph glyph-name="tilde" unicode="&#x2dc;" horiz-adv-x="388" 
d="M389 670l-81 -113l-16 -6q-27 3 -86 20q-58 14 -67 14q-17 0 -30 -13t-39 -45h-16l-57 55v16l81 113l16 6q27 -3 86 -20q58 -14 67 -14q17 0 30 13t39 45h16l57 -55v-16z" />
    <glyph glyph-name="hungarumlaut" unicode="&#x2dd;" horiz-adv-x="388" 
d="M115 759l13 4l90 -63l3 -14q-62 -73 -145 -159l-15 -5l-58 46q59 95 112 191zM280 759l13 4l90 -63l3 -14q-62 -73 -145 -159l-15 -5l-58 46q59 95 112 191z" />
    <glyph glyph-name="tildecomb" unicode="&#x303;" horiz-adv-x="0" 
d="M389 670l-81 -113l-16 -6q-27 3 -86 20q-58 14 -67 14q-17 0 -30 -13t-39 -45h-16l-57 55v16l81 113l16 6q27 -3 86 -20q58 -14 67 -14q17 0 30 13t39 45h16l57 -55v-16z" />
    <glyph glyph-name="dotbelowcomb" unicode="&#x323;" horiz-adv-x="0" 
d="M192.5 -57q24.5 -25 24.5 -70q0 -48 -27 -76t-74 -28q-46 0 -70 24.5t-24 70.5q0 48 27.5 76t74.5 28q44 0 68.5 -25z" />
    <glyph glyph-name="commaaccentcomb" unicode="&#x326;" horiz-adv-x="0" 
d="M193.112 -90.0117q0 -49.7051 -31.709 -95.5547t-98.5547 -92.127l-52.2764 45.4209l-1.71387 11.998q47.9912 41.9922 47.9912 93.4121q0 35.9941 -28.2803 64.2744l0.856445 13.7119q61.7041 34.2803 122.551 49.7061q41.1357 -38.5645 41.1357 -90.8418z" />
    <glyph glyph-name="Delta" unicode="&#x394;" horiz-adv-x="627" 
d="M2 0l196 647h242l177 -647h-615zM224 145h164l-67 323h-12z" />
    <glyph glyph-name="Omega" unicode="&#x3a9;" horiz-adv-x="765" 
d="M612 587q79 -72 79 -198q0 -62 -20.5 -118.5t-66.5 -117.5l3 -5h51l87 10l10 -12l-22 -154l-134 8h-152l-36 -3l-9 7v108q43 52 61 104.5t18 126.5q0 85 -23.5 120.5t-79.5 35.5q-53 0 -74.5 -33t-21.5 -113q0 -76 18.5 -131t60.5 -110v-108l-9 -7l-36 3h-186l-110 -6
l-10 12l22 149l98 -8l26 1l3 5q-47 60 -67 113.5t-20 111.5q0 85 37 148.5t108.5 98t170.5 34.5q145 0 224 -72z" />
    <glyph glyph-name="mu" unicode="&#x3bc;" horiz-adv-x="535" 
d="M506 20q-40 -29 -87 -29q-40 0 -65 18t-42 59h-7q-41 -56 -82 -73v-180h-184l6 375l-7 271l185 13v-271q0 -30 10 -42.5t31 -12.5q23 0 43 15v298l185 13l-11 -323q0 -23 16 -23q5 0 16 3l12 -10z" />
    <glyph glyph-name="pi" unicode="&#x3c0;" horiz-adv-x="723" 
d="M599 151q0 -23 16 -23q5 0 27 4l12 -10l-20 -102q-55 -29 -87 -29q-53 0 -87.5 30.5t-34.5 100.5v236h-84v-148l6 -295h-190l6 275l-4 167q-17 -3 -32.5 -17.5t-37.5 -42.5q-16 -20 -25 -30h-19l-58 73v19l106 143l19 10h441l116 3l11 -14l-12 -146l-62 1z" />
    <glyph glyph-name="Wgrave" unicode="&#x1e80;" horiz-adv-x="914" 
d="M600 795l-30 -79l-17 -4q-106 27 -238 69l-6 16l49 117l17 4q107 -63 225 -123zM511 0l-61 234h-12l-56 -234h-213l-152 647h194l10 -100l63 -346h12l75 295l-34 151h202l14 -120l68 -326h12l79 334l18 112h184l-191 -647h-212z" />
    <glyph glyph-name="wgrave" unicode="&#x1e81;" horiz-adv-x="780" 
d="M519 635l-44 -72l-17 -1q-81 37 -223 109l-3 17l69 107l17 1q99 -85 201 -161zM424 0l-39 150h-11l-34 -150h-201l-118 513h183l8 -89l36 -236h11l51 209l-25 116h191l12 -109l41 -216h11l49 225l16 100h173l-153 -513h-201z" />
    <glyph glyph-name="Wacute" unicode="&#x1e82;" horiz-adv-x="914" 
d="M511 0l-61 234h-12l-56 -234h-213l-152 647h194l10 -100l63 -346h12l75 295l-34 151h202l14 -120l68 -326h12l79 334l18 112h184l-191 -647h-212zM613 797l-6 -16q-132 -42 -238 -69l-17 4l-30 79q118 60 225 123l17 -4z" />
    <glyph glyph-name="wacute" unicode="&#x1e83;" horiz-adv-x="780" 
d="M424 0l-39 150h-11l-34 -150h-201l-118 513h183l8 -89l36 -236h11l51 209l-25 116h191l12 -109l41 -216h11l49 225l16 100h173l-153 -513h-201zM538 688l-3 -17q-142 -72 -223 -109l-17 1l-44 72q102 76 201 161l17 -1z" />
    <glyph glyph-name="Wdieresis" unicode="&#x1e84;" horiz-adv-x="914" 
d="M418.5 870.5q21.5 -21.5 21.5 -60.5q0 -42 -23.5 -66.5t-64.5 -24.5q-40 0 -61 21.5t-21 61.5q0 42 24 66t65 24q38 0 59.5 -21.5zM611.5 870.5q21.5 -21.5 21.5 -60.5q0 -42 -23.5 -66.5t-64.5 -24.5q-40 0 -61 21.5t-21 61.5q0 42 24 66t65 24q38 0 59.5 -21.5zM511 0
l-61 234h-12l-56 -234h-213l-152 647h194l10 -100l63 -346h12l75 295l-34 151h202l14 -120l68 -326h12l79 334l18 112h184l-191 -647h-212z" />
    <glyph glyph-name="wdieresis" unicode="&#x1e85;" horiz-adv-x="780" 
d="M342.5 736.5q21.5 -21.5 21.5 -60.5q0 -42 -23.5 -66.5t-64.5 -24.5q-40 0 -61 21.5t-21 61.5q0 42 24 66t65 24q38 0 59.5 -21.5zM535.5 736.5q21.5 -21.5 21.5 -60.5q0 -42 -23.5 -66.5t-64.5 -24.5q-40 0 -61 21.5t-21 61.5q0 42 24 66t65 24q38 0 59.5 -21.5zM424 0
l-39 150h-11l-34 -150h-201l-118 513h183l8 -89l36 -236h11l51 209l-25 116h191l12 -109l41 -216h11l49 225l16 100h173l-153 -513h-201z" />
    <glyph glyph-name="uni1E9E" unicode="&#x1e9e;" horiz-adv-x="711" 
d="M500 641.5q65 -17.5 150 -55.5l8 -23l-117 -171l21 -16q59 -42 86.5 -66t42.5 -53.5t15 -71.5q0 -97 -69.5 -147t-174.5 -50q-96 0 -185 38l29 174l20 12q41 -36 80 -55.5t67 -19.5q34 0 34 25q0 20 -41.5 52t-154.5 94l-5 24l106 157q-36 12 -70 12q-54 0 -76.5 -22.5
t-21.5 -74.5l-5 -194l8 -210h-201l10 190l-5 214q0 119 79 187t231 68q74 0 139 -17.5z" />
    <glyph glyph-name="Adotbelow" unicode="&#x1ea0;" horiz-adv-x="627" 
d="M414 0l-18 107l-1 3l-98 2l-82 -4l-17 -108h-196l196 647h242l177 -647h-203zM321 468h-12l-56 -212l56 -1l56 1zM380.5 -57q24.5 -25 24.5 -70q0 -48 -27 -76t-74 -28q-46 0 -70 24.5t-24 70.5q0 48 27.5 76t74.5 28q44 0 68.5 -25z" />
    <glyph glyph-name="adotbelow" unicode="&#x1ea1;" horiz-adv-x="549" 
d="M7 0l159 513h224l144 -513h-188l-11 71l-76 2l-60 -3l-11 -70h-181zM231 206l39 -1l39 1l-29 143h-11zM341.5 -57q24.5 -25 24.5 -70q0 -48 -27 -76t-74 -28q-46 0 -70 24.5t-24 70.5q0 48 27.5 76t74.5 28q44 0 68.5 -25z" />
    <glyph glyph-name="Ahookabove" unicode="&#x1ea2;" horiz-adv-x="627" 
d="M414 0l-18 107l-1 3l-98 2l-82 -4l-17 -108h-196l196 647h242l177 -647h-203zM321 468h-12l-56 -212l56 -1l56 1zM372.5 923.5q28.5 -24.5 28.5 -63.5q0 -22 -13 -41t-48 -51l27 -43l-64 -39l-54 80q25 18 39.5 39t14.5 37q0 24 -30 24q-36 0 -70 -26l-29 47
q26 28 59.5 44.5t67.5 16.5q43 0 71.5 -24.5z" />
    <glyph glyph-name="ahookabove" unicode="&#x1ea3;" horiz-adv-x="549" 
d="M335 71l-76 2l-60 -3l-11 -70h-181l159 513h224l144 -513h-188zM309 206l-29 143h-11l-38 -143l39 -1zM339.5 789.5q28.5 -24.5 28.5 -63.5q0 -22 -13 -41t-48 -51l27 -43l-64 -39l-54 80q25 18 39.5 39t14.5 37q0 24 -30 24q-36 0 -70 -26l-29 47q26 28 59.5 44.5
t67.5 16.5q43 0 71.5 -24.5z" />
    <glyph glyph-name="Acircumflexacute" unicode="&#x1ea4;" horiz-adv-x="627" 
d="M414 0l-18 107l-1 3l-98 2l-82 -4l-17 -108h-196l196 647h242l177 -647h-203zM321 468h-12l-56 -212l56 -1l56 1zM558 998l-110 -149h-11l-64 47l70 149l12 7l98 -41zM297 896h34q63 -57 153 -119l-34 -76h-18l-118 60l-118 -60h-18l-34 76q90 62 153 119z" />
    <glyph glyph-name="acircumflexacute" unicode="&#x1ea5;" horiz-adv-x="549" 
d="M335 71l-76 2l-60 -3l-11 -70h-181l159 513h224l144 -513h-188zM309 206l-29 143h-11l-38 -143l39 -1zM525 864l-110 -149h-11l-64 47l70 149l12 7l98 -41zM264 762h34q63 -57 153 -119l-34 -76h-18l-118 60l-118 -60h-18l-34 76q90 62 153 119z" />
    <glyph glyph-name="Acircumflexgrave" unicode="&#x1ea6;" horiz-adv-x="627" 
d="M414 0l-18 107l-1 3l-98 2l-82 -4l-17 -108h-196l196 647h242l177 -647h-203zM321 468h-12l-56 -212l56 -1l56 1zM505 896l-64 -47h-11l-110 149l5 13l98 41l12 -7zM297 896h34q63 -57 153 -119l-34 -76h-18l-118 60l-118 -60h-18l-34 76q90 62 153 119z" />
    <glyph glyph-name="acircumflexgrave" unicode="&#x1ea7;" horiz-adv-x="549" 
d="M335 71l-76 2l-60 -3l-11 -70h-181l159 513h224l144 -513h-188zM309 206l-29 143h-11l-38 -143l39 -1zM472 762l-64 -47h-11l-110 149l5 13l98 41l12 -7zM264 762h34q63 -57 153 -119l-34 -76h-18l-118 60l-118 -60h-18l-34 76q90 62 153 119z" />
    <glyph glyph-name="Acircumflexhookabove" unicode="&#x1ea8;" horiz-adv-x="627" 
d="M333 998l-28 45q25 27 57 42.5t64 15.5q41 0 68.5 -23t27.5 -61q0 -20 -12.5 -38.5t-46.5 -48.5l26 -41l-61 -38l-51 77q23 16 37 36t14 36q0 23 -28 23q-34 0 -67 -25zM144 777q90 62 153 119h34q63 -57 153 -119l-34 -76h-18l-118 60l-118 -60h-18zM414 0l-18 107l-1 3
l-98 2l-82 -4l-17 -108h-196l196 647h242l177 -647h-203zM321 468h-12l-56 -212l56 -1l56 1z" />
    <glyph glyph-name="acircumflexhookabove" unicode="&#x1ea9;" horiz-adv-x="549" 
d="M300 864l-28 45q25 27 57 42.5t64 15.5q41 0 68.5 -23t27.5 -61q0 -20 -12.5 -38.5t-46.5 -48.5l26 -41l-61 -38l-51 77q23 16 37 36t14 36q0 23 -28 23q-34 0 -67 -25zM111 643q90 62 153 119h34q63 -57 153 -119l-34 -76h-18l-118 60l-118 -60h-18zM335 71l-76 2
l-60 -3l-11 -70h-181l159 513h224l144 -513h-188zM309 206l-29 143h-11l-38 -143l39 -1z" />
    <glyph glyph-name="Acircumflextilde" unicode="&#x1eaa;" horiz-adv-x="627" 
d="M140 939v15l74 102l14 6q20 -3 77 -18q50 -13 63 -13q15 0 27 12t35 41h15l52 -50v-15l-74 -103l-15 -5q-23 3 -79 18q-46 13 -60 13q-13 0 -25 -10.5t-22.5 -24t-14.5 -18.5h-15zM484 777l-34 -76h-18l-118 60l-118 -60h-18l-34 76q90 62 153 119h34q63 -57 153 -119z
M414 0l-18 107l-1 3l-98 2l-82 -4l-17 -108h-196l196 647h242l177 -647h-203zM321 468h-12l-56 -212l56 -1l56 1z" />
    <glyph glyph-name="acircumflextilde" unicode="&#x1eab;" horiz-adv-x="549" 
d="M107 805v15l74 102l14 6q20 -3 77 -18q50 -13 63 -13q15 0 27 12t35 41h15l52 -50v-15l-74 -103l-15 -5q-23 3 -79 18q-46 13 -60 13q-13 0 -25 -10.5t-22.5 -24t-14.5 -18.5h-15zM451 643l-34 -76h-18l-118 60l-118 -60h-18l-34 76q90 62 153 119h34q63 -57 153 -119z
M335 71l-76 2l-60 -3l-11 -70h-181l159 513h224l144 -513h-188zM309 206l-29 143h-11l-38 -143l39 -1z" />
    <glyph glyph-name="Acircumflexdotbelow" unicode="&#x1eac;" horiz-adv-x="627" 
d="M145 797q90 62 153 119h34q63 -57 153 -119l-34 -76h-18l-118 60l-118 -60h-18zM414 0l-18 107l-1 3l-98 2l-82 -4l-17 -108h-196l196 647h242l177 -647h-203zM321 468h-12l-56 -212l56 -1l56 1zM380.5 -57q24.5 -25 24.5 -70q0 -48 -27 -76t-74 -28q-46 0 -70 24.5
t-24 70.5q0 48 27.5 76t74.5 28q44 0 68.5 -25z" />
    <glyph glyph-name="acircumflexdotbelow" unicode="&#x1ead;" horiz-adv-x="549" 
d="M102 643q69 58 163 150h34q70 -70 163 -150l-47 -72h-18q-76 48 -115 78q-39 -30 -115 -78h-18zM7 0l159 513h224l144 -513h-188l-11 71l-76 2l-60 -3l-11 -70h-181zM231 206l39 -1l39 1l-29 143h-11zM341.5 -57q24.5 -25 24.5 -70q0 -48 -27 -76t-74 -28q-46 0 -70 24.5
t-24 70.5q0 48 27.5 76t74.5 28q44 0 68.5 -25z" />
    <glyph glyph-name="Abreveacute" unicode="&#x1eae;" horiz-adv-x="627" 
d="M414 0l-18 107l-1 3l-98 2l-82 -4l-17 -108h-196l196 647h242l177 -647h-203zM321 468h-12l-56 -212l56 -1l56 1zM457 985q-67 -66 -129 -119l-15 -5l-58 45q66 96 97 146l13 4l89 -57zM423.5 728q-46.5 -32 -111.5 -32q-64 0 -109 32t-66 92l40 60h27q34 -50 115 -50
q74 0 107 50h27l40 -60q-23 -60 -69.5 -92z" />
    <glyph glyph-name="abreveacute" unicode="&#x1eaf;" horiz-adv-x="549" 
d="M335 71l-76 2l-60 -3l-11 -70h-181l159 513h224l144 -513h-188zM309 206l-29 143h-11l-38 -143l39 -1zM424 851q-67 -66 -129 -119l-15 -5l-58 45q66 96 97 146l13 4l89 -57zM390.5 594q-46.5 -32 -111.5 -32q-64 0 -109 32t-66 92l40 60h27q34 -50 115 -50q74 0 107 50
h27l40 -60q-23 -60 -69.5 -92z" />
    <glyph glyph-name="Abrevegrave" unicode="&#x1eb0;" horiz-adv-x="627" 
d="M414 0l-18 107l-1 3l-98 2l-82 -4l-17 -108h-196l196 647h242l177 -647h-203zM321 468h-12l-56 -212l56 -1l56 1zM379 906l-58 -45l-15 5q-62 53 -129 119l3 14l89 57l13 -4q31 -50 97 -146zM423.5 728q-46.5 -32 -111.5 -32q-64 0 -109 32t-66 92l40 60h27
q34 -50 115 -50q74 0 107 50h27l40 -60q-23 -60 -69.5 -92z" />
    <glyph glyph-name="abrevegrave" unicode="&#x1eb1;" horiz-adv-x="549" 
d="M335 71l-76 2l-60 -3l-11 -70h-181l159 513h224l144 -513h-188zM309 206l-29 143h-11l-38 -143l39 -1zM346 772l-58 -45l-15 5q-62 53 -129 119l3 14l89 57l13 -4q31 -50 97 -146zM390.5 594q-46.5 -32 -111.5 -32q-64 0 -109 32t-66 92l40 60h27q34 -50 115 -50
q74 0 107 50h27l40 -60q-23 -60 -69.5 -92z" />
    <glyph glyph-name="Abrevehookabove" unicode="&#x1eb2;" horiz-adv-x="627" 
d="M207 1009l-29 47q26 28 59.5 44.5t67.5 16.5q43 0 71.5 -24.5t28.5 -63.5q0 -22 -13 -41t-48 -51l27 -43l-64 -39l-54 80q25 18 39.5 39t14.5 37q0 24 -30 24q-36 0 -70 -26zM203 728q-45 32 -66 92l40 60h27q34 -50 115 -50q74 0 107 50h27l40 -60q-23 -60 -69.5 -92
t-111.5 -32q-64 0 -109 32zM414 0l-18 107l-1 3l-98 2l-82 -4l-17 -108h-196l196 647h242l177 -647h-203zM321 468h-12l-56 -212l56 -1l56 1z" />
    <glyph glyph-name="abrevehookabove" unicode="&#x1eb3;" horiz-adv-x="549" 
d="M174 875l-29 47q26 28 59.5 44.5t67.5 16.5q43 0 71.5 -24.5t28.5 -63.5q0 -22 -13 -41t-48 -51l27 -43l-64 -39l-54 80q25 18 39.5 39t14.5 37q0 24 -30 24q-36 0 -70 -26zM170 594q-45 32 -66 92l40 60h27q34 -50 115 -50q74 0 107 50h27l40 -60q-23 -60 -69.5 -92
t-111.5 -32q-64 0 -109 32zM335 71l-76 2l-60 -3l-11 -70h-181l159 513h224l144 -513h-188zM309 206l-29 143h-11l-38 -143l39 -1z" />
    <glyph glyph-name="Abrevetilde" unicode="&#x1eb4;" horiz-adv-x="627" 
d="M140 939v15l74 102l14 6q20 -3 77 -18q50 -13 63 -13q15 0 27 12t35 41h15l52 -50v-15l-74 -103l-15 -5q-23 3 -79 18q-46 13 -60 13q-13 0 -25 -10.5t-22.5 -24t-14.5 -18.5h-15zM423 867h25l37 -56q-21 -56 -64 -85.5t-104 -29.5q-59 0 -101 29.5t-62 85.5l37 56h25
q32 -46 107 -46q69 0 100 46zM414 0l-18 107l-1 3l-98 2l-82 -4l-17 -108h-196l196 647h242l177 -647h-203zM321 468h-12l-56 -212l56 -1l56 1z" />
    <glyph glyph-name="abrevetilde" unicode="&#x1eb5;" horiz-adv-x="549" 
d="M107 805v15l74 102l14 6q20 -3 77 -18q50 -13 63 -13q15 0 27 12t35 41h15l52 -50v-15l-74 -103l-15 -5q-23 3 -79 18q-46 13 -60 13q-13 0 -25 -10.5t-22.5 -24t-14.5 -18.5h-15zM390 733h25l37 -56q-21 -56 -64 -85.5t-104 -29.5q-59 0 -101 29.5t-62 85.5l37 56h25
q32 -46 107 -46q69 0 100 46zM335 71l-76 2l-60 -3l-11 -70h-181l159 513h224l144 -513h-188zM309 206l-29 143h-11l-38 -143l39 -1z" />
    <glyph glyph-name="Abrevedotbelow" unicode="&#x1eb6;" horiz-adv-x="627" 
d="M203 748q-45 32 -66 92l40 60h27q34 -50 115 -50q74 0 107 50h27l40 -60q-23 -60 -69.5 -92t-111.5 -32q-64 0 -109 32zM414 0l-18 107l-1 3l-98 2l-82 -4l-17 -108h-196l196 647h242l177 -647h-203zM321 468h-12l-56 -212l56 -1l56 1zM380.5 -57q24.5 -25 24.5 -70
q0 -48 -27 -76t-74 -28q-46 0 -70 24.5t-24 70.5q0 48 27.5 76t74.5 28q44 0 68.5 -25z" />
    <glyph glyph-name="abrevedotbelow" unicode="&#x1eb7;" horiz-adv-x="549" 
d="M164.5 615.5q-42.5 39.5 -59.5 96.5l40 62h27q16 -30 45.5 -46.5t66.5 -16.5t66.5 16.5t43.5 46.5h27l40 -62q-19 -58 -65 -97t-118 -39q-71 0 -113.5 39.5zM7 0l159 513h224l144 -513h-188l-11 71l-76 2l-60 -3l-11 -70h-181zM231 206l39 -1l39 1l-29 143h-11z
M341.5 -57q24.5 -25 24.5 -70q0 -48 -27 -76t-74 -28q-46 0 -70 24.5t-24 70.5q0 48 27.5 76t74.5 28q44 0 68.5 -25z" />
    <glyph glyph-name="Edotbelow" unicode="&#x1eb8;" horiz-adv-x="541" 
d="M528 146l-12 -146h-456l10 190l-10 457h464l11 -14l-13 -146l-159 6h-103l-2 -91h99l104 3l11 -14l-12 -146l-116 3h-90l-1 -38l2 -56h96l166 6zM382.5 -57q24.5 -25 24.5 -70q0 -48 -27 -76t-74 -28q-46 0 -70 24.5t-24 70.5q0 48 27.5 76t74.5 28q44 0 68.5 -25z" />
    <glyph glyph-name="edotbelow" unicode="&#x1eb9;" horiz-adv-x="480" 
d="M461 135l-11 -135h-397l9 149l-9 364h404l10 -13l-11 -135l-135 6h-84l-1 -44h80l87 3l10 -13l-11 -135l-98 3h-72l-1 -17l1 -26h79l140 5zM332.5 -57q24.5 -25 24.5 -70q0 -48 -27 -76t-74 -28q-46 0 -70 24.5t-24 70.5q0 48 27.5 76t74.5 28q44 0 68.5 -25z" />
    <glyph glyph-name="Ehookabove" unicode="&#x1eba;" horiz-adv-x="541" 
d="M528 146l-12 -146h-456l10 190l-10 457h464l11 -14l-13 -146l-159 6h-103l-2 -91h99l104 3l11 -14l-12 -146l-116 3h-90l-1 -38l2 -56h96l166 6zM349.5 923.5q28.5 -24.5 28.5 -63.5q0 -22 -13 -41t-48 -51l27 -43l-64 -39l-54 80q25 18 39.5 39t14.5 37q0 24 -30 24
q-36 0 -70 -26l-29 47q26 28 59.5 44.5t67.5 16.5q43 0 71.5 -24.5z" />
    <glyph glyph-name="ehookabove" unicode="&#x1ebb;" horiz-adv-x="480" 
d="M461 135l-11 -135h-397l9 149l-9 364h404l10 -13l-11 -135l-135 6h-84l-1 -44h80l87 3l10 -13l-11 -135l-98 3h-72l-1 -17l1 -26h79l140 5zM311.5 789.5q28.5 -24.5 28.5 -63.5q0 -22 -13 -41t-48 -51l27 -43l-64 -39l-54 80q25 18 39.5 39t14.5 37q0 24 -30 24
q-36 0 -70 -26l-29 47q26 28 59.5 44.5t67.5 16.5q43 0 71.5 -24.5z" />
    <glyph glyph-name="Ecircumflexacute" unicode="&#x1ebe;" horiz-adv-x="541" 
d="M528 146l-12 -146h-456l10 190l-10 457h464l11 -14l-13 -146l-159 6h-103l-2 -91h99l104 3l11 -14l-12 -146l-116 3h-90l-1 -38l2 -56h96l166 6zM535 998l-110 -149h-11l-64 47l70 149l12 7l98 -41zM274 896h34q63 -57 153 -119l-34 -76h-18l-118 60l-118 -60h-18l-34 76
q90 62 153 119z" />
    <glyph glyph-name="ecircumflexacute" unicode="&#x1ebf;" horiz-adv-x="480" 
d="M461 135l-11 -135h-397l9 149l-9 364h404l10 -13l-11 -135l-135 6h-84l-1 -44h80l87 3l10 -13l-11 -135l-98 3h-72l-1 -17l1 -26h79l140 5zM497 864l-110 -149h-11l-64 47l70 149l12 7l98 -41zM236 762h34q63 -57 153 -119l-34 -76h-18l-118 60l-118 -60h-18l-34 76
q90 62 153 119z" />
    <glyph glyph-name="Ecircumflexgrave" unicode="&#x1ec0;" horiz-adv-x="541" 
d="M528 146l-12 -146h-456l10 190l-10 457h464l11 -14l-13 -146l-159 6h-103l-2 -91h99l104 3l11 -14l-12 -146l-116 3h-90l-1 -38l2 -56h96l166 6zM482 896l-64 -47h-11l-110 149l5 13l98 41l12 -7zM274 896h34q63 -57 153 -119l-34 -76h-18l-118 60l-118 -60h-18l-34 76
q90 62 153 119z" />
    <glyph glyph-name="ecircumflexgrave" unicode="&#x1ec1;" horiz-adv-x="480" 
d="M461 135l-11 -135h-397l9 149l-9 364h404l10 -13l-11 -135l-135 6h-84l-1 -44h80l87 3l10 -13l-11 -135l-98 3h-72l-1 -17l1 -26h79l140 5zM444 762l-64 -47h-11l-110 149l5 13l98 41l12 -7zM236 762h34q63 -57 153 -119l-34 -76h-18l-118 60l-118 -60h-18l-34 76
q90 62 153 119z" />
    <glyph glyph-name="Ecircumflexhookabove" unicode="&#x1ec2;" horiz-adv-x="541" 
d="M310 998l-28 45q25 27 57 42.5t64 15.5q41 0 68.5 -23t27.5 -61q0 -20 -12.5 -38.5t-46.5 -48.5l26 -41l-61 -38l-51 77q23 16 37 36t14 36q0 23 -28 23q-34 0 -67 -25zM121 777q90 62 153 119h34q63 -57 153 -119l-34 -76h-18l-118 60l-118 -60h-18zM528 146l-12 -146
h-456l10 190l-10 457h464l11 -14l-13 -146l-159 6h-103l-2 -91h99l104 3l11 -14l-12 -146l-116 3h-90l-1 -38l2 -56h96l166 6z" />
    <glyph glyph-name="ecircumflexhookabove" unicode="&#x1ec3;" horiz-adv-x="480" 
d="M272 864l-28 45q25 27 57 42.5t64 15.5q41 0 68.5 -23t27.5 -61q0 -20 -12.5 -38.5t-46.5 -48.5l26 -41l-61 -38l-51 77q23 16 37 36t14 36q0 23 -28 23q-34 0 -67 -25zM83 643q90 62 153 119h34q63 -57 153 -119l-34 -76h-18l-118 60l-118 -60h-18zM461 135l-11 -135
h-397l9 149l-9 364h404l10 -13l-11 -135l-135 6h-84l-1 -44h80l87 3l10 -13l-11 -135l-98 3h-72l-1 -17l1 -26h79l140 5z" />
    <glyph glyph-name="Ecircumflextilde" unicode="&#x1ec4;" horiz-adv-x="541" 
d="M528 146l-12 -146h-456l10 190l-10 457h464l11 -14l-13 -146l-159 6h-103l-2 -91h99l104 3l11 -14l-12 -146l-116 3h-90l-1 -38l2 -56h96l166 6zM482 896l-64 -47h-11l-110 149l5 13l98 41l12 -7zM274 896h34q63 -57 153 -119l-34 -76h-18l-118 60l-118 -60h-18l-34 76
q90 62 153 119z" />
    <glyph glyph-name="ecircumflextilde" unicode="&#x1ec5;" horiz-adv-x="480" 
d="M79 805v15l74 102l14 6q20 -3 77 -18q50 -13 63 -13q15 0 27 12t35 41h15l52 -50v-15l-74 -103l-15 -5q-23 3 -79 18q-46 13 -60 13q-13 0 -25 -10.5t-22.5 -24t-14.5 -18.5h-15zM423 643l-34 -76h-18l-118 60l-118 -60h-18l-34 76q90 62 153 119h34q63 -57 153 -119z
M461 135l-11 -135h-397l9 149l-9 364h404l10 -13l-11 -135l-135 6h-84l-1 -44h80l87 3l10 -13l-11 -135l-98 3h-72l-1 -17l1 -26h79l140 5z" />
    <glyph glyph-name="Ecircumflexdotbelow" unicode="&#x1ec6;" horiz-adv-x="541" 
d="M122 797q90 62 153 119h34q63 -57 153 -119l-34 -76h-18l-118 60l-118 -60h-18zM528 146l-12 -146h-456l10 190l-10 457h464l11 -14l-13 -146l-159 6h-103l-2 -91h99l104 3l11 -14l-12 -146l-116 3h-90l-1 -38l2 -56h96l166 6zM382.5 -57q24.5 -25 24.5 -70
q0 -48 -27 -76t-74 -28q-46 0 -70 24.5t-24 70.5q0 48 27.5 76t74.5 28q44 0 68.5 -25z" />
    <glyph glyph-name="ecircumflexdotbelow" unicode="&#x1ec7;" horiz-adv-x="480" 
d="M74 643q69 58 163 150h34q70 -70 163 -150l-47 -72h-18q-76 48 -115 78q-39 -30 -115 -78h-18zM461 135l-11 -135h-397l9 149l-9 364h404l10 -13l-11 -135l-135 6h-84l-1 -44h80l87 3l10 -13l-11 -135l-98 3h-72l-1 -17l1 -26h79l140 5zM332.5 -57q24.5 -25 24.5 -70
q0 -48 -27 -76t-74 -28q-46 0 -70 24.5t-24 70.5q0 48 27.5 76t74.5 28q44 0 68.5 -25z" />
    <glyph glyph-name="Ihookabove" unicode="&#x1ec8;" horiz-adv-x="327" 
d="M261 0h-201l10 190l-10 457h204l-11 -437zM219.5 923.5q28.5 -24.5 28.5 -63.5q0 -22 -13 -41t-48 -51l27 -43l-64 -39l-54 80q25 18 39.5 39t14.5 37q0 24 -30 24q-36 0 -70 -26l-29 47q26 28 59.5 44.5t67.5 16.5q43 0 71.5 -24.5z" />
    <glyph glyph-name="ihookabove" unicode="&#x1ec9;" horiz-adv-x="303" 
d="M239 0h-186l9 149l-9 364h189l-11 -345zM210.5 789.5q28.5 -24.5 28.5 -63.5q0 -22 -13 -41t-48 -51l27 -43l-64 -39l-54 80q25 18 39.5 39t14.5 37q0 24 -30 24q-36 0 -70 -26l-29 47q26 28 59.5 44.5t67.5 16.5q43 0 71.5 -24.5z" />
    <glyph glyph-name="Idotbelow" unicode="&#x1eca;" horiz-adv-x="327" 
d="M261 0h-201l10 190l-10 457h204l-11 -437zM228.5 -57q24.5 -25 24.5 -70q0 -48 -27 -76t-74 -28q-46 0 -70 24.5t-24 70.5q0 48 27.5 76t74.5 28q44 0 68.5 -25z" />
    <glyph glyph-name="idotbelow" unicode="&#x1ecb;" horiz-adv-x="303" 
d="M239 0h-186l9 149l-9 364h189l-11 -345zM216.5 -57q24.5 -25 24.5 -70q0 -48 -27 -76t-74 -28q-46 0 -70 24.5t-24 70.5q0 48 27.5 76t74.5 28q44 0 68.5 -25z" />
    <glyph glyph-name="Odotbelow" unicode="&#x1ecc;" 
d="M559 575.5q77 -83.5 77 -235.5q0 -168 -84.5 -260t-239.5 -92q-141 0 -218 84.5t-77 239.5q0 166 84.5 256.5t239.5 90.5q141 0 218 -83.5zM264 485.5q-20 -13.5 -28.5 -47.5t-8.5 -99q0 -83 9 -126t30.5 -60t63.5 -17q39 0 59 13.5t28.5 48t8.5 99.5q0 82 -9 125
t-30.5 60t-63.5 17q-39 0 -59 -13.5zM404.5 -57q24.5 -25 24.5 -70q0 -48 -27 -76t-74 -28q-46 0 -70 24.5t-24 70.5q0 48 27.5 76t74.5 28q44 0 68.5 -25z" />
    <glyph glyph-name="odotbelow" unicode="&#x1ecd;" horiz-adv-x="565" 
d="M480.5 457q65.5 -66 65.5 -187q0 -134 -72.5 -207.5t-204.5 -73.5q-120 0 -185.5 67.5t-65.5 189.5q0 132 72.5 204.5t204.5 72.5q120 0 185.5 -66zM236.5 368.5q-13.5 -7.5 -19 -29.5t-5.5 -68q0 -63 6 -93t21 -41t47 -11q29 0 42.5 7.5t18.5 29t5 67.5q0 64 -5.5 94
t-21 41t-47.5 11q-28 0 -41.5 -7.5zM357.5 -57q24.5 -25 24.5 -70q0 -48 -27 -76t-74 -28q-46 0 -70 24.5t-24 70.5q0 48 27.5 76t74.5 28q44 0 68.5 -25z" />
    <glyph glyph-name="Ohookabove" unicode="&#x1ece;" 
d="M559 575.5q77 -83.5 77 -235.5q0 -168 -84.5 -260t-239.5 -92q-141 0 -218 84.5t-77 239.5q0 166 84.5 256.5t239.5 90.5q141 0 218 -83.5zM264 485.5q-20 -13.5 -28.5 -47.5t-8.5 -99q0 -83 9 -126t30.5 -60t63.5 -17q39 0 59 13.5t28.5 48t8.5 99.5q0 82 -9 125
t-30.5 60t-63.5 17q-39 0 -59 -13.5zM384.5 923.5q28.5 -24.5 28.5 -63.5q0 -22 -13 -41t-48 -51l27 -43l-64 -39l-54 80q25 18 39.5 39t14.5 37q0 24 -30 24q-36 0 -70 -26l-29 47q26 28 59.5 44.5t67.5 16.5q43 0 71.5 -24.5z" />
    <glyph glyph-name="ohookabove" unicode="&#x1ecf;" horiz-adv-x="565" 
d="M480.5 457q65.5 -66 65.5 -187q0 -134 -72.5 -207.5t-204.5 -73.5q-120 0 -185.5 67.5t-65.5 189.5q0 132 72.5 204.5t204.5 72.5q120 0 185.5 -66zM236.5 368.5q-13.5 -7.5 -19 -29.5t-5.5 -68q0 -63 6 -93t21 -41t47 -11q29 0 42.5 7.5t18.5 29t5 67.5q0 64 -5.5 94
t-21 41t-47.5 11q-28 0 -41.5 -7.5zM341.5 789.5q28.5 -24.5 28.5 -63.5q0 -22 -13 -41t-48 -51l27 -43l-64 -39l-54 80q25 18 39.5 39t14.5 37q0 24 -30 24q-36 0 -70 -26l-29 47q26 28 59.5 44.5t67.5 16.5q43 0 71.5 -24.5z" />
    <glyph glyph-name="Ocircumflexacute" unicode="&#x1ed0;" 
d="M559 575.5q77 -83.5 77 -235.5q0 -168 -84.5 -260t-239.5 -92q-141 0 -218 84.5t-77 239.5q0 166 84.5 256.5t239.5 90.5q141 0 218 -83.5zM264 485.5q-20 -13.5 -28.5 -47.5t-8.5 -99q0 -83 9 -126t30.5 -60t63.5 -17q39 0 59 13.5t28.5 48t8.5 99.5q0 82 -9 125
t-30.5 60t-63.5 17q-39 0 -59 -13.5zM570 998l-110 -149h-11l-64 47l70 149l12 7l98 -41zM309 896h34q63 -57 153 -119l-34 -76h-18l-118 60l-118 -60h-18l-34 76q90 62 153 119z" />
    <glyph glyph-name="ocircumflexacute" unicode="&#x1ed1;" horiz-adv-x="565" 
d="M480.5 457q65.5 -66 65.5 -187q0 -134 -72.5 -207.5t-204.5 -73.5q-120 0 -185.5 67.5t-65.5 189.5q0 132 72.5 204.5t204.5 72.5q120 0 185.5 -66zM236.5 368.5q-13.5 -7.5 -19 -29.5t-5.5 -68q0 -63 6 -93t21 -41t47 -11q29 0 42.5 7.5t18.5 29t5 67.5q0 64 -5.5 94
t-21 41t-47.5 11q-28 0 -41.5 -7.5zM527 864l-110 -149h-11l-64 47l70 149l12 7l98 -41zM266 762h34q63 -57 153 -119l-34 -76h-18l-118 60l-118 -60h-18l-34 76q90 62 153 119z" />
    <glyph glyph-name="Ocircumflexgrave" unicode="&#x1ed2;" 
d="M559 575.5q77 -83.5 77 -235.5q0 -168 -84.5 -260t-239.5 -92q-141 0 -218 84.5t-77 239.5q0 166 84.5 256.5t239.5 90.5q141 0 218 -83.5zM264 485.5q-20 -13.5 -28.5 -47.5t-8.5 -99q0 -83 9 -126t30.5 -60t63.5 -17q39 0 59 13.5t28.5 48t8.5 99.5q0 82 -9 125
t-30.5 60t-63.5 17q-39 0 -59 -13.5zM517 896l-64 -47h-11l-110 149l5 13l98 41l12 -7zM309 896h34q63 -57 153 -119l-34 -76h-18l-118 60l-118 -60h-18l-34 76q90 62 153 119z" />
    <glyph glyph-name="ocircumflexgrave" unicode="&#x1ed3;" horiz-adv-x="565" 
d="M480.5 457q65.5 -66 65.5 -187q0 -134 -72.5 -207.5t-204.5 -73.5q-120 0 -185.5 67.5t-65.5 189.5q0 132 72.5 204.5t204.5 72.5q120 0 185.5 -66zM236.5 368.5q-13.5 -7.5 -19 -29.5t-5.5 -68q0 -63 6 -93t21 -41t47 -11q29 0 42.5 7.5t18.5 29t5 67.5q0 64 -5.5 94
t-21 41t-47.5 11q-28 0 -41.5 -7.5zM474 762l-64 -47h-11l-110 149l5 13l98 41l12 -7zM266 762h34q63 -57 153 -119l-34 -76h-18l-118 60l-118 -60h-18l-34 76q90 62 153 119z" />
    <glyph glyph-name="Ocircumflexhookabove" unicode="&#x1ed4;" 
d="M506.5 1078q27.5 -23 27.5 -61q0 -20 -12.5 -38.5t-46.5 -48.5l26 -41l-61 -38l-51 77q23 16 37 36t14 36q0 23 -28 23q-34 0 -67 -25l-28 45q25 27 57 42.5t64 15.5q41 0 68.5 -23zM309 896h34q63 -57 153 -119l-34 -76h-18l-118 60l-118 -60h-18l-34 76q90 62 153 119z
M559 575.5q77 -83.5 77 -235.5q0 -168 -84.5 -260t-239.5 -92q-141 0 -218 84.5t-77 239.5q0 166 84.5 256.5t239.5 90.5q141 0 218 -83.5zM264 485.5q-20 -13.5 -28.5 -47.5t-8.5 -99q0 -83 9 -126t30.5 -60t63.5 -17q39 0 59 13.5t28.5 48t8.5 99.5q0 82 -9 125t-30.5 60
t-63.5 17q-39 0 -59 -13.5z" />
    <glyph glyph-name="ocircumflexhookabove" unicode="&#x1ed5;" horiz-adv-x="565" 
d="M463.5 944q27.5 -23 27.5 -61q0 -20 -12.5 -38.5t-46.5 -48.5l26 -41l-61 -38l-51 77q23 16 37 36t14 36q0 23 -28 23q-34 0 -67 -25l-28 45q25 27 57 42.5t64 15.5q41 0 68.5 -23zM266 762h34q63 -57 153 -119l-34 -76h-18l-118 60l-118 -60h-18l-34 76q90 62 153 119z
M480.5 457q65.5 -66 65.5 -187q0 -134 -72.5 -207.5t-204.5 -73.5q-120 0 -185.5 67.5t-65.5 189.5q0 132 72.5 204.5t204.5 72.5q120 0 185.5 -66zM236.5 368.5q-13.5 -7.5 -19 -29.5t-5.5 -68q0 -63 6 -93t21 -41t47 -11q29 0 42.5 7.5t18.5 29t5 67.5q0 64 -5.5 94
t-21 41t-47.5 11q-28 0 -41.5 -7.5z" />
    <glyph glyph-name="Ocircumflextilde" unicode="&#x1ed6;" 
d="M509 1019l-74 -103l-15 -5q-23 3 -79 18q-46 13 -60 13q-13 0 -25 -10.5t-22.5 -24t-14.5 -18.5h-15l-52 50v15l74 102l14 6q20 -3 77 -18q50 -13 63 -13q15 0 27 12t35 41h15l52 -50v-15zM309 896h34q63 -57 153 -119l-34 -76h-18l-118 60l-118 -60h-18l-34 76
q90 62 153 119zM559 575.5q77 -83.5 77 -235.5q0 -168 -84.5 -260t-239.5 -92q-141 0 -218 84.5t-77 239.5q0 166 84.5 256.5t239.5 90.5q141 0 218 -83.5zM264 485.5q-20 -13.5 -28.5 -47.5t-8.5 -99q0 -83 9 -126t30.5 -60t63.5 -17q39 0 59 13.5t28.5 48t8.5 99.5
q0 82 -9 125t-30.5 60t-63.5 17q-39 0 -59 -13.5z" />
    <glyph glyph-name="ocircumflextilde" unicode="&#x1ed7;" horiz-adv-x="565" 
d="M466 885l-74 -103l-15 -5q-23 3 -79 18q-46 13 -60 13q-13 0 -25 -10.5t-22.5 -24t-14.5 -18.5h-15l-52 50v15l74 102l14 6q20 -3 77 -18q50 -13 63 -13q15 0 27 12t35 41h15l52 -50v-15zM266 762h34q63 -57 153 -119l-34 -76h-18l-118 60l-118 -60h-18l-34 76
q90 62 153 119zM480.5 457q65.5 -66 65.5 -187q0 -134 -72.5 -207.5t-204.5 -73.5q-120 0 -185.5 67.5t-65.5 189.5q0 132 72.5 204.5t204.5 72.5q120 0 185.5 -66zM236.5 368.5q-13.5 -7.5 -19 -29.5t-5.5 -68q0 -63 6 -93t21 -41t47 -11q29 0 42.5 7.5t18.5 29t5 67.5
q0 64 -5.5 94t-21 41t-47.5 11q-28 0 -41.5 -7.5z" />
    <glyph glyph-name="Ocircumflexdotbelow" unicode="&#x1ed8;" 
d="M310 916h34q63 -57 153 -119l-34 -76h-18l-118 60l-118 -60h-18l-34 76q90 62 153 119zM559 575.5q77 -83.5 77 -235.5q0 -168 -84.5 -260t-239.5 -92q-141 0 -218 84.5t-77 239.5q0 166 84.5 256.5t239.5 90.5q141 0 218 -83.5zM264 485.5q-20 -13.5 -28.5 -47.5
t-8.5 -99q0 -83 9 -126t30.5 -60t63.5 -17q39 0 59 13.5t28.5 48t8.5 99.5q0 82 -9 125t-30.5 60t-63.5 17q-39 0 -59 -13.5zM404.5 -57q24.5 -25 24.5 -70q0 -48 -27 -76t-74 -28q-46 0 -70 24.5t-24 70.5q0 48 27.5 76t74.5 28q44 0 68.5 -25z" />
    <glyph glyph-name="ocircumflexdotbelow" unicode="&#x1ed9;" horiz-adv-x="565" 
d="M267 793h34q70 -70 163 -150l-47 -72h-18q-76 48 -115 78q-39 -30 -115 -78h-18l-47 72q69 58 163 150zM480.5 457q65.5 -66 65.5 -187q0 -134 -72.5 -207.5t-204.5 -73.5q-120 0 -185.5 67.5t-65.5 189.5q0 132 72.5 204.5t204.5 72.5q120 0 185.5 -66zM236.5 368.5
q-13.5 -7.5 -19 -29.5t-5.5 -68q0 -63 6 -93t21 -41t47 -11q29 0 42.5 7.5t18.5 29t5 67.5q0 64 -5.5 94t-21 41t-47.5 11q-28 0 -41.5 -7.5zM357.5 -57q24.5 -25 24.5 -70q0 -48 -27 -76t-74 -28q-46 0 -70 24.5t-24 70.5q0 48 27.5 76t74.5 28q44 0 68.5 -25z" />
    <glyph glyph-name="Ohornacute" unicode="&#x1eda;" horiz-adv-x="661" 
d="M672.5 760q23.5 -29 23.5 -74q0 -52 -33 -90t-84 -50q57 -82 57 -210q0 -108 -38 -186t-110 -120t-173 -42q-143 0 -220.5 84.5t-77.5 238.5q0 109 38.5 187.5t107.5 119.5t159 41q49 0 121 -18q42 -10 56 -10q46 0 46 45q0 36 -29 62l3 14q51 37 93 37q37 0 60.5 -29z
M262.5 484.5q-19.5 -14.5 -27.5 -50.5t-8 -106q0 -77 9.5 -117.5t32 -57.5t64.5 -17q38 0 57.5 14t27.5 50.5t8 107.5q0 77 -9 117.5t-31.5 57t-64.5 16.5q-39 0 -58.5 -14.5zM489 797l-6 -16q-132 -42 -238 -69l-17 4l-30 79q118 60 225 123l17 -4z" />
    <glyph glyph-name="ohornacute" unicode="&#x1edb;" horiz-adv-x="572" 
d="M526 629q33 0 54 -24t21 -61q0 -43 -27.5 -75t-71.5 -44q44 -63 44 -158q0 -130 -72.5 -204t-201.5 -74q-122 0 -188 67t-66 189q0 87 33 149.5t91.5 95.5t134.5 33q48 0 102 -14q33 -7 47 -7q35 0 35 33q0 29 -24 47l3 13q49 34 86 34zM330 133.5q13 7.5 17.5 31
t4.5 76.5q0 58 -6 86t-21.5 38.5t-47.5 10.5q-29 0 -42 -8.5t-18 -32t-5 -74.5q0 -58 6 -86t22 -38.5t49 -10.5q28 0 41 7.5zM433 663l-6 -16q-132 -42 -238 -69l-17 4l-30 79q118 60 225 123l17 -4z" />
    <glyph glyph-name="Ohorngrave" unicode="&#x1edc;" horiz-adv-x="661" 
d="M476 795l-30 -79l-17 -4q-106 27 -238 69l-6 16l49 117l17 4q107 -63 225 -123zM672.5 760q23.5 -29 23.5 -74q0 -52 -33 -90t-84 -50q57 -82 57 -210q0 -108 -38 -186t-110 -120t-173 -42q-143 0 -220.5 84.5t-77.5 238.5q0 109 38.5 187.5t107.5 119.5t159 41
q49 0 121 -18q42 -10 56 -10q46 0 46 45q0 36 -29 62l3 14q51 37 93 37q37 0 60.5 -29zM262.5 484.5q-19.5 -14.5 -27.5 -50.5t-8 -106q0 -77 9.5 -117.5t32 -57.5t64.5 -17q38 0 57.5 14t27.5 50.5t8 107.5q0 77 -9 117.5t-31.5 57t-64.5 16.5q-39 0 -58.5 -14.5z" />
    <glyph glyph-name="ohorngrave" unicode="&#x1edd;" horiz-adv-x="572" 
d="M420 661l-30 -79l-17 -4q-106 27 -238 69l-6 16l49 117l17 4q107 -63 225 -123zM526 629q33 0 54 -24t21 -61q0 -43 -27.5 -75t-71.5 -44q44 -63 44 -158q0 -130 -72.5 -204t-201.5 -74q-122 0 -188 67t-66 189q0 87 33 149.5t91.5 95.5t134.5 33q48 0 102 -14
q33 -7 47 -7q35 0 35 33q0 29 -24 47l3 13q49 34 86 34zM330 133.5q13 7.5 17.5 31t4.5 76.5q0 58 -6 86t-21.5 38.5t-47.5 10.5q-29 0 -42 -8.5t-18 -32t-5 -74.5q0 -58 6 -86t22 -38.5t49 -10.5q28 0 41 7.5z" />
    <glyph glyph-name="Ohornhookabove" unicode="&#x1ede;" horiz-adv-x="661" 
d="M672.5 760q23.5 -29 23.5 -74q0 -52 -33 -90t-84 -50q57 -82 57 -210q0 -108 -38 -186t-110 -120t-173 -42q-143 0 -220.5 84.5t-77.5 238.5q0 109 38.5 187.5t107.5 119.5t159 41q49 0 121 -18q42 -10 56 -10q46 0 46 45q0 36 -29 62l3 14q51 37 93 37q37 0 60.5 -29z
M262.5 484.5q-19.5 -14.5 -27.5 -50.5t-8 -106q0 -77 9.5 -117.5t32 -57.5t64.5 -17q38 0 57.5 14t27.5 50.5t8 107.5q0 77 -9 117.5t-31.5 57t-64.5 16.5q-39 0 -58.5 -14.5zM384.5 923.5q28.5 -24.5 28.5 -63.5q0 -22 -13 -41t-48 -51l27 -43l-64 -39l-54 80
q25 18 39.5 39t14.5 37q0 24 -30 24q-36 0 -70 -26l-29 47q26 28 59.5 44.5t67.5 16.5q43 0 71.5 -24.5z" />
    <glyph glyph-name="ohornhookabove" unicode="&#x1edf;" horiz-adv-x="572" 
d="M526 629q33 0 54 -24t21 -61q0 -43 -27.5 -75t-71.5 -44q44 -63 44 -158q0 -130 -72.5 -204t-201.5 -74q-122 0 -188 67t-66 189q0 87 33 149.5t91.5 95.5t134.5 33q48 0 102 -14q33 -7 47 -7q35 0 35 33q0 29 -24 47l3 13q49 34 86 34zM330 133.5q13 7.5 17.5 31
t4.5 76.5q0 58 -6 86t-21.5 38.5t-47.5 10.5q-29 0 -42 -8.5t-18 -32t-5 -74.5q0 -58 6 -86t22 -38.5t49 -10.5q28 0 41 7.5zM328.5 789.5q28.5 -24.5 28.5 -63.5q0 -22 -13 -41t-48 -51l27 -43l-64 -39l-54 80q25 18 39.5 39t14.5 37q0 24 -30 24q-36 0 -70 -26l-29 47
q26 28 59.5 44.5t67.5 16.5q43 0 71.5 -24.5z" />
    <glyph glyph-name="Ohorntilde" unicode="&#x1ee0;" horiz-adv-x="661" 
d="M672.5 760q23.5 -29 23.5 -74q0 -52 -33 -90t-84 -50q57 -82 57 -210q0 -108 -38 -186t-110 -120t-173 -42q-143 0 -220.5 84.5t-77.5 238.5q0 109 38.5 187.5t107.5 119.5t159 41q49 0 121 -18q42 -10 56 -10q46 0 46 45q0 36 -29 62l3 14q51 37 93 37q37 0 60.5 -29z
M262.5 484.5q-19.5 -14.5 -27.5 -50.5t-8 -106q0 -77 9.5 -117.5t32 -57.5t64.5 -17q38 0 57.5 14t27.5 50.5t8 107.5q0 77 -9 117.5t-31.5 57t-64.5 16.5q-39 0 -58.5 -14.5zM522 845l-81 -113l-16 -6q-27 3 -86 20q-58 14 -67 14q-17 0 -30 -13t-39 -45h-16l-57 55v16
l81 113l16 6q27 -3 86 -20q58 -14 67 -14q17 0 30 13t39 45h16l57 -55v-16z" />
    <glyph glyph-name="ohorntilde" unicode="&#x1ee1;" horiz-adv-x="572" 
d="M526 629q33 0 54 -24t21 -61q0 -43 -27.5 -75t-71.5 -44q44 -63 44 -158q0 -130 -72.5 -204t-201.5 -74q-122 0 -188 67t-66 189q0 87 33 149.5t91.5 95.5t134.5 33q48 0 102 -14q33 -7 47 -7q35 0 35 33q0 29 -24 47l3 13q49 34 86 34zM330 133.5q13 7.5 17.5 31
t4.5 76.5q0 58 -6 86t-21.5 38.5t-47.5 10.5q-29 0 -42 -8.5t-18 -32t-5 -74.5q0 -58 6 -86t22 -38.5t49 -10.5q28 0 41 7.5zM466 711l-81 -113l-16 -6q-27 3 -86 20q-58 14 -67 14q-17 0 -30 -13t-39 -45h-16l-57 55v16l81 113l16 6q27 -3 86 -20q58 -14 67 -14q17 0 30 13
t39 45h16l57 -55v-16z" />
    <glyph glyph-name="Ohorndotbelow" unicode="&#x1ee2;" horiz-adv-x="661" 
d="M672.5 760q23.5 -29 23.5 -74q0 -52 -33 -90t-84 -50q57 -82 57 -210q0 -108 -38 -186t-110 -120t-173 -42q-143 0 -220.5 84.5t-77.5 238.5q0 109 38.5 187.5t107.5 119.5t159 41q49 0 121 -18q42 -10 56 -10q46 0 46 45q0 36 -29 62l3 14q51 37 93 37q37 0 60.5 -29z
M262.5 484.5q-19.5 -14.5 -27.5 -50.5t-8 -106q0 -77 9.5 -117.5t32 -57.5t64.5 -17q38 0 57.5 14t27.5 50.5t8 107.5q0 77 -9 117.5t-31.5 57t-64.5 16.5q-39 0 -58.5 -14.5zM404.5 -57q24.5 -25 24.5 -70q0 -48 -27 -76t-74 -28q-46 0 -70 24.5t-24 70.5q0 48 27.5 76
t74.5 28q44 0 68.5 -25z" />
    <glyph glyph-name="ohorndotbelow" unicode="&#x1ee3;" horiz-adv-x="572" 
d="M526 629q33 0 54 -24t21 -61q0 -43 -27.5 -75t-71.5 -44q44 -63 44 -158q0 -130 -72.5 -204t-201.5 -74q-122 0 -188 67t-66 189q0 87 33 149.5t91.5 95.5t134.5 33q48 0 102 -14q33 -7 47 -7q35 0 35 33q0 29 -24 47l3 13q49 34 86 34zM330 133.5q13 7.5 17.5 31
t4.5 76.5q0 58 -6 86t-21.5 38.5t-47.5 10.5q-29 0 -42 -8.5t-18 -32t-5 -74.5q0 -58 6 -86t22 -38.5t49 -10.5q28 0 41 7.5zM357.5 -57q24.5 -25 24.5 -70q0 -48 -27 -76t-74 -28q-46 0 -70 24.5t-24 70.5q0 48 27.5 76t74.5 28q44 0 68.5 -25z" />
    <glyph glyph-name="Udotbelow" unicode="&#x1ee4;" 
d="M599 216q-1 -110 -74 -169t-209 -59q-131 0 -200.5 59t-66.5 169l3 103l-6 328h201l-9 -404q-1 -51 19.5 -74t66.5 -23q47 0 68 23t20 74l-9 404h204l-7 -328zM396.5 -57q24.5 -25 24.5 -70q0 -48 -27 -76t-74 -28q-46 0 -70 24.5t-24 70.5q0 48 27.5 76t74.5 28
q44 0 68.5 -25z" />
    <glyph glyph-name="udotbelow" unicode="&#x1ee5;" horiz-adv-x="566" 
d="M517 169q-1 -87 -64 -133.5t-180 -46.5q-113 0 -172 46.5t-56 133.5l2 83l-5 261h185l-8 -319q-1 -32 13 -45.5t49 -13.5t49.5 13.5t13.5 45.5l-8 319h188l-6 -260zM355.5 -57q24.5 -25 24.5 -70q0 -48 -27 -76t-74 -28q-46 0 -70 24.5t-24 70.5q0 48 27.5 76t74.5 28
q44 0 68.5 -25z" />
    <glyph glyph-name="Uhookabove" unicode="&#x1ee6;" 
d="M599 216q-1 -110 -74 -169t-209 -59q-131 0 -200.5 59t-66.5 169l3 103l-6 328h201l-9 -404q-1 -51 19.5 -74t66.5 -23q47 0 68 23t20 74l-9 404h204l-7 -328zM384.5 923.5q28.5 -24.5 28.5 -63.5q0 -22 -13 -41t-48 -51l27 -43l-64 -39l-54 80q25 18 39.5 39t14.5 37
q0 24 -30 24q-36 0 -70 -26l-29 47q26 28 59.5 44.5t67.5 16.5q43 0 71.5 -24.5z" />
    <glyph glyph-name="uhookabove" unicode="&#x1ee7;" horiz-adv-x="566" 
d="M517 169q-1 -87 -64 -133.5t-180 -46.5q-113 0 -172 46.5t-56 133.5l2 83l-5 261h185l-8 -319q-1 -32 13 -45.5t49 -13.5t49.5 13.5t13.5 45.5l-8 319h188l-6 -260zM340.5 789.5q28.5 -24.5 28.5 -63.5q0 -22 -13 -41t-48 -51l27 -43l-64 -39l-54 80q25 18 39.5 39
t14.5 37q0 24 -30 24q-36 0 -70 -26l-29 47q26 28 59.5 44.5t67.5 16.5q43 0 71.5 -24.5z" />
    <glyph glyph-name="Uhornacute" unicode="&#x1ee8;" horiz-adv-x="663" 
d="M679.5 635.5q-26.5 -35.5 -73.5 -57.5l-6 -259l-1 -103q-1 -110 -74 -169t-209 -59q-131 0 -200.5 59t-66.5 169l3 103l-6 328h201l-9 -404q-1 -51 19.5 -74t66.5 -23q47 0 68 23t20 74l-9 404h95q31 0 44 11t13 37q0 35 -29 59l3 14q52 37 94 37q36 0 59.5 -26t23.5 -66
q0 -42 -26.5 -77.5zM489 797l-6 -16q-132 -42 -238 -69l-17 4l-30 79q118 60 225 123l17 -4z" />
    <glyph glyph-name="uhornacute" unicode="&#x1ee9;" horiz-adv-x="576" 
d="M585 499.5q-25 -31.5 -67 -50.5l-5 -196l-1 -84q-1 -87 -64 -133.5t-180 -46.5q-113 0 -172 46.5t-56 133.5l2 83l-5 261h185l-8 -319q-1 -32 13 -45.5t49 -13.5t49.5 13.5t13.5 45.5l-8 319h93q25 0 35.5 8.5t10.5 28.5q0 30 -24 46l3 13q49 34 87 34q33 0 53.5 -21.5
t20.5 -54.5q0 -36 -25 -67.5zM433 663l-6 -16q-132 -42 -238 -69l-17 4l-30 79q118 60 225 123l17 -4z" />
    <glyph glyph-name="Uhorngrave" unicode="&#x1eea;" horiz-adv-x="663" 
d="M191 781l-6 16l49 117l17 4q107 -63 225 -123l-30 -79l-17 -4q-106 27 -238 69zM679.5 635.5q-26.5 -35.5 -73.5 -57.5l-6 -259l-1 -103q-1 -110 -74 -169t-209 -59q-131 0 -200.5 59t-66.5 169l3 103l-6 328h201l-9 -404q-1 -51 19.5 -74t66.5 -23q47 0 68 23t20 74
l-9 404h95q31 0 44 11t13 37q0 35 -29 59l3 14q52 37 94 37q36 0 59.5 -26t23.5 -66q0 -42 -26.5 -77.5z" />
    <glyph glyph-name="uhorngrave" unicode="&#x1eeb;" horiz-adv-x="576" 
d="M135 647l-6 16l49 117l17 4q107 -63 225 -123l-30 -79l-17 -4q-106 27 -238 69zM585 499.5q-25 -31.5 -67 -50.5l-5 -196l-1 -84q-1 -87 -64 -133.5t-180 -46.5q-113 0 -172 46.5t-56 133.5l2 83l-5 261h185l-8 -319q-1 -32 13 -45.5t49 -13.5t49.5 13.5t13.5 45.5
l-8 319h93q25 0 35.5 8.5t10.5 28.5q0 30 -24 46l3 13q49 34 87 34q33 0 53.5 -21.5t20.5 -54.5q0 -36 -25 -67.5z" />
    <glyph glyph-name="Uhornhookabove" unicode="&#x1eec;" horiz-adv-x="663" 
d="M679.5 635.5q-26.5 -35.5 -73.5 -57.5l-6 -259l-1 -103q-1 -110 -74 -169t-209 -59q-131 0 -200.5 59t-66.5 169l3 103l-6 328h201l-9 -404q-1 -51 19.5 -74t66.5 -23q47 0 68 23t20 74l-9 404h95q31 0 44 11t13 37q0 35 -29 59l3 14q52 37 94 37q36 0 59.5 -26t23.5 -66
q0 -42 -26.5 -77.5zM384.5 923.5q28.5 -24.5 28.5 -63.5q0 -22 -13 -41t-48 -51l27 -43l-64 -39l-54 80q25 18 39.5 39t14.5 37q0 24 -30 24q-36 0 -70 -26l-29 47q26 28 59.5 44.5t67.5 16.5q43 0 71.5 -24.5z" />
    <glyph glyph-name="uhornhookabove" unicode="&#x1eed;" horiz-adv-x="576" 
d="M585 499.5q-25 -31.5 -67 -50.5l-5 -196l-1 -84q-1 -87 -64 -133.5t-180 -46.5q-113 0 -172 46.5t-56 133.5l2 83l-5 261h185l-8 -319q-1 -32 13 -45.5t49 -13.5t49.5 13.5t13.5 45.5l-8 319h93q25 0 35.5 8.5t10.5 28.5q0 30 -24 46l3 13q49 34 87 34q33 0 53.5 -21.5
t20.5 -54.5q0 -36 -25 -67.5zM328.5 789.5q28.5 -24.5 28.5 -63.5q0 -22 -13 -41t-48 -51l27 -43l-64 -39l-54 80q25 18 39.5 39t14.5 37q0 24 -30 24q-36 0 -70 -26l-29 47q26 28 59.5 44.5t67.5 16.5q43 0 71.5 -24.5z" />
    <glyph glyph-name="Uhorntilde" unicode="&#x1eee;" horiz-adv-x="663" 
d="M679.5 635.5q-26.5 -35.5 -73.5 -57.5l-6 -259l-1 -103q-1 -110 -74 -169t-209 -59q-131 0 -200.5 59t-66.5 169l3 103l-6 328h201l-9 -404q-1 -51 19.5 -74t66.5 -23q47 0 68 23t20 74l-9 404h95q31 0 44 11t13 37q0 35 -29 59l3 14q52 37 94 37q36 0 59.5 -26t23.5 -66
q0 -42 -26.5 -77.5zM522 845l-81 -113l-16 -6q-27 3 -86 20q-58 14 -67 14q-17 0 -30 -13t-39 -45h-16l-57 55v16l81 113l16 6q27 -3 86 -20q58 -14 67 -14q17 0 30 13t39 45h16l57 -55v-16z" />
    <glyph glyph-name="uhorntilde" unicode="&#x1eef;" horiz-adv-x="576" 
d="M585 499.5q-25 -31.5 -67 -50.5l-5 -196l-1 -84q-1 -87 -64 -133.5t-180 -46.5q-113 0 -172 46.5t-56 133.5l2 83l-5 261h185l-8 -319q-1 -32 13 -45.5t49 -13.5t49.5 13.5t13.5 45.5l-8 319h93q25 0 35.5 8.5t10.5 28.5q0 30 -24 46l3 13q49 34 87 34q33 0 53.5 -21.5
t20.5 -54.5q0 -36 -25 -67.5zM466 711l-81 -113l-16 -6q-27 3 -86 20q-58 14 -67 14q-17 0 -30 -13t-39 -45h-16l-57 55v16l81 113l16 6q27 -3 86 -20q58 -14 67 -14q17 0 30 13t39 45h16l57 -55v-16z" />
    <glyph glyph-name="Uhorndotbelow" unicode="&#x1ef0;" horiz-adv-x="663" 
d="M679.5 635.5q-26.5 -35.5 -73.5 -57.5l-6 -259l-1 -103q-1 -110 -74 -169t-209 -59q-131 0 -200.5 59t-66.5 169l3 103l-6 328h201l-9 -404q-1 -51 19.5 -74t66.5 -23q47 0 68 23t20 74l-9 404h95q31 0 44 11t13 37q0 35 -29 59l3 14q52 37 94 37q36 0 59.5 -26t23.5 -66
q0 -42 -26.5 -77.5zM398.5 -57q24.5 -25 24.5 -70q0 -48 -27 -76t-74 -28q-46 0 -70 24.5t-24 70.5q0 48 27.5 76t74.5 28q44 0 68.5 -25z" />
    <glyph glyph-name="uhorndotbelow" unicode="&#x1ef1;" horiz-adv-x="576" 
d="M585 499.5q-25 -31.5 -67 -50.5l-5 -196l-1 -84q-1 -87 -64 -133.5t-180 -46.5q-113 0 -172 46.5t-56 133.5l2 83l-5 261h185l-8 -319q-1 -32 13 -45.5t49 -13.5t49.5 13.5t13.5 45.5l-8 319h93q25 0 35.5 8.5t10.5 28.5q0 30 -24 46l3 13q49 34 87 34q33 0 53.5 -21.5
t20.5 -54.5q0 -36 -25 -67.5zM355.5 -57q24.5 -25 24.5 -70q0 -48 -27 -76t-74 -28q-46 0 -70 24.5t-24 70.5q0 48 27.5 76t74.5 28q44 0 68.5 -25z" />
    <glyph glyph-name="Ygrave" unicode="&#x1ef2;" horiz-adv-x="594" 
d="M161 781l-6 16l49 117l17 4q107 -63 225 -123l-30 -79l-17 -4q-106 27 -238 69zM390 0h-200l10 170l-1 31l-207 446h210l16 -54l73 -195h12l84 188l23 61h204l-230 -439l-2 -38z" />
    <glyph glyph-name="ygrave" unicode="&#x1ef3;" horiz-adv-x="525" 
d="M129 671l-3 17l69 107l17 1q99 -85 201 -161l-44 -72l-17 -1q-81 37 -223 109zM348 0h-185l9 131l-1 17l-174 365h194l14 -47l52 -133h10l61 126l20 54h189l-196 -360l-1 -22z" />
    <glyph glyph-name="Ydotbelow" unicode="&#x1ef4;" horiz-adv-x="594" 
d="M390 0h-200l10 170l-1 31l-207 446h210l16 -54l73 -195h12l84 188l23 61h204l-230 -439l-2 -38zM362.5 -57q24.5 -25 24.5 -70q0 -48 -27 -76t-74 -28q-46 0 -70 24.5t-24 70.5q0 48 27.5 76t74.5 28q44 0 68.5 -25z" />
    <glyph glyph-name="ydotbelow" unicode="&#x1ef5;" horiz-adv-x="525" 
d="M-3 513h194l14 -47l52 -133h10l61 126l20 54h189l-196 -360l-1 -22l8 -131h-185l9 131l-1 17zM327.5 -57q24.5 -25 24.5 -70q0 -48 -27 -76t-74 -28q-46 0 -70 24.5t-24 70.5q0 48 27.5 76t74.5 28q44 0 68.5 -25z" />
    <glyph glyph-name="Yhookabove" unicode="&#x1ef6;" horiz-adv-x="594" 
d="M390 0h-200l10 170l-1 31l-207 446h210l16 -54l73 -195h12l84 188l23 61h204l-230 -439l-2 -38zM354.5 923.5q28.5 -24.5 28.5 -63.5q0 -22 -13 -41t-48 -51l27 -43l-64 -39l-54 80q25 18 39.5 39t14.5 37q0 24 -30 24q-36 0 -70 -26l-29 47q26 28 59.5 44.5t67.5 16.5
q43 0 71.5 -24.5z" />
    <glyph glyph-name="yhookabove" unicode="&#x1ef7;" horiz-adv-x="525" 
d="M348 0h-185l9 131l-1 17l-174 365h194l14 -47l52 -133h10l61 126l20 54h189l-196 -360l-1 -22zM326.5 789.5q28.5 -24.5 28.5 -63.5q0 -22 -13 -41t-48 -51l27 -43l-64 -39l-54 80q25 18 39.5 39t14.5 37q0 24 -30 24q-36 0 -70 -26l-29 47q26 28 59.5 44.5t67.5 16.5
q43 0 71.5 -24.5z" />
    <glyph glyph-name="endash" unicode="&#x2013;" horiz-adv-x="451" 
d="M457 195h-460l-12 13l9 117h460l12 -13z" />
    <glyph glyph-name="emdash" unicode="&#x2014;" horiz-adv-x="841" 
d="M851 195h-858l-12 13l9 117h858l12 -13z" />
    <glyph glyph-name="quoteleft" unicode="&#x2018;" horiz-adv-x="253" 
d="M35 458q0 95 114 200l65 -42l3 -12q-39 -44 -39 -88q0 -30 9.5 -50.5t32.5 -37.5v-15q-66 -49 -125 -71q-60 40 -60 116z" />
    <glyph glyph-name="quoteright" unicode="&#x2019;" horiz-adv-x="253" 
d="M219 543q0 -95 -114 -200l-65 42l-3 12q39 44 39 88q0 30 -9.5 50.5t-32.5 37.5v15q66 49 125 71q60 -40 60 -116z" />
    <glyph glyph-name="quotesinglbase" unicode="&#x201a;" horiz-adv-x="228" 
d="M204 77q0 -58 -37 -111.5t-115 -107.5l-61 53l-2 14q56 49 56 109q0 42 -33 75l1 16q72 40 143 58q48 -45 48 -106z" />
    <glyph glyph-name="quotedblleft" unicode="&#x201c;" horiz-adv-x="458" 
d="M240 458q0 95 114 200l65 -42l3 -12q-39 -44 -39 -88q0 -30 9.5 -50.5t32.5 -37.5v-15q-66 -49 -125 -71q-60 40 -60 116zM35 458q0 95 114 200l65 -42l3 -12q-39 -44 -39 -88q0 -30 9.5 -50.5t32.5 -37.5v-15q-66 -49 -125 -71q-60 40 -60 116z" />
    <glyph glyph-name="quotedblright" unicode="&#x201d;" horiz-adv-x="448" 
d="M414 543q0 -95 -114 -200l-65 42l-3 12q39 44 39 88q0 30 -9.5 50.5t-32.5 37.5v15q66 49 125 71q60 -40 60 -116zM219 543q0 -95 -114 -200l-65 42l-3 12q39 44 39 88q0 30 -9.5 50.5t-32.5 37.5v15q66 49 125 71q60 -40 60 -116z" />
    <glyph glyph-name="quotedblbase" unicode="&#x201e;" horiz-adv-x="433" 
d="M409 77q0 -58 -37 -111.5t-115 -107.5l-61 53l-2 14q56 49 56 109q0 42 -33 75l1 16q72 40 143 58q48 -45 48 -106zM204 77q0 -58 -37 -111.5t-115 -107.5l-61 53l-2 14q56 49 56 109q0 42 -33 75l1 16q72 40 143 58q48 -45 48 -106z" />
    <glyph glyph-name="dagger" unicode="&#x2020;" horiz-adv-x="525" 
d="M323 291l1 -376l-119 -9l-12 13v360v15h-144l-12 13l9 115h147l1 162l122 9l11 -11l-2 -160h151l12 -13l-9 -115h-156v-3z" />
    <glyph glyph-name="daggerdbl" unicode="&#x2021;" horiz-adv-x="525" 
d="M488 166l-9 -115h-155v-136l-119 -9l-12 13v132h-144l-12 13l9 115h147v100v32h-144l-12 13l9 115h148v145l122 9l11 -11l-2 -143h151l12 -13l-9 -115h-156v-20v-112h153z" />
    <glyph glyph-name="bullet" unicode="&#x2022;" horiz-adv-x="302" 
d="M248.995 413.368q33.7607 -34.4492 33.7607 -96.459q0 -66.1436 -37.2051 -104.728q-37.2061 -38.584 -101.972 -38.584q-63.3877 0 -96.46 33.7607q-33.0713 33.7607 -33.0713 97.1484q0 66.1436 37.8945 104.728t102.66 38.584q60.6318 0 94.3926 -34.4502z" />
    <glyph glyph-name="onedotenleader" unicode="&#x2024;" horiz-adv-x="228" 
d="M186.5 165q24.5 -25 24.5 -70q0 -48 -27 -76t-74 -28q-46 0 -70 24.5t-24 70.5q0 48 27.5 76t74.5 28q44 0 68.5 -25z" />
    <glyph glyph-name="twodotenleader" unicode="&#x2025;" horiz-adv-x="458" 
d="M411.5 165q24.5 -25 24.5 -70q0 -48 -27 -76t-74 -28q-46 0 -70 24.5t-24 70.5q0 48 27.5 76t74.5 28q44 0 68.5 -25zM181.5 165q24.5 -25 24.5 -70q0 -48 -27 -76t-74 -28q-46 0 -70 24.5t-24 70.5q0 48 27.5 76t74.5 28q44 0 68.5 -25z" />
    <glyph glyph-name="ellipsis" unicode="&#x2026;" horiz-adv-x="688" 
d="M411.5 165q24.5 -25 24.5 -70q0 -48 -27 -76t-74 -28q-46 0 -70 24.5t-24 70.5q0 48 27.5 76t74.5 28q44 0 68.5 -25zM641.5 165q24.5 -25 24.5 -70q0 -48 -27 -76t-74 -28q-46 0 -70 24.5t-24 70.5q0 48 27.5 76t74.5 28q44 0 68.5 -25zM181.5 165q24.5 -25 24.5 -70
q0 -48 -27 -76t-74 -28q-46 0 -70 24.5t-24 70.5q0 48 27.5 76t74.5 28q44 0 68.5 -25z" />
    <glyph glyph-name="perthousand" unicode="&#x2030;" horiz-adv-x="1265" 
d="M703 623l-462 -717l-82 50l-6 17l464 721l76 -47zM314.5 609q40.5 -46 40.5 -133q0 -94 -45.5 -144.5t-130.5 -50.5q-77 0 -118 46t-41 131q0 95 46.5 146t131.5 51q76 0 116.5 -46zM146.5 520q-11.5 -15 -11.5 -53q0 -41 11.5 -58.5t40.5 -17.5q30 0 42 16.5t12 53.5
q0 40 -12.5 57t-42.5 17q-28 0 -39.5 -15zM827.5 321q40.5 -46 40.5 -133q0 -94 -45.5 -144.5t-130.5 -50.5q-77 0 -118 46t-41 131q0 95 46.5 146t131.5 51q76 0 116.5 -46zM1203.5 321q40.5 -46 40.5 -133q0 -94 -45.5 -144.5t-130.5 -50.5q-77 0 -118 46t-41 131
q0 95 46.5 146t131.5 51q76 0 116.5 -46zM659.5 232q-11.5 -15 -11.5 -53q0 -41 11.5 -58.5t40.5 -17.5q30 0 42 16.5t12 53.5q0 40 -12.5 57t-42.5 17q-28 0 -39.5 -15zM1035.5 232q-11.5 -15 -11.5 -53q0 -41 11.5 -58.5t40.5 -17.5q30 0 42 16.5t12 53.5q0 40 -12.5 57
t-42.5 17q-28 0 -39.5 -15z" />
    <glyph glyph-name="minute" unicode="&#x2032;" horiz-adv-x="250" 
d="M166 372l-88 -14l-15 11l-10 268l151 9l10 -12z" />
    <glyph glyph-name="second" unicode="&#x2033;" horiz-adv-x="445" 
d="M361 372l-88 -14l-15 11l-10 268l151 9l10 -12zM166 372l-88 -14l-15 11l-10 268l151 9l10 -12z" />
    <glyph glyph-name="guilsinglleft" unicode="&#x2039;" horiz-adv-x="260" 
d="M23 241l125 184l91 -47l4 -17l-80 -131l80 -130l-4 -17l-91 -47l-125 178v27z" />
    <glyph glyph-name="guilsinglright" unicode="&#x203a;" horiz-adv-x="260" 
d="M242 223l-125 -184l-91 47l-4 17l80 131l-80 130l4 17l91 47l125 -178v-27z" />
    <glyph glyph-name="fraction" unicode="&#x2044;" horiz-adv-x="137" 
d="M327 623l-462 -717l-82 50l-6 17l464 721l76 -47z" />
    <glyph glyph-name="zerosuperior" unicode="&#x2070;" horiz-adv-x="376" 
d="M314.5 658.5q40.5 -50.5 40.5 -144.5q0 -103 -45.5 -158.5t-130.5 -55.5q-77 0 -118 50t-41 144q0 103 46 159t132 56q76 0 116.5 -50.5zM146.5 561.5q-11.5 -16.5 -11.5 -57.5q0 -44 11.5 -63.5t40.5 -19.5q30 0 42 18t12 58q0 44 -12.5 62.5t-42.5 18.5
q-28 0 -39.5 -16.5z" />
    <glyph glyph-name="foursuperior" unicode="&#x2074;" horiz-adv-x="385" 
d="M315 377l5 -61l-8 -9l-115 -6l-8 8l3 70h-87l-83 -3l-9 11v88l166 225h136l-3 -215h47l8 -12l-6 -97zM195 485l-1 64h-8l-49 -64h58z" />
    <glyph glyph-name="fivesuperior" unicode="&#x2075;" horiz-adv-x="339" 
d="M301 592l-10 -10l-82 10h-53v-30l43 -9q58 -11 85.5 -37.5t27.5 -71.5q0 -66 -54 -105.5t-143 -39.5q-46 0 -96 9l-8 100l9 9q48 -13 95 -13q56 0 56 25q0 12 -9 18t-30 9l-80 12l-8 10l-1 210l14 14l46 -2h117l86 5l9 -8z" />
    <glyph glyph-name="sixsuperior" unicode="&#x2076;" horiz-adv-x="365" 
d="M316.5 524.5q33.5 -36.5 33.5 -85.5q0 -35 -18.5 -67t-57 -52.5t-93.5 -20.5q-77 0 -121.5 42t-44.5 114q0 77 53.5 142.5t150.5 110.5h7l94 -61v-14q-60 -23 -92 -39.5t-50 -36.5l1 -1q25 5 45 5q59 0 92.5 -36.5zM217 425q0 40 -38 40q-15 0 -30 -4v-4q0 -39 6 -54.5
t29 -15.5q33 0 33 38z" />
    <glyph glyph-name="sevensuperior" unicode="&#x2077;" horiz-adv-x="324" 
d="M264 700l41 1v-101l-86 -173l-51 -128l-118 30l-9 22l121 234h-67l-80 -8l-7 10l9 116l102 -3h145z" />
    <glyph glyph-name="eightsuperior" unicode="&#x2078;" horiz-adv-x="383" 
d="M306.5 680q37.5 -28 37.5 -75q0 -50 -56 -85v-6q65 -32 65 -89q0 -59 -47 -92.5t-126 -33.5q-73 0 -112.5 28.5t-39.5 73.5q0 31 17.5 52t55.5 35v5q-63 32 -63 93q0 57 44.5 89.5t120.5 32.5q66 0 103.5 -28zM158 591q0 -13 12.5 -22t36.5 -19q22 21 22 38q0 12 -9.5 19
t-26.5 7q-35 0 -35 -23zM149 421q0 -32 43 -32q21 0 31.5 7.5t10.5 17.5q0 22 -53 40q-32 -11 -32 -33z" />
    <glyph glyph-name="ninesuperior" unicode="&#x2079;" horiz-adv-x="366" 
d="M306.5 666q44.5 -42 44.5 -115q0 -76 -54 -141.5t-151 -110.5h-7l-94 61v13q60 23 92.5 39.5t50.5 35.5l-2 2q-19 -4 -45 -4q-39 0 -67.5 17.5t-43.5 45.5t-15 59q0 34 19 66.5t57.5 53t93.5 20.5q77 0 121.5 -42zM217 546v3q0 39 -6 54.5t-30 15.5q-33 0 -33 -37
q0 -40 38 -40q15 0 31 4z" />
    <glyph glyph-name="franc" unicode="&#x20a3;" horiz-adv-x="424" 
d="M223 314h62l103 3l9 -11l-10 -120l-114 3h-53l-1 -23l1 -28h105l7 -9l-5 -59h-104l3 -70h-167l4 70h-52l-6 8l5 60h56l1 11l-8 361h375l9 -11l-11 -120l-141 6h-66z" />
    <glyph glyph-name="Euro" unicode="&#x20ac;" horiz-adv-x="447" 
d="M-4 279l5 72h68q25 82 91 126.5t166 44.5q62 0 125 -17l-30 -144l-11 -8q-46 21 -91 21q-38 0 -54 -23h94l7 -7l-5 -75h-359zM421 151l14 -9l-14 -143q-36 -8 -102 -8q-217 0 -257 172h-60l-6 8l5 74h358l7 -9l-5 -73h-91q19 -25 60 -25q43 0 91 13z" />
    <glyph glyph-name="uni2113" unicode="&#x2113;" horiz-adv-x="402" 
d="M381 0h-333l9 149l-9 364h189l-11 -345l1 -17h155l10 -12z" />
    <glyph glyph-name="trademark" unicode="&#x2122;" horiz-adv-x="598" 
d="M229 639l-5 -68l-55 3l-2 -91l4 -79h-93l5 70l-2 100l-55 -3l-6 7l5 67h199zM475 404l-1 73l-2 34h-5l-33 -87h-70l-25 87h-5l-3 -25l-3 -82h-79l25 241h109l6 -34l13 -65h6l15 61l8 38h108l19 -241h-83z" />
    <glyph glyph-name="Ohm" unicode="&#x2126;" horiz-adv-x="765" 
d="M612 587q79 -72 79 -198q0 -62 -20.5 -118.5t-66.5 -117.5l3 -5h51l87 10l10 -12l-22 -154l-134 8h-152l-36 -3l-9 7v108q43 52 61 104.5t18 126.5q0 85 -23.5 120.5t-79.5 35.5q-53 0 -74.5 -33t-21.5 -113q0 -76 18.5 -131t60.5 -110v-108l-9 -7l-36 3h-186l-110 -6
l-10 12l22 149l98 -8l26 1l3 5q-47 60 -67 113.5t-20 111.5q0 85 37 148.5t108.5 98t170.5 34.5q145 0 224 -72z" />
    <glyph glyph-name="estimated" unicode="&#x212e;" horiz-adv-x="787" 
d="M588.5 606.5q84.5 -44.5 134 -121t49.5 -166.5v-8h-597q-5 0 -5 -4v-181q0 -10 9 -21q43 -46 101.5 -71.5t124.5 -25.5q70 0 131.5 29t105.5 80h54q-51 -60 -128 -94.5t-164 -34.5q-100 0 -184.5 44.5t-134.5 120.5t-50 166t50 166.5t134.5 121t184.5 44.5t184.5 -44.5z
M282 605.5q-58 -25.5 -102 -70.5q-10 -10 -10 -23v-178q0 -5 5 -5h458q5 0 5 5v182q0 12 -10 22q-44 44 -101.5 68.5t-121.5 24.5q-65 0 -123 -25.5z" />
    <glyph glyph-name="oneeighth" unicode="&#x215b;" horiz-adv-x="826" 
d="M633 623l-462 -717l-82 50l-6 17l464 721l76 -47zM231 395l6 -141h-150l6 127v113l-80 -12l-9 6v113l213 52l21 -14zM749.5 373q37.5 -28 37.5 -75q0 -50 -56 -85v-6q65 -32 65 -89q0 -59 -47 -92.5t-126 -33.5q-73 0 -112.5 28.5t-39.5 73.5q0 31 17.5 52t55.5 35v5
q-63 32 -63 93q0 57 44.5 89.5t120.5 32.5q66 0 103.5 -28zM601 284q0 -13 12.5 -22t36.5 -19q22 21 22 38q0 12 -9.5 19t-26.5 7q-35 0 -35 -23zM592 114q0 -32 43 -32q21 0 31.5 7.5t10.5 17.5q0 22 -53 40q-32 -11 -32 -33z" />
    <glyph glyph-name="threeeighths" unicode="&#x215c;" horiz-adv-x="867" 
d="M674 623l-462 -717l-82 50l-6 17l464 721l76 -47zM268.5 627q40.5 -28 40.5 -73q0 -58 -61 -91v-4q68 -22 68 -90q0 -56 -55.5 -89.5t-146.5 -33.5q-44 0 -86 8l-9 102l10 9q46 -14 88 -14q57 0 57 24q0 17 -28 17h-62l-7 8l2 95l33 2q47 2 47 28q0 18 -31 18
q-26 0 -78 -19h-15l-23 95q70 36 149 36q67 0 107.5 -28zM790.5 373q37.5 -28 37.5 -75q0 -50 -56 -85v-6q65 -32 65 -89q0 -59 -47 -92.5t-126 -33.5q-73 0 -112.5 28.5t-39.5 73.5q0 31 17.5 52t55.5 35v5q-63 32 -63 93q0 57 44.5 89.5t120.5 32.5q66 0 103.5 -28z
M642 284q0 -13 12.5 -22t36.5 -19q22 21 22 38q0 12 -9.5 19t-26.5 7q-35 0 -35 -23zM633 114q0 -32 43 -32q21 0 31.5 7.5t10.5 17.5q0 22 -53 40q-32 -11 -32 -33z" />
    <glyph glyph-name="fiveeighths" unicode="&#x215d;" horiz-adv-x="849" 
d="M656 623l-462 -717l-82 50l-6 17l464 721l76 -47zM301 539l-10 -10l-82 10h-53v-30l43 -9q58 -11 85.5 -37.5t27.5 -71.5q0 -66 -54 -105.5t-143 -39.5q-46 0 -96 9l-8 100l9 9q48 -13 95 -13q56 0 56 25q0 12 -9 18t-30 9l-80 12l-8 10l-1 210l14 14l46 -2h117l86 5
l9 -8zM772.5 373q37.5 -28 37.5 -75q0 -50 -56 -85v-6q65 -32 65 -89q0 -59 -47 -92.5t-126 -33.5q-73 0 -112.5 28.5t-39.5 73.5q0 31 17.5 52t55.5 35v5q-63 32 -63 93q0 57 44.5 89.5t120.5 32.5q66 0 103.5 -28zM624 284q0 -13 12.5 -22t36.5 -19q22 21 22 38
q0 12 -9.5 19t-26.5 7q-35 0 -35 -23zM615 114q0 -32 43 -32q21 0 31.5 7.5t10.5 17.5q0 22 -53 40q-32 -11 -32 -33z" />
    <glyph glyph-name="seveneighths" unicode="&#x215e;" horiz-adv-x="824" 
d="M631 623l-462 -717l-82 50l-6 17l464 721l76 -47zM264 647l41 1v-101l-86 -173l-51 -128l-118 30l-9 22l121 234h-67l-80 -8l-7 10l9 116l102 -3h145zM747.5 373q37.5 -28 37.5 -75q0 -50 -56 -85v-6q65 -32 65 -89q0 -59 -47 -92.5t-126 -33.5q-73 0 -112.5 28.5
t-39.5 73.5q0 31 17.5 52t55.5 35v5q-63 32 -63 93q0 57 44.5 89.5t120.5 32.5q66 0 103.5 -28zM599 284q0 -13 12.5 -22t36.5 -19q22 21 22 38q0 12 -9.5 19t-26.5 7q-35 0 -35 -23zM590 114q0 -32 43 -32q21 0 31.5 7.5t10.5 17.5q0 22 -53 40q-32 -11 -32 -33z" />
    <glyph glyph-name="arrowleft" unicode="&#x2190;" horiz-adv-x="550" 
d="M25 227v29l201 210l106 -22v-24l-111 -119l288 8l12 -14l-6 -120l-294 8l111 -119v-24l-106 -22z" />
    <glyph glyph-name="arrowup" unicode="&#x2191;" horiz-adv-x="550" 
d="M262 496h29l210 -201l-22 -106h-24l-119 111l8 -288l-14 -12l-120 6l8 294l-119 -111h-24l-22 106z" />
    <glyph glyph-name="arrowright" unicode="&#x2192;" horiz-adv-x="550" 
d="M525 257v-29l-201 -210l-106 22v24l111 119l-288 -8l-12 14l6 120l294 -8l-111 119v24l106 22z" />
    <glyph glyph-name="arrowdown" unicode="&#x2193;" horiz-adv-x="550" 
d="M290 -12h-29l-210 201l22 106h24l119 -111l-8 288l14 12l120 -6l-8 -294l119 111h24l22 -106z" />
    <glyph glyph-name="arrowupleft" unicode="&#x2196;" horiz-adv-x="550" 
d="M88.4951 412.462l20.502 20.5029l290.564 6.3623l59.3857 -90.4922l-16.9668 -16.9678l-162.604 -5.65527l209.264 -197.952l-1.41406 -18.3809l-89.0781 -80.5947l-202.194 213.505l-5.65527 -162.603l-16.9678 -16.9678l-90.4922 59.3857z" />
    <glyph glyph-name="arrowupright" unicode="&#x2197;" horiz-adv-x="550" 
d="M439.462 438.505l20.5029 -20.502l6.3623 -290.564l-90.4922 -59.3857l-16.9678 16.9668l-5.65527 162.604l-197.952 -209.264l-18.3809 1.41406l-80.5947 89.0781l213.505 202.194l-162.603 5.65527l-16.9678 16.9678l59.3857 90.4922z" />
    <glyph glyph-name="arrowdownright" unicode="&#x2198;" horiz-adv-x="550" 
d="M460.505 65.5381l-20.502 -20.5029l-290.564 -6.3623l-59.3857 90.4922l16.9668 16.9678l162.604 5.65527l-209.264 197.952l1.41406 18.3809l89.0781 80.5947l202.194 -213.505l5.65527 162.603l16.9678 16.9678l90.4922 -59.3857z" />
    <glyph glyph-name="arrowdownleft" unicode="&#x2199;" horiz-adv-x="550" 
d="M110.538 50.4951l-20.5029 20.502l-6.3623 290.564l90.4922 59.3857l16.9678 -16.9668l5.65527 -162.604l197.952 209.264l18.3809 -1.41406l80.5947 -89.0781l-213.505 -202.194l162.603 -5.65527l16.9678 -16.9678l-59.3857 -90.4922z" />
    <glyph glyph-name="partialdiff" unicode="&#x2202;" horiz-adv-x="529" 
d="M521 272q0 -130 -69 -207t-193 -77q-80 0 -134.5 32t-81.5 84.5t-27 114.5q0 58 24 111t69.5 85.5t107.5 32.5q31 0 63 -13l8 8q-34 55 -95 94t-155 70v14l142 99h11q330 -163 330 -448zM316.5 154.5q16.5 32.5 16.5 104.5q0 21 -1 31q-35 16 -63 16q-35 0 -52 -21
t-17 -67q0 -96 65 -96q35 0 51.5 32.5z" />
    <glyph glyph-name="increment" unicode="&#x2206;" horiz-adv-x="627" 
d="M2 0l196 647h242l177 -647h-615zM224 145h164l-67 323h-12z" />
    <glyph glyph-name="product" unicode="&#x220f;" horiz-adv-x="730" 
d="M623 210l8 -210h-201l10 190l-7 303h-147l-7 -283l8 -210h-201l10 190l-7 299l-53 -2l-12 14l11 146h660l11 -14l-11 -146l-65 3z" />
    <glyph glyph-name="summation" unicode="&#x2211;" horiz-adv-x="547" 
d="M503 494l-109 7h-128l168 -163v-28l-166 -164h120l127 9l12 -15l-13 -142l-169 2h-211l-107 -3v138l189 188l-189 177v149l96 -2h252l128 2l12 -14z" />
    <glyph glyph-name="minus" unicode="&#x2212;" horiz-adv-x="480" 
d="M457 190h-430l-12 13l9 117h430l12 -13z" />
    <glyph glyph-name="divisionslash" unicode="&#x2215;" horiz-adv-x="280" 
d="M118 -118h-135l-11 15l208 786h131l15 -16z" />
    <glyph glyph-name="bulletoperator" unicode="&#x2219;" horiz-adv-x="302" 
d="M251.5 362.5q33.5 -34.5 33.5 -96.5q0 -66 -37.5 -104.5t-101.5 -38.5q-63 0 -96.5 33.5t-33.5 97.5q0 66 38 104.5t103 38.5q61 0 94.5 -34.5z" />
    <glyph glyph-name="radical" unicode="&#x221a;" horiz-adv-x="494" 
d="M139 0l-75 340h-95l-5 7l4 125h225l6 -7l58 -300h11l146 533l14 12h129l-208 -710h-210z" />
    <glyph glyph-name="infinity" unicode="&#x221e;" horiz-adv-x="480" 
d="M455 378.5q37 -45.5 37 -121.5q0 -79 -38.5 -122t-99.5 -43q-63 0 -107 60q-41 -60 -122 -60q-67 0 -104 45t-37 122q0 78 37.5 121.5t99.5 43.5q34 0 59.5 -14t48.5 -46q43 60 122 60q67 0 104 -45.5zM90 260q0 -44 36 -44q35 0 59 60q-23 30 -53 30q-42 0 -42 -46z
M317 284.5q-13 -15.5 -25 -44.5q22 -31 53 -31q41 0 41 48q0 43 -36 43q-20 0 -33 -15.5z" />
    <glyph glyph-name="integral" unicode="&#x222b;" horiz-adv-x="320" 
d="M394 701l-11 -138l-13 -9q-55 23 -89 23q-32 0 -33 -34l3 -487q1 -77 -35.5 -128t-122.5 -89l-84 83v15q65 37 64 114l-7 458q0 97 63 149t176 52q43 0 89 -9z" />
    <glyph glyph-name="approxequal" unicode="&#x2248;" horiz-adv-x="480" 
d="M130 305.5q-15 -12.5 -28.5 -28t-18.5 -20.5h-16l-51 63v16l92 115l16 7q32 -6 107 -29q94 -28 110 -28q15 0 29.5 12t28.5 27.5t19 21.5h16l50 -63v-16l-91 -115l-16 -6q-30 4 -115 31q-85 25 -101 25t-31 -12.5zM130 92.5q-15 -12.5 -28.5 -28t-18.5 -20.5h-16l-51 63
v16l92 115l16 7q32 -6 107 -29q94 -28 110 -28q15 0 29.5 12t28.5 27.5t19 21.5h16l50 -63v-16l-91 -115l-16 -6q-30 4 -115 31q-85 25 -101 25t-31 -12.5z" />
    <glyph glyph-name="notequal" unicode="&#x2260;" horiz-adv-x="480" 
d="M466 200l-9 -117h-195l-32 -136h-121l-9 14l28 122h-101l-12 13l9 117h135l19 83h-151l-12 13l9 117h184l32 137h118l12 -13l-29 -124h113l12 -13l-9 -117h-146l-19 -83h162z" />
    <glyph glyph-name="lessequal" unicode="&#x2264;" horiz-adv-x="480" 
d="M441 356l-277 -92v-9l276 -91l-26 -108l-16 -13l-367 134v156l12 17l365 130l40 -111zM457 -145h-430l-12 13l9 117h430l12 -13z" />
    <glyph glyph-name="greaterequal" unicode="&#x2265;" horiz-adv-x="480" 
d="M449 333v-156l-367 -134l-16 13l-26 108l276 91v9l-277 92l-7 13l40 111l365 -130zM457 -145h-430l-12 13l9 117h430l12 -13z" />
    <glyph glyph-name="lozenge" unicode="&#x25ca;" horiz-adv-x="532" 
d="M507 306l-1 -51l-153 -341l-151 -7l-15 7l-152 338v49l153 343l152 7l13 -7zM160 272l109 -233h8l104 241l-110 239h-8z" />
    <glyph glyph-name="dieresisacute" unicode="&#xf6d7;" horiz-adv-x="388" 
d="M332 777l-9 -15q-154 -19 -246 -26l-16 7l-16 83q130 39 243 82l16 -7zM161 675.5q21 -21.5 21 -60.5q0 -42 -23.5 -66.5t-63.5 -24.5t-61 21.5t-21 61.5q0 41 24 65.5t65 24.5q38 0 59 -21.5zM354 675.5q21 -21.5 21 -60.5q0 -42 -23.5 -66.5t-63.5 -24.5t-61 21.5
t-21 61.5q0 41 24 65.5t65 24.5q38 0 59 -21.5z" />
    <glyph glyph-name="dieresisgrave" unicode="&#xf6d8;" horiz-adv-x="388" 
d="M332 826l-16 -83l-16 -7q-92 7 -246 26l-9 15l28 124l16 7q113 -43 243 -82zM161 675.5q21 -21.5 21 -60.5q0 -42 -23.5 -66.5t-63.5 -24.5t-61 21.5t-21 61.5q0 41 24 65.5t65 24.5q38 0 59 -21.5zM354 675.5q21 -21.5 21 -60.5q0 -42 -23.5 -66.5t-63.5 -24.5t-61 21.5
t-21 61.5q0 41 24 65.5t65 24.5q38 0 59 -21.5z" />
    <glyph glyph-name="Iacute_J.loclNLD" horiz-adv-x="689" 
d="M261 0h-201l10 190l-10 457h204l-11 -437zM324 797l-6 -16q-132 -42 -238 -69l-17 4l-30 79q118 60 225 123l17 -4zM622 124q0 -63 -21 -106t-69.5 -74t-134.5 -56l-52 103v16q51 25 71.5 52t20.5 71v63l-7 313l-85 -3l-11 13l8 131h289l-11 -434zM653 797l-6 -16
q-132 -42 -238 -69l-17 4l-30 79q118 60 225 123l17 -4z" />
    <glyph glyph-name="C.ss01" horiz-adv-x="447" 
d="M232.5 345q-18.5 -21 -18.5 -73q0 -66 22 -95t71 -29q47 0 92 10l14 -9l-8 -84h142v-65h-647v65h194q-67 63 -67 186q0 129 80 197h-207v65h647v-65h-127l-20 -95l-12 -7q-43 20 -94 20q-43 0 -61.5 -21z" />
    <glyph glyph-name="D.ss01" horiz-adv-x="575" 
d="M483 448q64 -59 64 -172q0 -139 -81 -211h209v-65h-775v65h167l5 87l-8 296h-164v65h775v-65h-192zM298 133q31 0 47 22t16 77q0 53 -6 82t-21 40.5t-42 11.5q-31 0 -52 -2l-6 -194l1 -29q46 -8 63 -8z" />
    <glyph glyph-name="I.ss01" horiz-adv-x="303" 
d="M236 65h167v-65h-503v65h157l5 84l-7 299h-155v65h503v-65h-163l-9 -280z" />
    <glyph glyph-name="L.ss01" horiz-adv-x="432" 
d="M226 170l1 -17h152l10 -12l-6 -76h149v-65h-632v65h155l5 86l-7 297h-153v65h632v-65h-297z" />
    <glyph glyph-name="M.ss01" horiz-adv-x="691" 
d="M635 65h156v-65h-891v65h148l39 383h-187v65h891v-65h-188zM305 448l3 -15l30 -115h10l35 109l6 21h-84zM483 178l-4 80h-9l-71 -165h-132l-56 165h-10l-5 -66l-4 -127h292z" />
    <glyph glyph-name="V.ss01" horiz-adv-x="540" 
d="M390 65h250v-65h-740v65h245l-107 383h-138v65h740v-65h-131zM210 448l7 -38l48 -243h11l61 232l8 49h-135z" />
    <glyph glyph-name="X.ss01" horiz-adv-x="555" 
d="M511 65h144v-65h-755v65h160l121 182l-125 201h-156v65h755v-65h-155l-113 -176zM258 419l32 -50l39 59l9 20h-93zM308 97l-32 50l-45 -58l-11 -24h102z" />
    <glyph glyph-name="i.loclTRK" horiz-adv-x="303" 
d="M225.5 744q24.5 -25 24.5 -70q0 -48 -27 -76t-74 -28q-46 0 -70 24.5t-24 70.5q0 48 27.5 76t74.5 28q44 0 68.5 -25zM239 0h-186l9 149l-9 364h189l-11 -345z" />
    <glyph glyph-name="germandbls.calt" horiz-adv-x="711" 
d="M500 641.5q65 -17.5 150 -55.5l8 -23l-117 -171l21 -16q59 -42 86.5 -66t42.5 -53.5t15 -71.5q0 -97 -69.5 -147t-174.5 -50q-96 0 -185 38l29 174l20 12q41 -36 80 -55.5t67 -19.5q34 0 34 25q0 20 -41.5 52t-154.5 94l-5 24l106 157q-36 12 -70 12q-54 0 -76.5 -22.5
t-21.5 -74.5l-5 -194l8 -210h-201l10 190l-5 214q0 119 79 187t231 68q74 0 139 -17.5z" />
    <glyph glyph-name="iacute_j.loclNLD" horiz-adv-x="647" 
d="M29 635q102 76 201 161l17 -1l69 -107l-3 -17q-142 -72 -223 -109l-17 1zM591 669q-142 -72 -223 -109l-17 1l-44 72q102 76 201 161l17 -1l69 -107zM231 168l8 -168h-186l9 149l-9 364h189zM577 168l2 -69q0 -51 -18.5 -86t-61 -61.5t-117.5 -50.5l-51 93v14
q43 17 59.5 37t16.5 53v52l-5 227l-78 -2l-10 11l11 127h261z" />
    <glyph glyph-name="a.sups" horiz-adv-x="364" 
d="M288 629q35 -26 35 -74q0 -28 -3 -70l-2 -56q0 -16 9 -16q8 0 12 2l9 -8l-13 -71q-27 -20 -59 -20q-30 0 -44.5 10.5t-23.5 37.5h-5q-29 -34 -70 -49q-54 0 -86 29t-32 79q0 77 81 89l99 12l1 5q0 17 -7.5 24t-24.5 7q-40 0 -103 -32l-8 5l-15 89q69 33 149 33
q66 0 101 -26zM139 436q0 -27 25 -27q16 0 31 9v45l-37 -4q-19 -5 -19 -23z" />
    <glyph glyph-name="b.sups" horiz-adv-x="384" 
d="M335.5 609.5q34.5 -41.5 34.5 -116.5q0 -87 -46 -133t-125 -46q-47 0 -96 18l-58 -18l-12 13l6 126l-5 342l138 9l-4 -204h3q28 32 67 51q63 0 97.5 -41.5zM227 415.5q13 16.5 13 58.5q0 35 -11 51.5t-35 16.5q-14 0 -28 -7l-1 -65l1 -67q11 -4 23 -4q25 0 38 16.5z" />
    <glyph glyph-name="c.sups" horiz-adv-x="272" 
d="M269 639l-23 -105l-9 -5q-34 14 -52 14q-20 0 -29.5 -11.5t-9.5 -37.5q0 -38 11.5 -55t36.5 -17q21 0 57 9l10 -8l-14 -101q-32 -8 -87 -8q-70 0 -108 43t-38 122q0 84 44.5 130t126.5 46q46 0 84 -16z" />
    <glyph glyph-name="d.sups" horiz-adv-x="386" 
d="M353 413q7 0 12 2l9 -8l-14 -71q-28 -20 -68 -20q-26 0 -41.5 9.5t-26.5 35.5h-5q-23 -23 -62 -46q-67 0 -105 44.5t-38 120.5q0 85 46.5 129t127.5 44l25 -1l-2 143l137 9l-5 -376q0 -15 10 -15zM152.5 548q-9.5 -13 -9.5 -51q0 -79 39 -79q15 0 35 14l-3 125
q-13 4 -28 4q-24 0 -33.5 -13z" />
    <glyph glyph-name="e.sups" horiz-adv-x="351" 
d="M146 453q6 -21 21 -30t44 -9q47 0 105 16l9 -7l-14 -95q-53 -14 -112 -14q-89 0 -137 44.5t-48 126.5q0 80 46 124.5t127 44.5q72 0 110.5 -36t38.5 -102q0 -28 -3 -49l-10 -14h-177zM217 533q0 32 -35 32q-33 0 -39 -48l73 1q1 7 1 15z" />
    <glyph glyph-name="f.sups" horiz-adv-x="238" 
d="M315 800l-8 -101l-9 -6q-42 17 -66 17q-31 0 -31 -27l-1 -40h77l3 -7l-6 -73h-75l-1 -96l5 -145h-138l6 131l-2 110h-50l-4 7l6 73h46v15q0 71 47.5 109.5t132.5 38.5q33 0 68 -6z" />
    <glyph glyph-name="g.sups" horiz-adv-x="366" 
d="M345 578l-2 -3q6 -15 6 -31q0 -55 -42.5 -85.5t-117.5 -30.5q-12 0 -36 2v-6q0 -9 14 -12.5t46 -6.5q42 -4 71 -10.5t50.5 -26t21.5 -57.5q0 -57 -46 -90.5t-126 -33.5q-73 0 -111.5 25t-38.5 69q26 25 53 41v4q-47 21 -47 73q23 22 55 42v5q-59 28 -59 92
q0 55 42.5 85.5t116.5 30.5q39 0 75 -13q45 7 107 34l9 -8v-85q-16 -4 -41 -4zM227 540q0 18 -7.5 24t-26.5 6q-20 0 -28 -6.5t-8 -22.5q0 -18 8 -25.5t27 -7.5q35 0 35 32zM223.5 301.5q-15.5 4.5 -49.5 7.5l-23 2q-6 -7 -6 -18q0 -31 51 -31q23 0 33 4.5t10 18.5
q0 12 -15.5 16.5z" />
    <glyph glyph-name="h.sups" horiz-adv-x="398" 
d="M233 502q0 40 -33 40q-17 0 -33 -8l-1 -67l6 -145h-139l6 131l-4 342l137 9l-4 -204h4q37 35 82 50q53 0 81 -23t26 -66l-3 -94l6 -145h-139z" />
    <glyph glyph-name="i.sups" horiz-adv-x="207" 
d="M156 807q17 -18 17 -50q0 -34 -19 -54t-53 -20q-31 0 -48 18t-17 50q0 34 19 54t53 20q31 0 48 -18zM172 322h-139l7 131l-5 186l137 9l-6 -181z" />
    <glyph glyph-name="j.sups" horiz-adv-x="231" 
d="M167.5 807q17.5 -18 17.5 -50q0 -34 -19.5 -54t-52.5 -20t-50.5 18t-17.5 50q0 34 20 54t53 20q32 0 49.5 -18zM188 467l6 -120q0 -56 -33 -95t-103 -65l-46 61v11q49 25 49 85v109l-1 88l-48 -2l-7 8l7 96h50l129 6l4 -3z" />
    <glyph glyph-name="k.sups" horiz-adv-x="392" 
d="M388 345l-1 -14q-35 -7 -130 -18l-14 8q-50 87 -77 156v-10l6 -145h-139l6 131l-4 342l137 9l-5 -295l58 99l16 38h141l-89 -143q30 -56 95 -158z" />
    <glyph glyph-name="l.sups" horiz-adv-x="205" 
d="M171 322h-138l6 131l-5 342l137 9l-5 -337z" />
    <glyph glyph-name="m.sups" horiz-adv-x="588" 
d="M424 503q0 40 -33 40q-14 0 -33 -8l-2 -68l6 -145h-137l7 181q0 40 -34 40q-16 0 -34 -9v-67l6 -145h-137l6 131l-4 186l129 9v-48h5q39 36 83 50q80 0 100 -50h4q37 34 89 50q52 0 80 -23t27 -66l-3 -94l5 -145h-137z" />
    <glyph glyph-name="n.sups" horiz-adv-x="397" 
d="M232 502q0 40 -33 40q-17 0 -33 -8v-67l6 -145h-139l6 131l-4 186l131 9v-48h5q37 35 83 50q52 0 80 -23t27 -66l-3 -94l5 -145h-139z" />
    <glyph glyph-name="o.sups" horiz-adv-x="356" 
d="M342 492q0 -178 -171 -178q-157 0 -157 163q0 178 171 178q157 0 157 -163zM150 549q-6 -13 -6 -55q0 -39 3 -57.5t10.5 -26t22.5 -7.5q20 0 26.5 14t6.5 58q0 37 -3 55t-11 25t-23 7q-20 0 -26 -13z" />
    <glyph glyph-name="p.sups" horiz-adv-x="401" 
d="M333 609.5q34 -41.5 34 -116.5q0 -87 -45.5 -133t-125.5 -46q-9 0 -29 2l2 -121h-135l4 258l-5 186l131 9v-48h5q30 33 67 51q63 0 97 -41.5zM224.5 415.5q12.5 16.5 12.5 58.5q0 35 -10.5 51.5t-34.5 16.5q-14 0 -28 -7v-68l1 -65q12 -3 22 -3q25 0 37.5 16.5z" />
    <glyph glyph-name="q.sups" horiz-adv-x="380" 
d="M346 648l-5 -181l4 -272h-135l6 142v16h-5q-29 -25 -54 -38q-67 0 -105 44.5t-38 119.5q0 84 46.5 129t122.5 45q37 0 90 -16l64 18zM152 548q-9 -13 -9 -51q0 -79 38 -79q18 0 34 12v125q-11 6 -31 6q-23 0 -32 -13z" />
    <glyph glyph-name="r.sups" horiz-adv-x="276" 
d="M271 646v-120l-13 -4q-15 3 -27 3q-36 0 -65 -25v-33l6 -145h-139l6 131l-4 186l131 9v-59h6q32 58 83 58q9 0 16 -1z" />
    <glyph glyph-name="s.sups" horiz-adv-x="290" 
d="M271 637l-18 -95l-16 -5q-24 14 -48.5 22.5t-38.5 8.5q-18 0 -18 -10q0 -9 9.5 -14t34.5 -14q46 -15 73 -36t27 -65q0 -48 -37 -81.5t-110 -33.5q-59 0 -121 17l16 102l11 9q27 -20 57 -32.5t51 -12.5q19 0 19 10q0 9 -10 14.5t-34 14.5q-46 16 -73 37t-27 65
q0 51 39.5 83.5t108.5 32.5q48 0 105 -17z" />
    <glyph glyph-name="t.sups" horiz-adv-x="256" 
d="M237 428l8 -11l-11 -74q-37 -17 -74 -26q-57 0 -88.5 25t-29.5 66l2 72v83h-43l-4 7l6 73h41v63l128 27l9 -8l-3 -82h66l3 -7l-6 -73h-66l-4 -100q0 -21 7.5 -30.5t25.5 -9.5q13 0 33 5z" />
    <glyph glyph-name="u.sups" horiz-adv-x="389" 
d="M359 413q6 0 11 2l9 -8l-13 -71q-28 -20 -62 -20q-28 0 -45 11.5t-30 40.5h-5q-34 -36 -76 -50q-52 0 -80.5 23.5t-28.5 66.5l3 72l-5 159l131 9v-185q0 -36 28 -36q16 0 29 9v203l131 9l-7 -220q0 -15 10 -15z" />
    <glyph glyph-name="v.sups" horiz-adv-x="328" 
d="M168 449h7l32 126l12 71h119l-99 -324h-150l-84 323l130 4l8 -66z" />
    <glyph glyph-name="w.sups" horiz-adv-x="511" 
d="M157 460h6l26 118l11 68h137l6 -59l20 -126h8l22 117l13 68h116l-97 -324h-132l-29 153h-9l-33 -153h-138l-80 323l127 4l7 -62z" />
    <glyph glyph-name="x.sups" horiz-adv-x="348" 
d="M185 561l26 47l19 38h119l-90 -160l90 -160l-146 -10l-18 51l-21 41l-27 -47l-17 -39h-120l88 161l-89 161l148 4l16 -47z" />
    <glyph glyph-name="y.sups" horiz-adv-x="324" 
d="M165 456h7l33 118l13 72h117l-98 -288q-22 -68 -61.5 -104t-124.5 -65l-10 1q-32 31 -60 83l5 12q65 9 121 37l-122 323l132 4l11 -62z" />
    <glyph glyph-name="z.sups" horiz-adv-x="320" 
d="M248 646l47 1v-80l-130 -162h65l66 5l8 -9l-9 -81l-101 2h-115l-60 -4v81l132 165h-61l-67 -5l-7 9l9 80l84 -2h139z" />
    <glyph glyph-name="zero.lf" horiz-adv-x="510" 
d="M429 522.5q56 -75.5 56 -216.5q0 -153 -62.5 -235.5t-179.5 -82.5q-106 0 -162.5 75.5t-56.5 215.5q0 154 63 236.5t181 82.5q105 0 161 -75.5zM193 386q-18 -28 -18 -94q0 -70 18 -101.5t61 -31.5t62 29.5t19 94.5q0 70 -19 100.5t-63 30.5q-42 0 -60 -28z" />
    <glyph glyph-name="one.lf" horiz-adv-x="394" 
d="M307 210l8 -210h-198l8 190v182l-113 -20l-12 9v158l289 76l28 -20z" />
    <glyph glyph-name="two.lf" horiz-adv-x="506" 
d="M391.5 557q52.5 -40 52.5 -112q0 -43 -25 -94.5t-83 -124.5l-54 -68l3 -5h88l99 10l10 -13l-22 -158l-146 8h-237l-37 -3l-9 7v119l127 138q48 53 69.5 82.5t21.5 52.5q0 16 -10 25.5t-30 9.5q-27 0 -62.5 -17t-66.5 -45h-21l-33 152q127 76 233 76q80 0 132.5 -40z" />
    <glyph glyph-name="three.lf" horiz-adv-x="452" 
d="M361.5 557q55.5 -41 55.5 -108q0 -87 -86 -136v-6q96 -33 96 -135q0 -54 -34.5 -95.5t-97 -64.5t-144.5 -23q-61 0 -118 11l-12 144l13 12q69 -20 121 -20q84 0 84 44q0 32 -46 32h-84l-9 12l3 134l45 2q31 2 50.5 14t19.5 34q0 32 -46 32q-41 0 -110 -31h-20l-30 135
q94 54 203 54q91 0 146.5 -41z" />
    <glyph glyph-name="four.lf" horiz-adv-x="519" 
d="M424 111l7 -98l-10 -13l-153 -9l-10 12l4 110h-126l-112 -4l-12 16v123l233 338h180l-5 -324h68l11 -17l-8 -136zM266 262l-1 111h-11l-77 -111h89z" />
    <glyph glyph-name="five.lf" horiz-adv-x="454" 
d="M408 434l-13 -14l-111 15h-79l-1 -56l60 -13q81 -17 119.5 -56.5t38.5 -106.5q0 -64 -33.5 -113t-95 -75.5t-142.5 -26.5q-63 0 -130 14l-11 140l13 13q64 -19 128 -19q85 0 85 47q0 19 -14 30t-46 16l-109 18l-11 14l-1 309l19 20l63 -4h161l117 8l11 -12z" />
    <glyph glyph-name="six.lf" horiz-adv-x="492" 
d="M395 350.5q39 -25.5 59.5 -67t20.5 -88.5q0 -52 -25.5 -99.5t-78 -77.5t-128.5 -30q-106 0 -166.5 62.5t-60.5 169.5q0 115 74.5 213.5t210.5 164.5h9l124 -86v-19q-85 -34 -132.5 -61.5t-71.5 -60.5l4 -5q35 10 67 10q55 0 94 -25.5zM299 176q0 65 -57 65q-22 0 -49 -9
v-9q0 -59 10 -84.5t45 -25.5q51 0 51 63z" />
    <glyph glyph-name="seven.lf" horiz-adv-x="435" 
d="M358 586l56 2v-142l-124 -273l-69 -185l-156 43l-12 30l172 364h-101l-109 -12l-9 15l12 163l137 -5h203z" />
    <glyph glyph-name="eight.lf" horiz-adv-x="515" 
d="M414 556.5q51 -41.5 51 -111.5q0 -76 -80 -128v-8q94 -48 94 -135t-64.5 -136.5t-172.5 -49.5q-101 0 -155 42.5t-54 110.5q0 47 25.5 78t77.5 53v8q-88 48 -88 139q0 83 61 131t164 48q90 0 141 -41.5zM206 426q0 -22 18.5 -37t53.5 -29q35 30 35 62q0 20 -14.5 32
t-39.5 12q-53 0 -53 -40zM204.5 202.5q-11.5 -12.5 -11.5 -33.5q0 -25 16.5 -39t48.5 -14q31 0 47 12.5t16 30.5q0 22 -19.5 36.5t-58.5 29.5q-27 -10 -38.5 -22.5z" />
    <glyph glyph-name="nine.lf" horiz-adv-x="492" 
d="M415.5 535.5q60.5 -62.5 60.5 -169.5q0 -115 -74.5 -213.5t-210.5 -164.5h-9l-124 86v19q85 34 132.5 61.5t71.5 60.5l-4 5q-35 -10 -67 -10q-55 0 -94 25.5t-59.5 67t-20.5 88.5q0 52 25.5 99.5t78 77.5t128.5 30q106 0 166.5 -62.5zM299 354v9q0 59 -10 84.5t-45 25.5
q-51 0 -51 -63q0 -65 57 -65q22 0 49 9z" />
    <glyph glyph-name="zero.sinf" horiz-adv-x="376" 
d="M314.5 230.5q40.5 -50.5 40.5 -144.5q0 -103 -45.5 -158.5t-130.5 -55.5q-77 0 -118 50t-41 144q0 103 46 159t132 56q76 0 116.5 -50.5zM146.5 133.5q-11.5 -16.5 -11.5 -57.5q0 -44 11.5 -63.5t40.5 -19.5q30 0 42 18t12 58q0 44 -12.5 62.5t-42.5 18.5
q-28 0 -39.5 -16.5z" />
    <glyph glyph-name="one.sinf" horiz-adv-x="296" 
d="M231 21l6 -141h-150l6 127v113l-80 -12l-9 6v113l213 52l21 -14z" />
    <glyph glyph-name="two.sinf" horiz-adv-x="375" 
d="M289.5 253q38.5 -27 38.5 -76q0 -56 -77 -145l-35 -40l2 -3h56l72 7l7 -9l-16 -113l-108 6h-170l-26 -2l-7 5v84l90 89q35 34 49.5 52.5t14.5 33.5q0 20 -26 20q-19 0 -44 -11t-47 -29h-16l-25 108q92 50 170 50q59 0 97.5 -27z" />
    <glyph glyph-name="three.sinf" horiz-adv-x="337" 
d="M268.5 253q40.5 -28 40.5 -73q0 -58 -61 -91v-4q68 -22 68 -90q0 -56 -55.5 -89.5t-146.5 -33.5q-44 0 -86 8l-9 102l10 9q46 -14 88 -14q57 0 57 24q0 17 -28 17h-62l-7 8l2 95l33 2q47 2 47 28q0 18 -31 18q-26 0 -78 -19h-15l-23 95q70 36 149 36q67 0 107.5 -28z" />
    <glyph glyph-name="four.sinf" horiz-adv-x="385" 
d="M315 -50l5 -61l-8 -9l-115 -6l-8 8l3 70h-87l-83 -3l-9 11v88l166 225h136l-3 -215h47l8 -12l-6 -97zM195 58l-1 64h-8l-49 -64h58z" />
    <glyph glyph-name="five.sinf" horiz-adv-x="339" 
d="M301 165l-10 -10l-82 10h-53v-30l43 -9q58 -11 85.5 -37.5t27.5 -71.5q0 -66 -54 -105.5t-143 -39.5q-46 0 -96 9l-8 100l9 9q48 -13 95 -13q56 0 56 25q0 12 -9 18t-30 9l-80 12l-8 10l-1 210l14 14l46 -2h117l86 5l9 -8z" />
    <glyph glyph-name="six.sinf" horiz-adv-x="365" 
d="M316.5 97.5q33.5 -36.5 33.5 -85.5q0 -35 -18.5 -67t-57 -52.5t-93.5 -20.5q-77 0 -121.5 42t-44.5 114q0 77 53.5 142.5t150.5 110.5h7l94 -61v-14q-60 -23 -92 -39.5t-50 -36.5l1 -1q25 5 45 5q59 0 92.5 -36.5zM217 -2q0 40 -38 40q-15 0 -30 -4v-4q0 -39 6 -54.5
t29 -15.5q33 0 33 38z" />
    <glyph glyph-name="seven.sinf" horiz-adv-x="324" 
d="M264 273l41 1v-101l-86 -173l-51 -128l-118 30l-9 22l121 234h-67l-80 -8l-7 10l9 116l102 -3h145z" />
    <glyph glyph-name="eight.sinf" horiz-adv-x="383" 
d="M306.5 253q37.5 -28 37.5 -75q0 -50 -56 -85v-6q65 -32 65 -89q0 -59 -47 -92.5t-126 -33.5q-73 0 -112.5 28.5t-39.5 73.5q0 31 17.5 52t55.5 35v5q-63 32 -63 93q0 57 44.5 89.5t120.5 32.5q66 0 103.5 -28zM158 164q0 -13 12.5 -22t36.5 -19q22 21 22 38q0 12 -9.5 19
t-26.5 7q-35 0 -35 -23zM149 -6q0 -32 43 -32q21 0 31.5 7.5t10.5 17.5q0 22 -53 40q-32 -11 -32 -33z" />
    <glyph glyph-name="nine.sinf" horiz-adv-x="366" 
d="M306.5 239q44.5 -42 44.5 -115q0 -76 -54 -141.5t-151 -110.5h-7l-94 61v13q60 23 92.5 39.5t50.5 35.5l-2 2q-19 -4 -45 -4q-39 0 -67.5 17.5t-43.5 45.5t-15 59q0 34 19 66.5t57.5 53t93.5 20.5q77 0 121.5 -42zM217 119v3q0 39 -6 54.5t-30 15.5q-33 0 -33 -37
q0 -40 38 -40q15 0 31 4z" />
    <glyph glyph-name="zero.tf" horiz-adv-x="475" 
d="M405 522.5q54 -75.5 54 -216.5q0 -153 -60.5 -235.5t-173.5 -82.5q-101 0 -155.5 75.5t-54.5 215.5q0 154 61 236.5t174 82.5q101 0 155 -75.5zM181.5 386q-15.5 -28 -15.5 -94q0 -70 16 -101.5t54 -31.5q39 0 56 29.5t17 94.5q0 70 -17 100.5t-56 30.5t-54.5 -28z" />
    <glyph glyph-name="one.tf" horiz-adv-x="475" 
d="M349 210l8 -210h-198l8 190v182l-135 -20l-12 9v158l311 76l28 -20z" />
    <glyph glyph-name="two.tf" horiz-adv-x="475" 
d="M372.5 557q50.5 -40 50.5 -112q0 -44 -23.5 -95.5t-78.5 -123.5l-47 -68l3 -5h75l95 10l10 -13l-22 -158l-142 8h-226l-35 -3l-9 7v119l120 138q45 54 65 83t20 52q0 35 -35 35q-24 0 -57.5 -17t-63.5 -45h-21l-33 152q124 76 226 76q78 0 128.5 -40z" />
    <glyph glyph-name="three.tf" horiz-adv-x="475" 
d="M333.5 579.5q46.5 -18.5 72.5 -52.5t26 -78q0 -36 -20.5 -72.5t-69.5 -63.5v-6q101 -34 101 -135q0 -54 -35.5 -95.5t-99.5 -64.5t-148 -23q-63 0 -121 11l-12 144l13 12q71 -20 124 -20q91 0 91 44q0 32 -53 32h-85l-9 12l3 134l46 2q34 2 55 14t21 34q0 32 -50 32
q-43 0 -115 -31h-20l-30 135q97 54 208 54q61 0 107.5 -18.5z" />
    <glyph glyph-name="four.tf" horiz-adv-x="475" 
d="M398 111l7 -98l-10 -13l-153 -9l-10 12l4 110h-112l-110 -4l-12 16v123l217 338h180l-5 -324h61l11 -17l-8 -136zM240 262l-1 111h-11l-61 -111h73z" />
    <glyph glyph-name="five.tf" horiz-adv-x="475" 
d="M423 434l-13 -14l-112 15h-86l-1 -56l62 -13q84 -17 124 -56.5t40 -106.5q0 -64 -34.5 -113t-97.5 -75.5t-146 -26.5q-65 0 -133 14l-11 140l13 13q66 -19 131 -19q92 0 92 47q0 19 -15.5 30t-50.5 16l-111 18l-11 14l-1 309l19 20l65 -4h165l119 8l11 -12z" />
    <glyph glyph-name="six.tf" horiz-adv-x="475" 
d="M384.5 350.5q38.5 -25.5 58 -67t19.5 -88.5q0 -52 -25 -99.5t-76.5 -77.5t-125.5 -30q-104 0 -163.5 62t-59.5 170q0 115 72.5 213.5t204.5 164.5h9l124 -86v-19q-83 -34 -128 -61t-69 -60l5 -6q33 10 62 10q54 0 92.5 -25.5zM286 176q0 65 -53 65q-19 0 -44 -9v-9
q0 -60 9 -85t42 -25q46 0 46 63z" />
    <glyph glyph-name="seven.tf" horiz-adv-x="475" 
d="M386 586l58 2v-142l-138 -273l-71 -185l-156 43l-12 30l188 364h-118l-112 -12l-9 15l12 163l140 -5h218z" />
    <glyph glyph-name="eight.tf" horiz-adv-x="475" 
d="M388 556.5q49 -41.5 49 -111.5q0 -78 -72 -128v-8q85 -48 85 -135t-62 -136.5t-166 -49.5q-96 0 -148 42.5t-52 110.5q0 47 23 78.5t72 52.5v8q-81 48 -81 139q0 83 58.5 131t158.5 48q86 0 135 -41.5zM194 426q0 -22 16.5 -37t47.5 -29q27 27 27 62q0 20 -12 32t-34 12
q-45 0 -45 -40zM191 202.5q-9 -12.5 -9 -33.5q0 -25 14.5 -39t42.5 -14q27 0 40 12.5t13 30.5q0 22 -17.5 36.5t-51.5 29.5q-23 -10 -32 -22.5z" />
    <glyph glyph-name="nine.tf" horiz-adv-x="475" 
d="M403 535.5q60 -62.5 60 -169.5q0 -115 -72.5 -213.5t-204.5 -164.5h-9l-124 86v19q83 34 128 61t69 60l-5 6q-33 -10 -62 -10q-54 0 -92.5 25.5t-58 67t-19.5 88.5q0 52 25 99.5t76.5 77.5t125.5 30q103 0 163 -62.5zM286 354v9q0 60 -9 85t-42 25q-46 0 -46 -63
q0 -65 53 -65q19 0 44 9z" />
    <glyph glyph-name="zero.tosf" horiz-adv-x="475" 
d="M400.5 457.5q53.5 -66.5 53.5 -187.5q0 -134 -60 -208t-168 -74q-97 0 -151 67t-54 188q0 132 60.5 206.5t169.5 74.5q96 0 149.5 -66.5zM185.5 323q-14.5 -19 -14.5 -67q0 -52 15 -74.5t51 -22.5q37 0 52.5 20.5t15.5 67.5q0 52 -16 73.5t-53 21.5q-36 0 -50.5 -19z" />
    <glyph glyph-name="one.tosf" horiz-adv-x="475" 
d="M343 210l8 -210h-198l8 190v109l-120 -20l-13 9v158l297 76l28 -20z" />
    <glyph glyph-name="two.tosf" horiz-adv-x="475" 
d="M375.5 486.5q50.5 -35.5 50.5 -99.5q0 -84 -105 -190l-42 -44l3 -5h73l96 10l10 -12l-22 -154l-143 8h-226l-36 -3l-9 7v118l126 110q80 72 80 102q0 23 -33 23q-26 0 -60 -13.5t-64 -36.5h-21l-33 152q123 63 226 63q79 0 129.5 -35.5z" />
    <glyph glyph-name="three.tosf" horiz-adv-x="475" 
d="M377.5 483q56.5 -41 56.5 -108q0 -37 -21.5 -74.5t-71.5 -65.5v-6q99 -34 99 -135q0 -55 -36 -97.5t-100.5 -66t-149.5 -23.5q-64 0 -122 11l-10 144l13 12q71 -20 125 -20q92 0 92 47q0 33 -53 33h-86l-8 12l5 134l47 2q33 2 55 15t22 36q0 33 -51 33q-41 0 -115 -32
h-20l-28 135q101 55 209 55q92 0 148.5 -41z" />
    <glyph glyph-name="four.tosf" horiz-adv-x="475" 
d="M398 30l6 -103l-10 -13l-153 -9l-10 12l4 115h-111l-109 -4l-12 16v123l215 347h180l-4 -333h61l10 -17l-7 -136zM239 181l-1 119h-10l-61 -119h72z" />
    <glyph glyph-name="five.tosf" horiz-adv-x="475" 
d="M427 362l-13 -14l-113 15h-88l-2 -61l63 -13q83 -17 123 -56.5t40 -106.5q0 -66 -35.5 -116t-100 -77.5t-149.5 -27.5q-64 0 -132 14l-9 140l13 13q66 -19 131 -19q46 0 71 13t25 38q0 20 -16 31.5t-51 16.5l-112 18l-12 14l6 314l19 20l65 -4h167l120 8l11 -12z" />
    <glyph glyph-name="six.tosf" horiz-adv-x="475" 
d="M382.5 350.5q38.5 -25.5 58 -67t19.5 -88.5q0 -52 -25 -99.5t-76 -77.5t-125 -30q-103 0 -162.5 62.5t-59.5 169.5q0 116 72 214t203 164h9l124 -86v-19q-82 -34 -126.5 -61t-68.5 -60l5 -6q32 10 61 10q53 0 91.5 -25.5zM284 176q0 65 -52 65q-17 0 -43 -8v-10
q0 -60 9 -85t41 -25q45 0 45 63z" />
    <glyph glyph-name="seven.tosf" horiz-adv-x="475" 
d="M387 514l58 2v-142l-140 -285l-71 -186l-157 43l-12 30l191 377h-120l-113 -12l-9 15l12 163l141 -5h220z" />
    <glyph glyph-name="eight.tosf" horiz-adv-x="475" 
d="M388 556.5q49 -41.5 49 -111.5q0 -78 -72 -128v-8q85 -48 85 -135t-62 -136.5t-166 -49.5q-96 0 -148 42.5t-52 110.5q0 47 23 78.5t72 52.5v8q-81 48 -81 139q0 83 58.5 131t158.5 48q86 0 135 -41.5zM194 426q0 -22 16.5 -37t47.5 -29q27 27 27 62q0 20 -12 32t-34 12
q-45 0 -45 -40zM191 202.5q-9 -12.5 -9 -33.5q0 -25 14.5 -39t42.5 -14q27 0 40 12.5t13 30.5q0 22 -17.5 36.5t-51.5 29.5q-23 -10 -32 -22.5z" />
    <glyph glyph-name="nine.tosf" horiz-adv-x="475" 
d="M403.5 461.5q59.5 -62.5 59.5 -169.5q0 -116 -72 -214t-203 -164h-9l-124 86v19q82 34 126.5 61t68.5 60l-5 6q-32 -10 -61 -10q-53 0 -91.5 25.5t-58 67t-19.5 88.5q0 52 25 99.5t76 77.5t125 30q103 0 162.5 -62.5zM286 279v10q0 60 -9 85t-41 25q-45 0 -45 -63
q0 -65 52 -65q17 0 43 8z" />
    <glyph glyph-name="zero.dnom" horiz-adv-x="376" 
d="M314.5 350.5q40.5 -50.5 40.5 -144.5q0 -103 -45.5 -158.5t-130.5 -55.5q-77 0 -118 50t-41 144q0 103 46 159t132 56q76 0 116.5 -50.5zM146.5 253.5q-11.5 -16.5 -11.5 -57.5q0 -44 11.5 -63.5t40.5 -19.5q30 0 42 18t12 58q0 44 -12.5 62.5t-42.5 18.5
q-28 0 -39.5 -16.5z" />
    <glyph glyph-name="one.dnom" horiz-adv-x="296" 
d="M231 141l6 -141h-150l6 127v113l-80 -12l-9 6v113l213 52l21 -14z" />
    <glyph glyph-name="two.dnom" horiz-adv-x="375" 
d="M289.5 373q38.5 -27 38.5 -76q0 -56 -77 -145l-35 -40l2 -3h56l72 7l7 -9l-16 -113l-108 6h-170l-26 -2l-7 5v84l90 89q35 35 49.5 53t14.5 33q0 20 -26 20q-19 0 -44 -11t-47 -29h-16l-25 108q92 50 170 50q59 0 97.5 -27z" />
    <glyph glyph-name="three.dnom" horiz-adv-x="337" 
d="M268.5 373q40.5 -28 40.5 -73q0 -58 -61 -91v-4q68 -22 68 -90q0 -56 -55.5 -89.5t-146.5 -33.5q-44 0 -86 8l-9 102l10 9q46 -14 88 -14q57 0 57 24q0 17 -28 17h-62l-7 8l2 95l33 2q47 2 47 28q0 18 -31 18q-26 0 -78 -19h-15l-23 95q70 36 149 36q67 0 107.5 -28z" />
    <glyph glyph-name="four.dnom" horiz-adv-x="385" 
d="M315 70l5 -61l-8 -9l-115 -6l-8 8l3 70h-87l-83 -3l-9 11v88l166 225h136l-3 -215h47l8 -12l-6 -97zM195 178l-1 64h-8l-49 -64h58z" />
    <glyph glyph-name="five.dnom" horiz-adv-x="339" 
d="M301 285l-10 -10l-82 10h-53v-30l43 -9q58 -11 85.5 -37.5t27.5 -71.5q0 -66 -54 -105.5t-143 -39.5q-46 0 -96 9l-8 100l9 9q48 -13 95 -13q56 0 56 25q0 12 -9 18t-30 9l-80 12l-8 10l-1 210l14 14l46 -2h117l86 5l9 -8z" />
    <glyph glyph-name="six.dnom" horiz-adv-x="365" 
d="M316.5 217.5q33.5 -36.5 33.5 -85.5q0 -35 -18.5 -67t-57 -52.5t-93.5 -20.5q-77 0 -121.5 42t-44.5 114q0 77 53.5 142.5t150.5 110.5h7l94 -61v-14q-60 -23 -92 -39.5t-50 -36.5l1 -1q25 5 45 5q59 0 92.5 -36.5zM217 118q0 40 -38 40q-15 0 -30 -4v-4q0 -39 6 -54.5
t29 -15.5q33 0 33 38z" />
    <glyph glyph-name="seven.dnom" horiz-adv-x="324" 
d="M264 393l41 1v-101l-86 -173l-51 -128l-118 30l-9 22l121 234h-67l-80 -8l-7 10l9 116l102 -3h145z" />
    <glyph glyph-name="eight.dnom" horiz-adv-x="383" 
d="M306.5 373q37.5 -28 37.5 -75q0 -50 -56 -85v-6q65 -32 65 -89q0 -59 -47 -92.5t-126 -33.5q-73 0 -112.5 28.5t-39.5 73.5q0 31 17.5 52t55.5 35v5q-63 32 -63 93q0 57 44.5 89.5t120.5 32.5q66 0 103.5 -28zM158 284q0 -13 12.5 -22t36.5 -19q22 21 22 38q0 12 -9.5 19
t-26.5 7q-35 0 -35 -23zM149 114q0 -32 43 -32q21 0 31.5 7.5t10.5 17.5q0 22 -53 40q-32 -11 -32 -33z" />
    <glyph glyph-name="nine.dnom" horiz-adv-x="366" 
d="M306.5 359q44.5 -42 44.5 -115q0 -76 -54 -141.5t-151 -110.5h-7l-94 61v13q60 23 92.5 39.5t50.5 35.5l-2 2q-19 -4 -45 -4q-39 0 -67.5 17.5t-43.5 45.5t-15 59q0 34 19 66.5t57.5 53t93.5 20.5q77 0 121.5 -42zM217 239v3q0 39 -6 54.5t-30 15.5q-33 0 -33 -37
q0 -40 38 -40q15 0 31 4z" />
    <glyph glyph-name="zero.numr" horiz-adv-x="376" 
d="M314.5 604.5q40.5 -50.5 40.5 -144.5q0 -103 -45.5 -158.5t-130.5 -55.5q-77 0 -118 50t-41 144q0 103 46 159t132 56q76 0 116.5 -50.5zM146.5 507.5q-11.5 -16.5 -11.5 -57.5q0 -44 11.5 -63.5t40.5 -19.5q30 0 42 18t12 58q0 44 -12.5 62.5t-42.5 18.5
q-28 0 -39.5 -16.5z" />
    <glyph glyph-name="one.numr" horiz-adv-x="296" 
d="M231 395l6 -141h-150l6 127v113l-80 -12l-9 6v113l213 52l21 -14z" />
    <glyph glyph-name="two.numr" horiz-adv-x="375" 
d="M289.5 627q38.5 -27 38.5 -76q0 -56 -77 -145l-35 -40l2 -3h56l72 7l7 -9l-16 -113l-108 6h-170l-26 -2l-7 5v84l90 89q35 35 49.5 53t14.5 33q0 20 -26 20q-19 0 -44 -11t-47 -29h-16l-25 108q92 50 170 50q59 0 97.5 -27z" />
    <glyph glyph-name="three.numr" horiz-adv-x="337" 
d="M268.5 627q40.5 -28 40.5 -73q0 -58 -61 -91v-4q68 -22 68 -90q0 -56 -55.5 -89.5t-146.5 -33.5q-44 0 -86 8l-9 102l10 9q46 -14 88 -14q57 0 57 24q0 17 -28 17h-62l-7 8l2 95l33 2q47 2 47 28q0 18 -31 18q-26 0 -78 -19h-15l-23 95q70 36 149 36q67 0 107.5 -28z" />
    <glyph glyph-name="four.numr" horiz-adv-x="385" 
d="M315 324l5 -61l-8 -9l-115 -6l-8 8l3 70h-87l-83 -3l-9 11v88l166 225h136l-3 -215h47l8 -12l-6 -97zM195 432l-1 64h-8l-49 -64h58z" />
    <glyph glyph-name="five.numr" horiz-adv-x="339" 
d="M301 539l-10 -10l-82 10h-53v-30l43 -9q58 -11 85.5 -37.5t27.5 -71.5q0 -66 -54 -105.5t-143 -39.5q-46 0 -96 9l-8 100l9 9q48 -13 95 -13q56 0 56 25q0 12 -9 18t-30 9l-80 12l-8 10l-1 210l14 14l46 -2h117l86 5l9 -8z" />
    <glyph glyph-name="six.numr" horiz-adv-x="365" 
d="M316.5 471.5q33.5 -36.5 33.5 -85.5q0 -35 -18.5 -67t-57 -52.5t-93.5 -20.5q-77 0 -121.5 42t-44.5 114q0 77 53.5 142.5t150.5 110.5h7l94 -61v-14q-60 -23 -92 -39.5t-50 -36.5l1 -1q25 5 45 5q59 0 92.5 -36.5zM217 372q0 40 -38 40q-15 0 -30 -4v-4q0 -39 6 -54.5
t29 -15.5q33 0 33 38z" />
    <glyph glyph-name="seven.numr" horiz-adv-x="324" 
d="M264 647l41 1v-101l-86 -173l-51 -128l-118 30l-9 22l121 234h-67l-80 -8l-7 10l9 116l102 -3h145z" />
    <glyph glyph-name="eight.numr" horiz-adv-x="383" 
d="M306.5 627q37.5 -28 37.5 -75q0 -50 -56 -85v-6q65 -32 65 -89q0 -59 -47 -92.5t-126 -33.5q-73 0 -112.5 28.5t-39.5 73.5q0 31 17.5 52t55.5 35v5q-63 32 -63 93q0 57 44.5 89.5t120.5 32.5q66 0 103.5 -28zM158 538q0 -13 12.5 -22t36.5 -19q22 21 22 38q0 12 -9.5 19
t-26.5 7q-35 0 -35 -23zM149 368q0 -32 43 -32q21 0 31.5 7.5t10.5 17.5q0 22 -53 40q-32 -11 -32 -33z" />
    <glyph glyph-name="nine.numr" horiz-adv-x="366" 
d="M306.5 613q44.5 -42 44.5 -115q0 -76 -54 -141.5t-151 -110.5h-7l-94 61v13q60 23 92.5 39.5t50.5 35.5l-2 2q-19 -4 -45 -4q-39 0 -67.5 17.5t-43.5 45.5t-15 59q0 34 19 66.5t57.5 53t93.5 20.5q77 0 121.5 -42zM217 493v3q0 39 -6 54.5t-30 15.5q-33 0 -33 -37
q0 -40 38 -40q15 0 31 4z" />
    <glyph glyph-name="acute.cap" horiz-adv-x="388" 
d="M337 622l-6 -16q-132 -42 -238 -69l-17 4l-30 79q118 60 225 123l17 -4z" />
    <glyph glyph-name="breve.cap" horiz-adv-x="388" 
d="M302.5 573q-46.5 -32 -111.5 -32q-64 0 -109 32t-66 92l40 60h27q34 -50 115 -50q74 0 107 50h27l40 -60q-23 -60 -69.5 -92z" />
    <glyph glyph-name="caron.cap" horiz-adv-x="388" 
d="M210 537h-34q-63 57 -153 119l34 76h18l118 -60l118 60h18l34 -76q-90 -62 -153 -119z" />
    <glyph glyph-name="circumflex.cap" horiz-adv-x="388" 
d="M176 741h34q63 -57 153 -119l-34 -76h-18l-118 60l-118 -60h-18l-34 76q90 62 153 119z" />
    <glyph glyph-name="grave.cap" horiz-adv-x="388" 
d="M52 622l6 -16q132 -42 238 -69l17 4l30 79q-118 60 -225 123l-17 -4z" />
    <glyph glyph-name="hungarumlaut.cap" horiz-adv-x="388" 
d="M105 731l14 4l90 -58l3 -14q-63 -63 -131 -122l-16 -5l-59 46q68 98 99 149zM198 616q36 53 76 115l13 4l91 -58l3 -14q-69 -67 -132 -122l-15 -5l-59 46z" />
    <glyph glyph-name="caron.alt" horiz-adv-x="388" 
d="M225 514l-82 -13l-13 10l-10 238l139 8l10 -11z" />
    <glyph glyph-name="dieresis.i" horiz-adv-x="388" 
d="M165.254 623.549q21.3154 -21.75 21.3154 -60.8994q0 -41.7598 -23.4902 -66.1191q-23.4902 -24.3604 -64.3799 -24.3604q-40.0195 0 -60.8994 21.3154q-20.8799 21.3145 -20.8799 61.334q0 41.7598 23.9248 66.1201q23.9248 24.3594 64.8145 24.3594
q38.2803 0 59.5947 -21.75zM325.254 623.549q21.3154 -21.75 21.3154 -60.8994q0 -41.7598 -23.4902 -66.1191q-23.4902 -24.3604 -64.3799 -24.3604q-40.0195 0 -60.8994 21.3154q-20.8799 21.3145 -20.8799 61.334q0 41.7598 23.9248 66.1201
q23.9248 24.3594 64.8145 24.3594q38.2803 0 59.5947 -21.75z" />
    <glyph glyph-name="macron.i" horiz-adv-x="388" 
d="M314 571h-236l-12 13l9 107h236l12 -13z" />
    <glyph glyph-name="tilde.i" horiz-adv-x="388" 
d="M364 667l-72 -111l-15 -6q-22 4 -72 19q-41 13 -51 13q-17 0 -29 -13.5t-31 -42.5h-16l-56 55v16l72 111l15 6q22 -4 72 -19q41 -13 51 -13q17 0 29 13.5t31 42.5h16l56 -55v-16z" />
    </font>
</defs>
</svg>
